<svg width="24" height="24" viewBox="0 0 24 24" fill="none" xmlns="http://www.w3.org/2000/svg">
<path fill-rule="evenodd" clip-rule="evenodd" d="M11.0377 12.5628C11.5673 13.0924 12.3412 13.2954 13.0625 13.094C13.7598 12.905 14.3045 12.3603 14.4935 11.663C14.6949 10.9417 14.4919 10.1677 13.9623 9.63817C13.4327 9.1086 12.6588 8.90558 11.9375 9.10699C11.2402 9.29602 10.6955 9.84071 10.5065 10.538C10.3051 11.2593 10.5081 12.0332 11.0377 12.5628ZM12.743 9.881C12.2065 9.77454 11.6635 10.0316 11.4058 10.514C11.1481 10.9964 11.2363 11.5907 11.623 11.9775C12.0098 12.3642 12.604 12.4524 13.0865 12.1947C13.5689 11.937 13.826 11.394 13.7195 10.8575C13.6205 10.3649 13.2355 9.97997 12.743 9.881Z" fill="#787C89"/>
<path fill-rule="evenodd" clip-rule="evenodd" d="M4 4.5C4 3.83696 4.26339 3.20108 4.73223 2.73224C5.20107 2.2634 5.83696 2 6.5 2H18C18.3283 2 18.6534 2.06467 18.9567 2.19031C19.26 2.31593 19.5356 2.50009 19.7678 2.73224C19.9999 2.96439 20.1841 3.23997 20.3097 3.54329C20.4353 3.8466 20.5 4.17169 20.5 4.5V18.75C20.5 18.9489 20.421 19.1397 20.2803 19.2803C20.1397 19.421 19.9489 19.5 19.75 19.5H5.5C5.5 19.7652 5.60536 20.0196 5.79289 20.2071C5.98043 20.3946 6.23478 20.5 6.5 20.5H19.75C19.9489 20.5 20.1397 20.579 20.2803 20.7197C20.421 20.8603 20.5 21.0511 20.5 21.25C20.5 21.4489 20.421 21.6397 20.2803 21.7803C20.1397 21.921 19.9489 22 19.75 22H6.5C5.83696 22 5.20107 21.7366 4.73223 21.2678C4.26339 20.7989 4 20.163 4 19.5V4.5ZM8.05402 10.862C8.8456 9.11786 10.5846 7.9984 12.5 8C14.4154 7.9984 16.1544 9.11786 16.946 10.862C17.018 11.0128 17.018 11.1881 16.946 11.339C16.1543 13.0834 14.4156 14.2036 12.5 14.2036C10.5844 14.2036 8.84573 13.0834 8.05402 11.339C7.98199 11.1881 7.98199 11.0128 8.05402 10.862Z" fill="#787C89"/>
</svg>
