<svg width="24" height="24" viewBox="0 0 24 24" fill="none" xmlns="http://www.w3.org/2000/svg">
<path fill-rule="evenodd" clip-rule="evenodd" d="M19 10.6958C21.2091 10.6958 23 8.90494 23 6.6958C23 4.48666 21.2091 2.6958 19 2.6958C16.7909 2.6958 15 4.48666 15 6.6958C15 8.90494 16.7909 10.6958 19 10.6958ZM19.5 4.1958C19.5 3.91966 19.2761 3.6958 19 3.6958C18.7239 3.6958 18.5 3.91966 18.5 4.1958V6.1958H16.5C16.2239 6.1958 16 6.41966 16 6.6958C16 6.97194 16.2239 7.1958 16.5 7.1958H18.5V9.1958C18.5 9.47194 18.7239 9.6958 19 9.6958C19.2761 9.6958 19.5 9.47194 19.5 9.1958V7.1958H21.5C21.7761 7.1958 22 6.97194 22 6.6958C22 6.41966 21.7761 6.1958 21.5 6.1958H19.5V4.1958Z" fill="#787C89"/>
<path d="M11.1111 11.8069C11.1111 12.4206 10.6136 12.918 10 12.918C9.38635 12.918 8.88889 12.4206 8.88889 11.8069C8.88889 11.1933 9.38635 10.6958 10 10.6958C10.6136 10.6958 11.1111 11.1933 11.1111 11.8069Z" fill="#787C89"/>
<path fill-rule="evenodd" clip-rule="evenodd" d="M5 7.36247H11.4444C13.6536 7.36247 15.4444 9.15333 15.4444 11.3625V17.8069C15.4444 20.0161 13.6536 21.8069 11.4444 21.8069H5C2.79086 21.8069 1 20.0161 1 17.8069V11.3625C1 9.15333 2.79086 7.36247 5 7.36247ZM5 9.36247C3.89543 9.36247 3 10.2579 3 11.3625V15.032L4.98542 13.1163C5.58159 12.5411 6.53119 12.5581 7.1064 13.1543C7.13401 13.184 7.14783 13.1988 7.16109 13.2141C7.17435 13.2294 7.18705 13.2452 7.21246 13.2768L9.2228 15.8702L10.6921 14.167C11.2332 13.5398 12.1804 13.4699 12.8077 14.0111C12.8881 14.0804 12.9609 14.1581 13.0249 14.2428L13.4444 14.7984V11.3625C13.4444 10.2579 12.549 9.36247 11.4444 9.36247H5ZM5 19.8069C3.89683 19.8069 3.00227 18.9137 3 17.8111L5.97313 14.9425L8.01659 17.5786C8.52414 18.2334 9.46636 18.3527 10.1211 17.8452C10.2 17.784 10.2727 17.7151 10.3379 17.6395L11.802 15.9423L13.3952 18.0518C13.4048 18.0645 13.4146 18.0769 13.4247 18.089C13.2876 19.06 12.4533 19.8069 11.4444 19.8069H5Z" fill="#787C89"/>
</svg>
