<svg width="24" height="24" viewBox="0 0 24 24" fill="none" xmlns="http://www.w3.org/2000/svg">
<path fill-rule="evenodd" clip-rule="evenodd" d="M5.34783 9.30443C5.34783 9.73487 5.7 10.087 6.13043 10.087C6.56087 10.087 6.91304 9.73487 6.91304 9.30443V7.73921H8.47826C8.90869 7.73921 9.26087 7.38704 9.26087 6.95661C9.26087 6.52617 8.90869 6.174 8.47826 6.174H6.91304V4.60878C6.91304 4.17835 6.56087 3.82617 6.13043 3.82617C5.7 3.82617 5.34783 4.17835 5.34783 4.60878V6.174H3.78261C3.35217 6.174 3 6.52617 3 6.95661C3 7.38704 3.35217 7.73921 3.78261 7.73921H5.34783V9.30443ZM13.1738 16.3479C14.4705 16.3479 15.5216 15.2968 15.5216 14.0001C15.5216 12.7034 14.4705 11.6523 13.1738 11.6523C11.8772 11.6523 10.826 12.7034 10.826 14.0001C10.826 15.2968 11.8772 16.3479 13.1738 16.3479ZM16.9539 7.73917H19.4347C20.2956 7.73917 20.9999 8.44351 20.9999 9.30438V18.6957C20.9999 19.5566 20.2956 20.2609 19.4347 20.2609H6.91299C6.05213 20.2609 5.34778 19.5566 5.34778 18.6957V10.6505C5.58256 10.7835 5.84082 10.8696 6.13039 10.8696C6.99126 10.8696 7.6956 10.1653 7.6956 9.30438V8.52177H8.47821C9.33908 8.52177 10.0434 7.81743 10.0434 6.95656C10.0434 6.66699 9.95734 6.40873 9.8243 6.17395H14.833C15.0496 6.17408 15.2638 6.21939 15.4619 6.30698C15.6599 6.39457 15.8376 6.52252 15.9834 6.68265L16.9539 7.73917ZM9.26082 14C9.26082 16.16 11.0139 17.9131 13.1739 17.9131C15.3339 17.9131 17.0869 16.16 17.0869 14C17.0869 11.84 15.3339 10.087 13.1739 10.087C11.0139 10.087 9.26082 11.84 9.26082 14Z" fill="#787C89"/>
</svg>
