<svg width="24" height="24" viewBox="0 0 24 24" fill="none" xmlns="http://www.w3.org/2000/svg">
<path d="M18.2479 2.23851L21.3536 4.8491C21.776 5.20817 21.8311 5.84009 21.4774 6.26691C21.3045 6.4732 21.0567 6.6022 20.7885 6.62542C20.5204 6.64864 20.2541 6.56418 20.0483 6.39069L16.9426 3.7801C16.737 3.60925 16.6083 3.3633 16.5851 3.09701C16.5618 2.83072 16.646 2.56618 16.8188 2.36229C16.9917 2.156 17.2396 2.027 17.5077 2.00378C17.7758 1.98056 18.0422 2.06502 18.2479 2.23851Z" fill="#787C89"/>
<path d="M3.95719 6.39069L7.05164 3.79136C7.47749 3.43556 7.53771 2.80332 7.18667 2.37354C6.82687 1.94629 6.19105 1.88622 5.7576 2.23851L2.6519 4.83784C2.44561 5.0107 2.31662 5.25856 2.29339 5.52669C2.27017 5.79482 2.35463 6.06116 2.52812 6.26691C2.70098 6.4732 2.94883 6.6022 3.21696 6.62542C3.48509 6.64864 3.75144 6.56418 3.95719 6.39069Z" fill="#787C89"/>
<path fill-rule="evenodd" clip-rule="evenodd" d="M3.99072 8.60072C5.87106 5.05258 9.84978 3.1505 13.7919 3.91514C17.4297 4.62386 20.279 7.45984 21.0048 11.0942C21.7879 15.0327 19.9045 19.0203 16.3652 20.9173C12.8259 22.8143 8.46254 22.1748 5.61643 19.342C2.77032 16.5092 2.11038 12.1489 3.99072 8.60072ZM15.4235 16.6755C15.9706 16.966 16.6495 16.7598 16.9426 16.2142V16.2254C17.2367 15.6843 17.0411 15.0073 16.5038 14.7063L12.8354 12.7596V6.81829C12.8354 6.19683 12.3316 5.69304 11.7102 5.69304C11.0887 5.69304 10.5849 6.19683 10.5849 6.81829V12.8834C10.597 13.643 11.0308 14.3327 11.7102 14.6726L15.4235 16.6755Z" fill="#787C89"/>
</svg>
