<svg width="24" height="24" viewBox="0 0 24 24" fill="none" xmlns="http://www.w3.org/2000/svg">
<path fill-rule="evenodd" clip-rule="evenodd" d="M2.61725 10.548C2.36062 9.09256 3.25629 7.68161 4.68259 7.29448L16.5881 4.06312C18.2093 3.62309 19.8585 4.66998 20.1502 6.32437L21.309 12.8961C21.6259 14.6937 20.199 16.3235 18.3753 16.2469L10.6945 15.9242L11.1702 18.6222C11.3596 19.6963 10.0101 20.3335 9.30099 19.5048L6.07077 15.7299L5.80697 15.7189C4.46671 15.6626 3.34609 14.6814 3.11315 13.3604L2.61725 10.548ZM9.96376 15.8935L7.04593 15.7709L9.8437 19.0404C10.0801 19.3166 10.5299 19.1042 10.4668 18.7462L9.96376 15.8935ZM8.55364 11.0444C8.65895 11.6416 8.26812 12.2097 7.68072 12.3133C7.09331 12.4169 6.53176 12.0167 6.42646 11.4195C6.32116 10.8223 6.71198 10.2542 7.29939 10.1507C7.88679 10.0471 8.44834 10.4472 8.55364 11.0444ZM12.808 10.2943C12.9133 10.8915 12.5225 11.4595 11.9351 11.5631C11.3477 11.6667 10.7861 11.2665 10.6808 10.6693C10.5755 10.0722 10.9664 9.50407 11.5538 9.40049C12.1412 9.29692 12.7027 9.69708 12.808 10.2943ZM16.1895 10.813C16.7769 10.7094 17.1677 10.1413 17.0624 9.54411C16.9571 8.94692 16.3955 8.54676 15.8081 8.65033C15.2207 8.75391 14.8299 9.322 14.9352 9.91919C15.0405 10.5164 15.6021 10.9165 16.1895 10.813Z" fill="#787C89"/>
</svg>
