<svg width="24" height="24" viewBox="0 0 24 24" fill="none" xmlns="http://www.w3.org/2000/svg">
<path fill-rule="evenodd" clip-rule="evenodd" d="M3.12136 7.39972C5.12596 3.53097 9.40493 1.40564 13.6988 2.14596C17.869 2.86494 21.1351 6.13102 21.854 10.3012C22.5944 14.5951 20.469 18.874 16.6003 20.8786C12.7315 22.8833 8.01012 22.152 4.92908 19.0709C1.84803 15.9899 1.11675 11.2685 3.12136 7.39972ZM9.99898 16.7248C10.1789 16.7248 10.3512 16.6521 10.4767 16.5231L18.2986 8.74568C18.4845 8.56018 18.589 8.30834 18.589 8.04571C18.589 7.78308 18.4845 7.53125 18.2986 7.34574C17.9047 6.956 17.2704 6.956 16.8765 7.34574L9.99898 14.2232L7.11021 11.3011C6.92428 11.1118 6.67005 11.0051 6.40469 11.0051C6.13932 11.0051 5.8851 11.1118 5.69916 11.3011C5.51326 11.4866 5.40878 11.7385 5.40878 12.0011C5.40878 12.2637 5.51326 12.5156 5.69916 12.7011L9.52122 16.5231C9.64672 16.6521 9.81903 16.7248 9.99898 16.7248Z" fill="#787C89"/>
</svg>
