<svg width="24" height="24" viewBox="0 0 24 24" fill="none" xmlns="http://www.w3.org/2000/svg">
<path d="M20.66 11.2003L13.32 3.86025C13.1322 3.67094 12.8766 3.56445 12.61 3.56445C12.3434 3.56445 12.0878 3.67094 11.9 3.86025C11.5123 4.25029 11.5123 4.88021 11.9 5.27025L17.63 11.0003H4C3.44772 11.0003 3 11.448 3 12.0003C3 12.5525 3.44772 13.0003 4 13.0003H17.64L11.9 18.7403C11.5123 19.1303 11.5123 19.7602 11.9 20.1503C12.0878 20.3396 12.3434 20.4461 12.61 20.4461C12.8766 20.4461 13.1322 20.3396 13.32 20.1503L20.66 12.8103C20.8756 12.5979 20.997 12.3079 20.997 12.0053C20.997 11.7026 20.8756 11.4126 20.66 11.2003Z" fill="#787C89"/>
</svg>
