<svg width="24" height="24" viewBox="0 0 24 24" fill="none" xmlns="http://www.w3.org/2000/svg">
<path d="M20.1501 10.6898L12.8001 3.33975C12.5881 3.12724 12.3003 3.00781 12.0001 3.00781C11.6999 3.00781 11.4121 3.12724 11.2001 3.33975L3.85012 10.6898C3.4624 11.0798 3.4624 11.7097 3.85012 12.0998C4.03789 12.2891 4.29348 12.3956 4.56012 12.3956C4.82676 12.3956 5.08235 12.2891 5.27012 12.0998L11.0001 6.36975V19.9998C11.0001 20.552 11.4478 20.9998 12.0001 20.9998C12.5524 20.9998 13.0001 20.552 13.0001 19.9998V6.36975L18.7301 12.0998C18.9179 12.2891 19.1735 12.3956 19.4401 12.3956C19.7068 12.3956 19.9624 12.2891 20.1501 12.0998C20.5378 11.7097 20.5378 11.0798 20.1501 10.6898Z" fill="#787C89"/>
</svg>
