<svg width="24" height="24" viewBox="0 0 24 24" fill="none" xmlns="http://www.w3.org/2000/svg">
<path d="M20 11.0003H6.35997L12.1 5.27025C12.4877 4.88021 12.4877 4.25029 12.1 3.86025C11.9122 3.67094 11.6566 3.56445 11.39 3.56445C11.1233 3.56445 10.8677 3.67094 10.68 3.86025L3.33997 11.2003C2.90165 11.6474 2.90165 12.3631 3.33997 12.8103L10.68 20.1503C10.8677 20.3396 11.1233 20.4461 11.39 20.4461C11.6566 20.4461 11.9122 20.3396 12.1 20.1503C12.4877 19.7602 12.4877 19.1303 12.1 18.7403L6.36997 13.0003H20C20.5522 13.0003 21 12.5525 21 12.0003C21 11.448 20.5522 11.0003 20 11.0003Z" fill="#787C89"/>
</svg>
