<svg width="24" height="24" viewBox="0 0 24 24" fill="none" xmlns="http://www.w3.org/2000/svg">
<path d="M20.1501 11.91C19.9624 11.7207 19.7068 11.6142 19.4401 11.6142C19.1735 11.6142 18.9179 11.7207 18.7301 11.91L13.0001 17.64V4C13.0001 3.44772 12.5524 3 12.0001 3C11.4478 3 11.0001 3.44772 11.0001 4V17.64L5.27012 11.91C5.08235 11.7207 4.82676 11.6142 4.56012 11.6142C4.29348 11.6142 4.03789 11.7207 3.85012 11.91C3.4624 12.3 3.4624 12.93 3.85012 13.32L11.2001 20.67C11.4121 20.8825 11.6999 21.0019 12.0001 21.0019C12.3003 21.0019 12.5881 20.8825 12.8001 20.67L20.1501 13.32C20.5378 12.93 20.5378 12.3 20.1501 11.91Z" fill="#787C89"/>
</svg>
