<svg width="24" height="24" viewBox="0 0 24 24" fill="none" xmlns="http://www.w3.org/2000/svg">
<path fill-rule="evenodd" clip-rule="evenodd" d="M22.2202 18.14L13.7858 3.5311C13.4133 2.88549 12.7456 2.5 12 2.5C11.2544 2.5 10.5867 2.88549 10.2141 3.5311L1.77975 18.14C1.40675 18.7855 1.40675 19.5566 1.77975 20.2022C2.15233 20.8477 2.82003 21.2333 3.56562 21.2333H20.4348C21.1799 21.2333 21.8476 20.8477 22.2206 20.2022C22.5932 19.5566 22.5932 18.7855 22.2202 18.14ZM12 18.8568C11.2598 18.8568 10.6575 18.2546 10.6575 17.5143C10.6575 16.7742 11.2598 16.1719 12 16.1719C12.7402 16.1719 13.3424 16.7742 13.3424 17.5143C13.3424 18.2546 12.7402 18.8568 12 18.8568ZM12 14.4698C12.7452 14.4698 13.3516 13.8638 13.3516 13.1186V6.91611C13.3516 6.56231 13.0653 6.27594 12.7114 6.27594H11.289C10.9352 6.27594 10.6488 6.56231 10.6488 6.91611V13.1186C10.6488 13.8638 11.2548 14.4698 12 14.4698Z" fill="#787C89"/>
</svg>
