<svg width="24" height="24" viewBox="0 0 24 24" fill="none" xmlns="http://www.w3.org/2000/svg">
<path d="M5.25012 3C4.83591 3 4.50012 3.33579 4.50012 3.75C4.50012 4.16421 4.83591 4.5 5.25012 4.5H12.0001C11.6999 4.5 11.4121 4.60953 11.2001 4.80441L3.85012 11.5449C3.4624 11.9026 3.4624 12.4803 3.85012 12.838C4.03789 13.0116 4.29348 13.1093 4.56012 13.1093C4.82676 13.1093 5.08235 13.0116 5.27012 12.838L11.0001 7.58316V20.0829C11.0001 20.5894 11.4478 21 12.0001 21C12.5524 21 13.0001 20.5894 13.0001 20.0829V7.58316L18.7301 12.838C18.9179 13.0116 19.1735 13.1093 19.4401 13.1093C19.7068 13.1093 19.9624 13.0116 20.1501 12.838C20.5378 12.4803 20.5378 11.9026 20.1501 11.5449L12.8001 4.80441C12.5881 4.60953 12.3003 4.5 12.0001 4.5H18.7501C19.1643 4.5 19.5001 4.16421 19.5001 3.75C19.5001 3.33579 19.1643 3 18.7501 3H5.25012Z" fill="#787C89"/>
</svg>
