<svg width="24" height="24" viewBox="0 0 24 24" fill="none" xmlns="http://www.w3.org/2000/svg">
<path fill-rule="evenodd" clip-rule="evenodd" d="M3.6001 4.7998H20.4001V16.7998H3.6001V4.7998ZM9.0001 10.7998L6.0001 14.3998H18.0001L14.4001 9.5998L11.4001 13.1998L9.0001 10.7998Z" fill="#787C89"/>
<path d="M19.2001 17.9998H4.8001V19.1998H19.2001V17.9998Z" fill="#787C89"/>
<path fill-rule="evenodd" clip-rule="evenodd" d="M1.90289 3.10333C2.35298 2.65325 2.96343 2.40039 3.59995 2.40039H20.4C21.0365 2.40039 21.6469 2.65325 22.097 3.10333C22.5471 3.55342 22.8 4.16387 22.8 4.80039V19.2004C22.8 19.8369 22.5471 20.4474 22.097 20.8974C21.6469 21.3475 21.0365 21.6004 20.4 21.6004H3.59995C2.96343 21.6004 2.35298 21.3475 1.90289 20.8974C1.45281 20.4474 1.19995 19.8369 1.19995 19.2004V4.80039C1.19995 4.16387 1.45281 3.55342 1.90289 3.10333ZM2.75142 20.0489C2.97647 20.274 3.28169 20.4004 3.59995 20.4004H20.4C20.7182 20.4004 21.0234 20.274 21.2485 20.0489C21.4735 19.8239 21.6 19.5187 21.6 19.2004V4.80039C21.6 4.48213 21.4735 4.17691 21.2485 3.95186C21.0234 3.72682 20.7182 3.60039 20.4 3.60039H3.59995C3.28169 3.60039 2.97647 3.72682 2.75142 3.95186C2.52638 4.17691 2.39995 4.48213 2.39995 4.80039V19.2004C2.39995 19.5187 2.52638 19.8239 2.75142 20.0489Z" fill="#787C89"/>
</svg>
