<svg width="24" height="24" viewBox="0 0 24 24" fill="none" xmlns="http://www.w3.org/2000/svg">
<path d="M16.44 7.40003L19.83 12.81C20.2508 13.4901 20.3407 14.3242 20.0744 15.0782C19.8082 15.8323 19.2145 16.425 18.46 16.69L10 19.77C9.2466 20.0507 8.40653 19.9741 7.71628 19.5619C7.02602 19.1497 6.56022 18.4464 6.45 17.65L5.57 11.33C5.23809 8.96798 6.36851 6.63994 8.43 5.44003L8.23 4.88003C8.10317 4.52277 8.17657 4.12498 8.42256 3.83651C8.66854 3.54804 9.04974 3.41271 9.42256 3.48151C9.79537 3.5503 10.1032 3.81277 10.23 4.17003L10.44 4.72003C12.7995 4.30531 15.1743 5.36604 16.44 7.40003Z" fill="#787C89"/>
<path d="M15.76 20.21L14.39 20.71C14.0414 20.8383 13.6559 20.8217 13.3196 20.6638C12.9833 20.506 12.7241 20.2202 12.6 19.87L16.6 18.42C16.8612 19.1462 16.4855 19.9469 15.76 20.21Z" fill="#787C89"/>
</svg>
