<svg width="24" height="24" viewBox="0 0 24 24" fill="none" xmlns="http://www.w3.org/2000/svg">
<path d="M7.84 3C7.38713 3 7.02 3.36713 7.02 3.82V5H5.1C4.54305 5 4.0089 5.22125 3.61508 5.61508C3.22125 6.0089 3 6.54305 3 7.1V9.4C3 9.67614 3.22386 9.9 3.5 9.9H20.5C20.7761 9.9 21 9.67614 21 9.4V7.1C21 5.9402 20.0598 5 18.9 5H16.98V3.82C16.98 3.36713 16.6129 3 16.16 3C15.7071 3 15.34 3.36713 15.34 3.82V5H8.66V3.82C8.66 3.36713 8.29287 3 7.84 3Z" fill="#787C89"/>
<path fill-rule="evenodd" clip-rule="evenodd" d="M3.5 11H20.5C20.7761 11 21 11.2239 21 11.5V18.9C21 19.457 20.7787 19.9911 20.3849 20.3849C19.9911 20.7787 19.457 21 18.9 21H5.1C4.54305 21 4.0089 20.7787 3.61508 20.3849C3.22125 19.9911 3 19.457 3 18.9V11.5C3 11.2239 3.22386 11 3.5 11ZM7 13C6.44772 13 6 13.4477 6 14C6 14.5523 6.44772 15 7 15H12C12.5523 15 13 14.5523 13 14C13 13.4477 12.5523 13 12 13H7Z" fill="#787C89"/>
</svg>
