<svg width="24" height="24" viewBox="0 0 24 24" fill="none" xmlns="http://www.w3.org/2000/svg">
<path d="M7.02 3.82C7.02 3.36713 7.38713 3 7.84 3C8.29287 3 8.66 3.36713 8.66 3.82V5H15.34V3.82C15.34 3.36713 15.7071 3 16.16 3C16.6129 3 16.98 3.36713 16.98 3.82V5H18.9C20.0598 5 21 5.9402 21 7.1V9.4C21 9.67614 20.7761 9.9 20.5 9.9H3.5C3.22386 9.9 3 9.67614 3 9.4V7.1C3 6.54305 3.22125 6.0089 3.61508 5.61508C4.0089 5.22125 4.54305 5 5.1 5H7.02V3.82Z" fill="#787C89"/>
<path fill-rule="evenodd" clip-rule="evenodd" d="M20.5 11H3.5C3.22386 11 3 11.2239 3 11.5V18.9C3 19.457 3.22125 19.9911 3.61508 20.3849C4.0089 20.7787 4.54305 21 5.1 21H18.9C19.457 21 19.9911 20.7787 20.3849 20.3849C20.7787 19.9911 21 19.457 21 18.9V11.5C21 11.2239 20.7761 11 20.5 11ZM7.78411 13.6799C7.60733 13.4678 7.29205 13.4391 7.07991 13.6159L4.67991 15.6159C4.56591 15.7109 4.5 15.8516 4.5 16C4.5 16.1484 4.56591 16.2891 4.67991 16.3841L7.07991 18.3841C7.29205 18.5609 7.60733 18.5322 7.78411 18.3201C7.96089 18.108 7.93223 17.7927 7.72009 17.6159L6.38102 16.5H15C15.2761 16.5 15.5 16.2761 15.5 16C15.5 15.7239 15.2761 15.5 15 15.5H6.38102L7.72009 14.3841C7.93223 14.2073 7.96089 13.892 7.78411 13.6799ZM18 17C18.5523 17 19 16.5523 19 16C19 15.4477 18.5523 15 18 15C17.4477 15 17 15.4477 17 16C17 16.5523 17.4477 17 18 17Z" fill="#787C89"/>
</svg>
