<svg width="24" height="24" viewBox="0 0 24 24" fill="none" xmlns="http://www.w3.org/2000/svg">
<path fill-rule="evenodd" clip-rule="evenodd" d="M7.02 3.82001C7.02 3.36713 7.38713 3 7.84 3C8.29287 3 8.66 3.36713 8.66 3.82001V5H15.34V3.82001C15.34 3.36713 15.7071 3 16.16 3C16.6129 3 16.98 3.36713 16.98 3.82001V5H18.9C20.0598 5 21 5.9402 21 7.10001V18.9C21 19.457 20.7787 19.9911 20.3849 20.3849C19.9911 20.7787 19.457 21 18.9 21H5.1C4.54305 21 4.0089 20.7787 3.61508 20.3849C3.22125 19.9911 3 19.457 3 18.9V7.10001C3 6.54305 3.22125 6.0089 3.61508 5.61508C4.0089 5.22125 4.54305 5 5.1 5H7.02V3.82001ZM19 8.98309L19.0063 9H19V17.5C19 17.7761 18.7761 18 18.5 18H17.5C17.2239 18 17 17.7761 17 17.5V8.5C17 8.22386 17.2239 8 17.5 8H18.5C18.7761 8 19 8.22386 19 8.5V8.98309ZM5 8.5C5 8.22386 5.22386 8 5.5 8H6.5C6.77614 8 7 8.22386 7 8.5V17.5C7 17.7761 6.77614 18 6.5 18H5.5C5.22386 18 5 17.7761 5 17.5V8.5ZM9.5 8C9.22386 8 9 8.22386 9 8.5V17.5C9 17.7761 9.22386 18 9.5 18H10.5C10.7761 18 11 17.7761 11 17.5V8.5C11 8.22386 10.7761 8 10.5 8H9.5ZM13 8.5C13 8.22386 13.2239 8 13.5 8H14.5C14.7761 8 15 8.22386 15 8.5V17.5C15 17.7761 14.7761 18 14.5 18H13.5C13.2239 18 13 17.7761 13 17.5V8.5Z" fill="#787C89"/>
</svg>
