<svg width="24" height="24" viewBox="0 0 24 24" fill="none" xmlns="http://www.w3.org/2000/svg">
<path d="M7.02 3.82C7.02 3.36713 7.38713 3 7.84 3C8.29287 3 8.66 3.36713 8.66 3.82V5H15.34V3.82C15.34 3.36713 15.7071 3 16.16 3C16.6129 3 16.98 3.36713 16.98 3.82V5H18.9C20.0598 5 21 5.9402 21 7.1V9.4C21 9.67614 20.7761 9.9 20.5 9.9H3.5C3.22386 9.9 3 9.67614 3 9.4V7.1C3 6.54305 3.22125 6.0089 3.61508 5.61508C4.0089 5.22125 4.54305 5 5.1 5H7.02V3.82Z" fill="#787C89"/>
<path fill-rule="evenodd" clip-rule="evenodd" d="M20.5 11H3.5C3.22386 11 3 11.2239 3 11.5V18.9C3 19.457 3.22125 19.9911 3.61508 20.3849C4.0089 20.7787 4.54305 21 5.1 21H18.9C19.457 21 19.9911 20.7787 20.3849 20.3849C20.7787 19.9911 21 19.457 21 18.9V11.5C21 11.2239 20.7761 11 20.5 11ZM16.2159 13.6799C16.3927 13.4678 16.708 13.4391 16.9201 13.6159L19.3201 15.6159C19.4341 15.7109 19.5 15.8516 19.5 16C19.5 16.1484 19.4341 16.2891 19.3201 16.3841L16.9201 18.3841C16.708 18.5609 16.3927 18.5322 16.2159 18.3201C16.0391 18.108 16.0678 17.7927 16.2799 17.6159L17.619 16.5H9C8.72386 16.5 8.5 16.2761 8.5 16C8.5 15.7239 8.72386 15.5 9 15.5H17.619L16.2799 14.3841C16.0678 14.2073 16.0391 13.892 16.2159 13.6799ZM6 17C6.55228 17 7 16.5523 7 16C7 15.4477 6.55228 15 6 15C5.44772 15 5 15.4477 5 16C5 16.5523 5.44772 17 6 17Z" fill="#787C89"/>
</svg>
