<svg width="24" height="24" viewBox="0 0 24 24" fill="none" xmlns="http://www.w3.org/2000/svg">
<path fill-rule="evenodd" clip-rule="evenodd" d="M7.84 3C7.38713 3 7.02 3.36713 7.02 3.82001V5H5.1C4.54305 5 4.0089 5.22125 3.61508 5.61508C3.22125 6.0089 3 6.54305 3 7.10001V18.9C3 19.457 3.22125 19.9911 3.61508 20.3849C4.0089 20.7787 4.54305 21 5.1 21H18.9C19.457 21 19.9911 20.7787 20.3849 20.3849C20.7787 19.9911 21 19.457 21 18.9V7.10001C21 5.9402 20.0598 5 18.9 5H16.98V3.82001C16.98 3.36713 16.6129 3 16.16 3C15.7071 3 15.34 3.36713 15.34 3.82001V5H8.66V3.82001C8.66 3.36713 8.29287 3 7.84 3ZM5.72744 13.8918C5.33038 13.51 5.33038 12.8746 5.72744 12.4928C6.10308 12.1317 6.69692 12.1317 7.07256 12.4928L10 15.3077L16.9274 8.6467C17.3031 8.28551 17.8969 8.28551 18.2726 8.6467C18.6696 9.02847 18.6696 9.66383 18.2726 10.0456L10.6931 17.3335C10.306 17.7058 9.694 17.7058 9.30689 17.3335L5.72744 13.8918Z" fill="#787C89"/>
</svg>
