<svg width="24" height="24" viewBox="0 0 24 24" fill="none" xmlns="http://www.w3.org/2000/svg">
<path fill-rule="evenodd" clip-rule="evenodd" d="M20 4H4C2.89543 4 2 4.89543 2 6V18C2 19.1046 2.89543 20 4 20H20C21.1046 20 22 19.1046 22 18V6C22 4.89543 21.1046 4 20 4ZM19 18H5C4.44772 18 4 17.5523 4 17V13C4 12.4477 4.44772 12 5 12H19C19.5523 12 20 12.4477 20 13V17C20 17.5523 19.5523 18 19 18ZM5 8H19C19.5523 8 20 7.55228 20 7C20 6.44772 19.5523 6 19 6H5C4.44772 6 4 6.44772 4 7C4 7.55228 4.44772 8 5 8Z" fill="#787C89"/>
</svg>
