<svg width="24" height="24" viewBox="0 0 24 24" fill="none" xmlns="http://www.w3.org/2000/svg">
<path d="M13.9534 8.68421C14.6825 8.68421 15.347 8.26583 15.6621 7.6083L16.5701 5.71357C17.1728 4.45586 16.2561 3 14.8614 3H8.62159C7.22692 3 6.3102 4.45585 6.91292 5.71356L7.82091 7.6083C8.13601 8.26583 8.80045 8.68421 9.52958 8.68421H13.9534Z" fill="#787C89"/>
<path d="M8.4039 9.63158C7.58698 9.63158 6.86204 10.1552 6.60523 10.9307L4.09542 18.5096C3.68936 19.7358 4.6024 21 5.8941 21H17.5885C18.8802 21 19.7933 19.7358 19.3872 18.5096L16.8774 10.9307C16.6206 10.1552 15.8956 9.63158 15.0787 9.63158H8.4039Z" fill="#787C89"/>
</svg>
