<svg width="24" height="24" viewBox="0 0 24 24" fill="none" xmlns="http://www.w3.org/2000/svg">
<path d="M7.17999 5.67011C7.33653 5.67105 7.49067 5.70873 7.62999 5.78011C7.99296 5.957 8.22234 6.32635 8.21999 6.73011V7.19011C8.22601 7.7549 7.78416 8.22325 7.21999 8.25011H4.06999C3.78539 8.25281 3.51166 8.14095 3.31041 7.93969C3.10916 7.73844 2.99729 7.46471 2.99999 7.18011V6.73011C2.99723 6.44641 3.10941 6.17366 3.31097 5.97398C3.51253 5.77431 3.78632 5.6647 4.06999 5.67011H7.17999Z" fill="#787C89"/>
<path d="M9.26999 6.74011C9.26999 6.14917 9.74904 5.67011 10.34 5.67011H19.93C20.5209 5.67011 21 6.14917 21 6.74011V7.18011C21 7.77106 20.5209 8.25011 19.93 8.25011H10.34C9.74904 8.25011 9.26999 7.77106 9.26999 7.18011V6.74011Z" fill="#787C89"/>
<path d="M4.07999 15.7401C3.48904 15.7401 3.00999 16.2192 3.00999 16.8101V17.2501C3.00999 17.8411 3.48904 18.3201 4.07999 18.3201H7.17999C7.77093 18.3201 8.24999 17.8411 8.24999 17.2501V16.8101C8.24999 16.2192 7.77093 15.7401 7.17999 15.7401H4.07999Z" fill="#787C89"/>
<path d="M10.34 15.7401H19.93C20.2138 15.7401 20.4859 15.8528 20.6866 16.0535C20.8873 16.2542 21 16.5263 21 16.8101V17.2601C21 17.8511 20.5209 18.3301 19.93 18.3301H10.34C9.74904 18.3301 9.26999 17.8511 9.26999 17.2601V16.8101C9.26999 16.2192 9.74904 15.7401 10.34 15.7401Z" fill="#787C89"/>
<path d="M9.26999 11.7801C9.26999 11.1892 9.74904 10.7101 10.34 10.7101H19.93C20.5209 10.7101 21 11.1892 21 11.7801V12.2201C21 12.8111 20.5209 13.2901 19.93 13.2901H10.34C9.74904 13.2901 9.26999 12.8111 9.26999 12.2201V11.7801Z" fill="#787C89"/>
<path d="M7.17999 10.7101C7.30957 10.7131 7.43784 10.7367 7.55999 10.7801C7.94444 10.9582 8.18757 11.3465 8.17999 11.7701V12.2201C8.18562 12.2733 8.18562 12.3269 8.17999 12.3801C8.11229 12.8863 7.69026 13.2703 7.17999 13.2901H4.05999C3.77712 13.2901 3.50598 13.1771 3.3069 12.9761C3.10782 12.7752 2.99732 12.503 2.99999 12.2201V11.7701C2.99723 11.4864 3.10941 11.2137 3.31097 11.014C3.51253 10.8143 3.78632 10.7047 4.06999 10.7101H7.17999Z" fill="#787C89"/>
</svg>
