<svg width="24" height="24" viewBox="0 0 24 24" fill="none" xmlns="http://www.w3.org/2000/svg">
<path fill-rule="evenodd" clip-rule="evenodd" d="M16.5 5.7V10.2C16.5 11.6912 15.2911 12.9 13.8 12.9H6.59995L4.19995 15.3C3.99962 15.5045 3.69492 15.5664 3.43065 15.4563C3.16637 15.3462 2.99579 15.0863 2.99995 14.8V5.7C2.99995 4.20883 4.20878 3 5.69995 3H13.8C15.2911 3 16.5 4.20883 16.5 5.7ZM18.3 12V6.6C19.0229 6.58929 19.72 6.86902 20.2351 7.37653C20.7501 7.88404 21.04 8.57693 21.04 9.3V19.26C21.0441 19.5463 20.8735 19.8062 20.6093 19.9163C20.345 20.0264 20.0403 19.9645 19.84 19.76L17.44 17.36H9.33995C7.84878 17.36 6.63995 16.1512 6.63995 14.66H15.64C17.109 14.66 18.3 13.4691 18.3 12Z" fill="#787C89"/>
</svg>
