<svg width="24" height="24" viewBox="0 0 24 24" fill="none" xmlns="http://www.w3.org/2000/svg">
<path fill-rule="evenodd" clip-rule="evenodd" d="M6.54004 3.00001H17.46C19.4128 3.00551 20.9945 4.58721 21 6.54001V13.86C20.9945 15.8128 19.4128 17.3945 17.46 17.4H6.82004C6.67742 17.4021 6.54117 17.4594 6.44004 17.56L4.25004 19.75C4.04115 19.9621 3.72444 20.026 3.44961 19.9117C3.17479 19.7974 2.9969 19.5277 3.00004 19.23V6.53001C3.00004 5.59206 3.37332 4.69268 4.03749 4.03039C4.70165 3.36809 5.6021 2.99736 6.54004 3.00001ZM7.46004 13.8H16.5C16.9814 13.7786 17.3605 13.3819 17.36 12.9C17.36 12.403 16.9571 12 16.46 12H7.46004C6.96298 12 6.56004 12.403 6.56004 12.9C6.56004 13.3971 6.96298 13.8 7.46004 13.8ZM17.36 10.2C17.36 10.6971 16.9571 11.1 16.46 11.1H7.46004C6.96298 11.1 6.56004 10.6971 6.56004 10.2C6.56004 9.70296 6.96298 9.30001 7.46004 9.30001H16.46C16.9571 9.30001 17.36 9.70296 17.36 10.2ZM7.46004 8.40001H16.5C16.9814 8.3786 17.3605 7.98186 17.36 7.50001C17.36 7.00296 16.9571 6.60001 16.46 6.60001H7.46004C6.96298 6.60001 6.56004 7.00296 6.56004 7.50001C6.56004 7.99707 6.96298 8.40001 7.46004 8.40001Z" fill="#787C89"/>
</svg>
