<svg width="24" height="24" viewBox="0 0 24 24" fill="none" xmlns="http://www.w3.org/2000/svg">
<path d="M4 8C4 5.79086 5.79086 4 8 4H16C18.2091 4 20 5.79086 20 8V16C20 18.2091 18.2091 20 16 20H8C5.79086 20 4 18.2091 4 16V8Z" fill="#F8FBFC"/>
<path d="M7.25761 12.5763C6.92511 12.2575 6.92511 11.7259 7.25761 11.407C7.57098 11.1065 8.06557 11.1065 8.37895 11.407L10.8277 13.7553L16.6202 8.2004C16.9336 7.89987 17.4282 7.89987 17.7415 8.2004C18.074 8.51925 18.074 9.05084 17.7415 9.36969L11.5198 15.3362C11.133 15.7072 10.5224 15.7072 10.1355 15.3362L7.25761 12.5763Z" fill="#787C89"/>
<path d="M16 3.5C18.4853 3.5 20.5 5.51472 20.5 8V16C20.5 18.4853 18.4853 20.5 16 20.5H8C5.51472 20.5 3.5 18.4853 3.5 16V8C3.5 5.51472 5.51472 3.5 8 3.5H16Z" stroke="#787C89"/>
</svg>
