<svg width="24" height="24" viewBox="0 0 24 24" fill="none" xmlns="http://www.w3.org/2000/svg">
<path fill-rule="evenodd" clip-rule="evenodd" d="M8 3C5.23858 3 3 5.23858 3 8V16C3 18.7614 5.23858 21 8 21H16C18.7614 21 21 18.7614 21 16V8C21 5.23858 18.7614 3 16 3H8ZM6.66481 11.3329C6.29075 11.6916 6.29075 12.2897 6.66481 12.6484L9.98899 15.8362C10.3759 16.2072 10.9864 16.2072 11.3733 15.8362L18.4592 9.04091C18.8333 8.68219 18.8333 8.08416 18.4592 7.72545C18.1067 7.38736 17.5503 7.38736 17.1977 7.72545L10.6811 13.9748L7.92632 11.3329C7.57377 10.9948 7.01735 10.9948 6.66481 11.3329Z" fill="#787C89"/>
</svg>
