<svg width="24" height="24" viewBox="0 0 24 24" fill="none" xmlns="http://www.w3.org/2000/svg">
<path d="M9.21747 16.7804L14.0014 11.9965L9.21747 7.21258C9.0829 7.07911 9.00721 6.89742 9.00721 6.70789C9.00721 6.51835 9.0829 6.33667 9.21747 6.2032C9.49387 5.93227 9.93623 5.93227 10.2126 6.2032L15.4301 11.4278C15.5812 11.5785 15.6661 11.7831 15.6661 11.9965C15.6661 12.2098 15.5812 12.4144 15.4301 12.5651L10.2126 17.7897C10.0792 17.9243 9.89748 18 9.70794 18C9.51841 18 9.33672 17.9243 9.20325 17.7897C9.07055 17.6544 8.9974 17.4716 9.00007 17.2821C9.00274 17.0925 9.081 16.9119 9.21747 16.7804Z" fill="#787C89"/>
</svg>
