<svg width="24" height="24" viewBox="0 0 24 24" fill="none" xmlns="http://www.w3.org/2000/svg">
<path d="M7.59988 18.7303L14.3299 12.0003L7.59988 5.27031C7.41057 5.08254 7.30409 4.82695 7.30409 4.56031C7.30409 4.29367 7.41057 4.03808 7.59988 3.85031C7.98873 3.46917 8.61104 3.46917 8.99988 3.85031L16.3399 11.2003C16.5524 11.4123 16.6718 11.7001 16.6718 12.0003C16.6718 12.3005 16.5524 12.5883 16.3399 12.8003L8.99988 20.1503C8.81212 20.3396 8.55652 20.4461 8.28988 20.4461C8.02325 20.4461 7.76765 20.3396 7.57988 20.1503C7.39319 19.9599 7.29029 19.7028 7.29404 19.4361C7.2978 19.1695 7.4079 18.9154 7.59988 18.7303Z" fill="#787C89"/>
</svg>
