<svg width="24" height="24" viewBox="0 0 24 24" fill="none" xmlns="http://www.w3.org/2000/svg">
<path d="M18.73 16.3996L12 9.66956L5.27 16.3996C5.08223 16.5889 4.82664 16.6954 4.56 16.6954C4.29336 16.6954 4.03776 16.5889 3.85 16.3996C3.66068 16.2118 3.5542 15.9562 3.5542 15.6896C3.5542 15.4229 3.66068 15.1673 3.85 14.9796L11.2 7.63956C11.412 7.42705 11.6998 7.30762 12 7.30762C12.3002 7.30762 12.588 7.42705 12.8 7.63956L20.15 14.9996C20.3393 15.1873 20.4458 15.4429 20.4458 15.7096C20.4458 15.9762 20.3393 16.2318 20.15 16.4196C19.9596 16.6062 19.7025 16.7092 19.4358 16.7054C19.1692 16.7016 18.9151 16.5915 18.73 16.3996Z" fill="#787C89"/>
</svg>
