<svg width="24" height="24" viewBox="0 0 24 24" fill="none" xmlns="http://www.w3.org/2000/svg">
<path d="M16.4 5.27049L9.67005 12.0005L16.4 18.7305C16.5894 18.9183 16.6958 19.1738 16.6958 19.4405C16.6958 19.7071 16.5894 19.9627 16.4 20.1505C16.2123 20.3398 15.9567 20.4463 15.69 20.4463C15.4234 20.4463 15.1678 20.3398 14.98 20.1505L7.64005 12.8005C7.42754 12.5885 7.30811 12.3007 7.30811 12.0005C7.30811 11.7003 7.42754 11.4125 7.64005 11.2005L15 3.85049C15.1878 3.66117 15.4434 3.55469 15.71 3.55469C15.9767 3.55469 16.2323 3.66117 16.42 3.85049C16.6067 4.04091 16.7096 4.29801 16.7059 4.56465C16.7021 4.8313 16.592 5.0854 16.4 5.27049Z" fill="#787C89"/>
</svg>
