<svg width="24" height="24" viewBox="0 0 24 24" fill="none" xmlns="http://www.w3.org/2000/svg">
<path d="M5.27 7.59988L12 14.3299L18.73 7.59988C18.9178 7.41057 19.1734 7.30409 19.44 7.30409C19.7066 7.30409 19.9622 7.41057 20.15 7.59988C20.3393 7.78765 20.4458 8.04325 20.4458 8.30988C20.4458 8.57652 20.3393 8.83212 20.15 9.01988L12.8 16.3599C12.588 16.5724 12.3002 16.6918 12 16.6918C11.6998 16.6918 11.412 16.5724 11.2 16.3599L3.85 8.99988C3.66068 8.81212 3.5542 8.55652 3.5542 8.28988C3.5542 8.02325 3.66068 7.76765 3.85 7.57988C4.04042 7.39319 4.29752 7.29029 4.56416 7.29404C4.83081 7.2978 5.08491 7.4079 5.27 7.59988Z" fill="#787C89"/>
</svg>
