<svg width="24" height="24" viewBox="0 0 24 24" fill="none" xmlns="http://www.w3.org/2000/svg">
<path d="M15.459 7.21892L10.678 12L15.459 16.7811C15.5935 16.9145 15.6692 17.096 15.6692 17.2855C15.6692 17.4749 15.5935 17.6565 15.459 17.7899C15.3256 17.9244 15.1441 18 14.9546 18C14.7652 18 14.5836 17.9244 14.4502 17.7899L9.23581 12.5683C9.08484 12.4177 9 12.2132 9 12C9 11.7868 9.08484 11.5823 9.23581 11.4317L14.4644 6.21014C14.5978 6.07565 14.7794 6 14.9688 6C15.1583 6 15.3398 6.07565 15.4732 6.21014C15.6059 6.34542 15.679 6.52806 15.6763 6.71749C15.6736 6.90692 15.5954 7.08744 15.459 7.21892Z" fill="#787C89"/>
</svg>
