<svg width="24" height="24" viewBox="0 0 24 24" fill="none" xmlns="http://www.w3.org/2000/svg">
<path fill-rule="evenodd" clip-rule="evenodd" d="M18.717 4.30292C19.102 4.69891 19.0931 5.33201 18.6971 5.717L12.2346 12L18.6971 18.283C19.0931 18.668 19.102 19.3011 18.717 19.6971C18.332 20.0931 17.6989 20.102 17.3029 19.717L10.1029 12.717C9.90926 12.5287 9.8 12.2701 9.8 12C9.8 11.7299 9.90926 11.4713 10.1029 11.283L17.3029 4.28301C17.6989 3.89802 18.332 3.90694 18.717 4.30292ZM6 4C6.55228 4 7 4.44772 7 5V19C7 19.5523 6.55228 20 6 20C5.44772 20 5 19.5523 5 19V5C5 4.44772 5.44772 4 6 4Z" fill="#787C89"/>
</svg>
