<svg width="24" height="24" viewBox="0 0 24 24" fill="none" xmlns="http://www.w3.org/2000/svg">
<path fill-rule="evenodd" clip-rule="evenodd" d="M5.28301 4.30292C5.66799 3.90694 6.30109 3.89802 6.69708 4.28301L13.8971 11.283C14.0907 11.4713 14.2 11.7299 14.2 12C14.2 12.2701 14.0907 12.5287 13.8971 12.717L6.69708 19.717C6.30109 20.102 5.66799 20.0931 5.28301 19.6971C4.89802 19.3011 4.90694 18.668 5.30292 18.283L11.7654 12L5.30292 5.717C4.90694 5.33201 4.89802 4.69891 5.28301 4.30292ZM18 4C18.5523 4 19 4.44772 19 5V19C19 19.5523 18.5523 20 18 20C17.4477 20 17 19.5523 17 19V5C17 4.44772 17.4477 4 18 4Z" fill="#787C89"/>
</svg>
