<svg width="24" height="24" viewBox="0 0 24 24" fill="none" xmlns="http://www.w3.org/2000/svg">
<path d="M16.7811 15.459L12 10.678L7.21892 15.459C7.08553 15.5935 6.90395 15.6692 6.71453 15.6692C6.52511 15.6692 6.34353 15.5935 6.21014 15.459C6.07565 15.3256 6 15.1441 6 14.9546C6 14.7652 6.07565 14.5836 6.21014 14.4502L11.4317 9.23581C11.5823 9.08484 11.7868 9 12 9C12.2132 9 12.4177 9.08484 12.5683 9.23581L17.7899 14.4644C17.9244 14.5978 18 14.7794 18 14.9688C18 15.1583 17.9244 15.3398 17.7899 15.4732C17.6546 15.6059 17.4719 15.679 17.2825 15.6763C17.0931 15.6736 16.9126 15.5954 16.7811 15.459Z" fill="#787C89"/>
</svg>
