<svg width="24" height="24" viewBox="0 0 24 24" fill="none" xmlns="http://www.w3.org/2000/svg">
<path fill-rule="evenodd" clip-rule="evenodd" d="M22.5 12C22.5 17.799 17.799 22.5 12 22.5C6.20101 22.5 1.5 17.799 1.5 12C1.5 6.20101 6.20101 1.5 12 1.5C17.799 1.5 22.5 6.20101 22.5 12ZM16.8914 13.3052L13.1666 11.3074L13.1666 5.15166C13.1666 4.50733 12.6443 3.985 12 3.985C11.3556 3.985 10.8333 4.50734 10.8333 5.15167L10.8333 11.44C10.8275 12.2087 11.2517 12.9257 11.9359 13.295L15.7886 15.3614C16.3564 15.666 17.0636 15.4526 17.3681 14.8848C17.6727 14.317 17.4593 13.6098 16.8914 13.3052Z" fill="#787C89"/>
</svg>
