<svg width="24" height="24" viewBox="0 0 24 24" fill="none" xmlns="http://www.w3.org/2000/svg">
<path fill-rule="evenodd" clip-rule="evenodd" d="M3 12C3 7.02944 7.02944 3 12 3C16.9706 3 21 7.02944 21 12C21 16.9706 16.9706 21 12 21C7.02944 21 3 16.9706 3 12ZM15.72 15.01C16.0865 15.011 16.4241 14.8115 16.6 14.49C16.7272 14.2555 16.7554 13.98 16.6784 13.7246C16.6014 13.4692 16.4256 13.2551 16.19 13.13L13 11.4V6.13C13 5.57772 12.5523 5.13 12 5.13C11.4477 5.13 11 5.57772 11 6.13V11.52C11.0107 12.195 11.3962 12.808 12 13.11L15.24 14.89C15.3884 14.967 15.5528 15.008 15.72 15.01Z" fill="#787C89"/>
</svg>
