<svg width="24" height="24" viewBox="0 0 24 24" fill="none" xmlns="http://www.w3.org/2000/svg">
<path fill-rule="evenodd" clip-rule="evenodd" d="M9 5H7V4C7 3.44772 6.55228 3 6 3C5.44772 3 5 3.44772 5 4V5H4C3.44772 5 3 5.44772 3 6V20C3 20.5523 3.44772 21 4 21H16C16.5523 21 17 20.5523 17 20V19.9368C16.4917 19.9365 15.9857 19.8591 15.4996 19.7067L13.9293 19.9819C13.7149 20.0193 13.494 19.9987 13.2903 19.9219C13.0866 19.845 12.907 19.7148 12.7709 19.5445C12.6347 19.3742 12.5471 19.1702 12.5177 18.9539C12.4883 18.7378 12.5182 18.5178 12.604 18.3174L12.8511 17.738C12.6473 17.4391 12.4769 17.1185 12.3433 16.7819L12.3425 16.78C12.1191 16.2111 12.0036 15.6076 12.0001 15H6.5C6.22386 15 6 14.7761 6 14.5C6 14.2239 6.22386 14 6.5 14H12.0965C12.2229 13.3697 12.4713 12.7683 12.8292 12.2299C12.8813 12.1517 12.9355 12.075 12.9917 12H6.5C6.22386 12 6 11.7761 6 11.5C6 11.2239 6.22386 11 6.5 11H13.5C13.6273 11 13.7434 11.0475 13.8317 11.1258C14.0601 10.9398 14.3053 10.7737 14.5648 10.6298C15.2634 10.2424 16.0455 10.0273 16.8448 10.0025C16.8965 10.0009 16.9483 10.0001 17 10V6C17 5.44772 16.5523 5 16 5H15V4C15 3.44772 14.5523 3 14 3C13.4477 3 13 3.44772 13 4V5H11V4C11 3.44772 10.5523 3 10 3C9.44772 3 9 3.44772 9 4V5ZM6.5 8C6.22386 8 6 8.22386 6 8.5C6 8.77614 6.22386 9 6.5 9H13.5C13.7761 9 14 8.77614 14 8.5C14 8.22386 13.7761 8 13.5 8H6.5Z" fill="#787C89"/>
<path fill-rule="evenodd" clip-rule="evenodd" d="M15.0375 11.504C15.593 11.194 16.2148 11.0218 16.8507 11.002C17.4334 10.9835 18.013 11.0935 18.5484 11.3242C19.0838 11.5549 19.5618 11.9006 19.9486 12.3368C20.3353 12.773 20.6213 13.289 20.7862 13.8482C20.9511 14.4074 20.9909 14.996 20.9027 15.5722C20.8145 16.1485 20.6006 16.6983 20.276 17.1825C19.9515 17.6668 19.5243 18.0737 19.0248 18.3743C18.5253 18.6749 17.9657 18.8619 17.3859 18.922C16.806 18.982 16.22 18.9137 15.6695 18.7218L14.1426 18.9911C14.0384 19.0094 13.9311 18.9993 13.8322 18.9618C13.7333 18.9242 13.6463 18.8607 13.5805 18.7778C13.5147 18.695 13.4725 18.5959 13.4584 18.491C13.4442 18.3862 13.4586 18.2795 13.5 18.1821L13.8321 17.3986C13.5993 17.1007 13.4106 16.7708 13.2718 16.4192C13.0406 15.8265 12.955 15.187 13.0223 14.5544C13.0895 13.9218 13.3077 13.3146 13.6583 12.7838C14.009 12.253 14.482 11.8141 15.0375 11.504ZM15.0343 15.5506C15.1345 15.6175 15.2522 15.6533 15.3727 15.6533C15.5343 15.6533 15.6893 15.5891 15.8035 15.4748C15.9178 15.3606 15.9819 15.2056 15.9819 15.0441C15.9819 14.9236 15.9462 14.8058 15.8793 14.7056C15.8123 14.6054 15.7172 14.5273 15.6059 14.4812C15.4945 14.4351 15.3721 14.4231 15.2539 14.4466C15.1357 14.4701 15.0272 14.5281 14.942 14.6133C14.8568 14.6985 14.7987 14.807 14.7752 14.9252C14.7517 15.0434 14.7638 15.1659 14.8099 15.2772C14.856 15.3885 14.9341 15.4836 15.0343 15.5506ZM16.6337 15.5506C16.7339 15.6175 16.8517 15.6533 16.9722 15.6533C17.1337 15.6533 17.2887 15.5891 17.4029 15.4748C17.5172 15.3606 17.5814 15.2056 17.5814 15.0441C17.5814 14.9236 17.5456 14.8058 17.4787 14.7056C17.4118 14.6054 17.3166 14.5273 17.2053 14.4812C17.094 14.4351 16.9715 14.4231 16.8533 14.4466C16.7351 14.4701 16.6266 14.5281 16.5414 14.6133C16.4562 14.6985 16.3982 14.807 16.3746 14.9252C16.3511 15.0434 16.3632 15.1659 16.4093 15.2772C16.4554 15.3885 16.5335 15.4836 16.6337 15.5506ZM18.2331 15.5506C18.3333 15.6175 18.4511 15.6533 18.5716 15.6533C18.7331 15.6533 18.8881 15.5891 19.0023 15.4748C19.1166 15.3606 19.1808 15.2056 19.1808 15.0441C19.1808 14.9236 19.1451 14.8058 19.0781 14.7056C19.0112 14.6054 18.916 14.5273 18.8047 14.4812C18.6934 14.4351 18.5709 14.4231 18.4527 14.4466C18.3345 14.4701 18.226 14.5281 18.1408 14.6133C18.0556 14.6985 17.9976 14.807 17.9741 14.9252C17.9506 15.0434 17.9626 15.1659 18.0087 15.2772C18.0548 15.3885 18.1329 15.4836 18.2331 15.5506Z" fill="#787C89"/>
</svg>
