<svg width="24" height="24" viewBox="0 0 24 24" fill="none" xmlns="http://www.w3.org/2000/svg">
<path fill-rule="evenodd" clip-rule="evenodd" d="M7 5L9 5V4C9 3.44772 9.44772 3 10 3C10.5523 3 11 3.44772 11 4V5L13 5V4C13 3.44772 13.4477 3 14 3C14.5523 3 15 3.44772 15 4V5L16 5C16.5523 5 17 5.44772 17 6V11.2096C16.6613 11.2096 16.3365 11.3442 16.097 11.5837C15.8575 11.8232 15.723 12.1481 15.723 12.4868V13.3648C15.511 13.2925 15.2829 13.2775 15.062 13.3224C14.8117 13.3735 14.5828 13.4991 14.4055 13.6824L13.8948 14.1931C13.8033 14.0756 13.6605 14 13.5 14H6.5C6.22386 14 6 14.2239 6 14.5C6 14.7761 6.22386 15 6.5 15H13.0879L12.3164 15.7716C12.1981 15.8869 12.1034 16.0242 12.0378 16.176C11.9689 16.3351 11.9333 16.5066 11.9333 16.68C11.9333 16.8534 11.9689 17.0249 12.0378 17.184C12.1034 17.3358 12.1981 17.4731 12.3164 17.5884L14.4067 19.6788C14.523 19.7985 14.662 19.8941 14.8156 19.96C14.94 20.0133 15.0719 20.0462 15.2063 20.0576C15.348 20.0748 15.4919 20.0675 15.6318 20.0358C15.6897 20.0227 15.7465 20.0048 15.8014 19.9822C16.0347 19.8864 16.2343 19.7237 16.3752 19.5146C16.5145 19.3079 16.5902 19.0651 16.5932 18.816H17V20C17 20.5523 16.5523 21 16 21H4C3.44772 21 3 20.5523 3 20V6C3 5.44772 3.44772 5 4 5L5 5L5 4C5 3.44772 5.44772 3 6 3C6.55228 3 7 3.44772 7 4V5ZM6 8.5C6 8.22386 6.22386 8 6.5 8H13.5C13.7761 8 14 8.22386 14 8.5C14 8.77614 13.7761 9 13.5 9H6.5C6.22386 9 6 8.77614 6 8.5ZM6.5 11C6.22386 11 6 11.2239 6 11.5C6 11.7761 6.22386 12 6.5 12H13.5C13.7761 12 14 11.7761 14 11.5C14 11.2239 13.7761 11 13.5 11H6.5Z" fill="#787C89"/>
<path d="M17.2107 17.5388V15.8548C17.2107 15.799 17.1885 15.7454 17.1491 15.706C17.1096 15.6665 17.056 15.6443 17.0002 15.6443H15.5267V14.5918C15.53 14.5474 15.5191 14.5031 15.4957 14.4653C15.4722 14.4275 15.4374 14.3981 15.3962 14.3813C15.3582 14.3641 15.3158 14.3593 15.275 14.3676C15.2342 14.3759 15.197 14.3969 15.1688 14.4276L13.0638 16.5326C13.0437 16.5515 13.0276 16.5744 13.0166 16.5997C13.0057 16.625 13 16.6524 13 16.68C13 16.7076 13.0057 16.7349 13.0166 16.7603C13.0276 16.7856 13.0437 16.8084 13.0638 16.8273L15.1688 18.9324C15.1876 18.9526 15.2105 18.9687 15.2358 18.9795C15.2612 18.9904 15.2886 18.9959 15.3162 18.9955C15.3425 19.0015 15.3698 19.0015 15.3962 18.9955C15.4346 18.9797 15.4675 18.9529 15.4908 18.9185C15.514 18.884 15.5265 18.8434 15.5267 18.8019V17.7493H17.0002C17.056 17.7493 17.1096 17.7272 17.1491 17.6877C17.1885 17.6482 17.2107 17.5947 17.2107 17.5388Z" fill="#787C89"/>
<path d="M18.8316 11.0764L20.9366 13.1814C20.9722 13.219 20.992 13.2687 20.992 13.3204C20.992 13.372 20.9722 13.4218 20.9366 13.4593L18.8316 15.5643C18.8128 15.5845 18.79 15.6006 18.7646 15.6115C18.7392 15.6224 18.7119 15.6278 18.6843 15.6275C18.6579 15.6334 18.6306 15.6334 18.6043 15.6275C18.5658 15.6117 18.5329 15.5849 18.5097 15.5504C18.4865 15.5159 18.474 15.4754 18.4737 15.4338V14.3813H17.0002C16.9444 14.3813 16.8908 14.3591 16.8514 14.3196C16.8119 14.2802 16.7897 14.2266 16.7897 14.1708V12.4868C16.7897 12.4309 16.8119 12.3774 16.8514 12.3379C16.8908 12.2984 16.9444 12.2763 17.0002 12.2763H18.4737V11.2237C18.4705 11.1794 18.4813 11.1351 18.5048 11.0973C18.5282 11.0594 18.5631 11.03 18.6043 11.0132C18.6439 10.998 18.6874 10.9958 18.7284 11.0072C18.7693 11.0186 18.8055 11.0428 18.8316 11.0764Z" fill="#787C89"/>
</svg>
