<svg width="24" height="24" viewBox="0 0 24 24" fill="none" xmlns="http://www.w3.org/2000/svg">
<path fill-rule="evenodd" clip-rule="evenodd" d="M21 6.75V10.25C20.01 10.25 19.2 11.0375 19.2 12C19.2 12.9625 20.01 13.75 21 13.75V17.25C21 18.2125 20.19 19 19.2 19H4.8C3.81 19 3 18.2125 3 17.25V13.75C3.999 13.75 4.8 12.9625 4.8 12C4.8 11.0375 3.999 10.25 3.009 10.25V6.75C3.009 5.7875 3.81 5 4.8 5H19.2C20.19 5 21 5.7875 21 6.75ZM10.9355 14.8524L12 14.1875L13.0551 14.8466C13.8269 15.3286 14.7891 14.6131 14.5497 13.7352L14.241 12.6038L15.15 11.8811C15.869 11.3097 15.5019 10.1525 14.585 10.1L13.386 10.0312L12.924 8.8791C12.5889 8.04345 11.4066 8.0416 11.0688 8.87621L10.605 10.0225L9.40601 10.0912C8.4891 10.1438 8.12204 11.3009 8.84097 11.8724L9.75 12.595L9.44022 13.7439C9.20371 14.6211 10.165 15.3337 10.9355 14.8524Z" fill="#787C89"/>
</svg>
