<svg width="24" height="24" viewBox="0 0 24 24" fill="none" xmlns="http://www.w3.org/2000/svg">
<path d="M4.07654 17V6.81818H7.89472C8.67692 6.81818 9.33317 6.95407 9.86347 7.22585C10.3971 7.49763 10.7998 7.87879 11.0716 8.36932C11.3467 8.85654 11.4842 9.42495 11.4842 10.0746C11.4842 10.7275 11.345 11.2943 11.0666 11.7749C10.7915 12.2521 10.3855 12.6217 9.84856 12.8835C9.31162 13.142 8.65206 13.2713 7.86986 13.2713H5.1504V11.7401H7.62128C8.07867 11.7401 8.4532 11.6771 8.74486 11.5511C9.03653 11.4219 9.25196 11.2346 9.39117 10.9893C9.53369 10.7408 9.60495 10.4358 9.60495 10.0746C9.60495 9.71331 9.53369 9.40507 9.39117 9.14986C9.24865 8.89134 9.03156 8.69579 8.73989 8.56321C8.44822 8.42732 8.07204 8.35938 7.61134 8.35938H5.921V17H4.07654ZM9.33648 12.3864L11.8571 17H9.79884L7.32299 12.3864H9.33648Z" fill="#787C89"/>
<path d="M13.1025 19.8636V9.36364H14.8723V10.6264H14.9768C15.0696 10.4408 15.2005 10.2436 15.3695 10.0348C15.5385 9.82268 15.7672 9.64205 16.0556 9.4929C16.3439 9.34044 16.7118 9.26421 17.1593 9.26421C17.7492 9.26421 18.2812 9.41501 18.7552 9.71662C19.2324 10.0149 19.6103 10.4574 19.8887 11.044C20.1704 11.6274 20.3113 12.3433 20.3113 13.1918C20.3113 14.0303 20.1737 14.7429 19.8986 15.3295C19.6235 15.9162 19.249 16.3636 18.775 16.6719C18.3011 16.9801 17.7642 17.1342 17.1643 17.1342C16.7268 17.1342 16.3638 17.0613 16.0755 16.9155C15.7871 16.7697 15.5551 16.594 15.3794 16.3885C15.2071 16.1797 15.0729 15.9825 14.9768 15.7969H14.9022V19.8636H13.1025ZM14.8674 13.1818C14.8674 13.6757 14.937 14.1082 15.0762 14.4794C15.2187 14.8506 15.4225 15.1406 15.6877 15.3494C15.9562 15.5549 16.281 15.6577 16.6621 15.6577C17.0598 15.6577 17.3929 15.5516 17.6614 15.3395C17.9299 15.1241 18.1321 14.8307 18.2679 14.4595C18.4071 14.085 18.4768 13.6591 18.4768 13.1818C18.4768 12.7079 18.4088 12.2869 18.2729 11.919C18.137 11.5511 17.9348 11.2628 17.6664 11.054C17.3979 10.8452 17.0632 10.7408 16.6621 10.7408C16.2777 10.7408 15.9512 10.8419 15.6827 11.044C15.4143 11.2462 15.2104 11.5296 15.0712 11.8942C14.9353 12.2588 14.8674 12.688 14.8674 13.1818Z" fill="#787C89"/>
</svg>
