<svg width="24" height="24" viewBox="0 0 24 24" fill="none" xmlns="http://www.w3.org/2000/svg">
<path d="M20.6063 10.2381H20.8512C21.4163 10.2381 21.9582 10.4626 22.3578 10.8622C22.7574 11.2618 22.9819 11.8037 22.9819 12.3688V15.0734C22.9813 15.638 22.7565 16.1794 22.357 16.5784C21.9575 16.9775 21.4159 17.2017 20.8512 17.2017H20.5623C20.3767 18.4274 19.7578 19.546 18.8179 20.3544C17.878 21.1627 16.6795 21.6073 15.4397 21.6075H15.373L14.6892 21.602C14.5797 21.7268 14.4448 21.8268 14.2936 21.8954C14.1424 21.964 13.9783 21.9997 13.8123 22H10.4208C10.1085 22 9.80896 21.8759 9.58812 21.6551C9.36727 21.4342 9.24321 21.1347 9.24321 20.8224C9.24321 20.5101 9.36727 20.2106 9.58812 19.9897C9.80896 19.7689 10.1085 19.6448 10.4208 19.6448H13.8154C13.9789 19.6454 14.1405 19.6801 14.2898 19.7466C14.4392 19.8131 14.5731 19.91 14.6829 20.0311L15.3895 20.0373C15.8688 20.0439 16.3446 19.9551 16.7893 19.7762C17.2339 19.5973 17.6386 19.3318 17.9798 18.9951C18.321 18.6585 18.5919 18.2574 18.7767 17.8151C18.9616 17.3729 19.0567 16.8983 19.0565 16.419V10.633C19.0565 8.7591 18.3121 6.96193 16.9871 5.63687C15.662 4.31182 13.8649 3.56741 11.9909 3.56741C10.117 3.56741 8.31986 4.31182 6.9948 5.63687C5.66975 6.96193 4.92534 8.7591 4.92534 10.633V16.419C4.92534 16.6272 4.84262 16.8269 4.6954 16.9741C4.54817 17.1213 4.34848 17.204 4.14027 17.204H3.13067C2.85087 17.204 2.5738 17.1489 2.3153 17.0418C2.05679 16.9348 1.82191 16.7778 1.62406 16.58C1.22448 16.1804 1 15.6384 1 15.0734V12.3688C1 11.8037 1.22448 11.2618 1.62406 10.8622C1.82191 10.6643 2.05679 10.5074 2.3153 10.4003C2.5738 10.2932 2.85087 10.2381 3.13067 10.2381H3.37561C3.47496 8.01993 4.42604 5.92552 6.03085 4.39098C7.63567 2.85643 9.77052 2 11.9909 2C14.2114 2 16.3462 2.85643 17.951 4.39098C19.5558 5.92552 20.5069 8.01993 20.6063 10.2381Z" fill="#787C89"/>
<path d="M13.1687 11.8046C13.1687 12.4549 12.6414 12.9822 11.9911 12.9822C11.3407 12.9822 10.8135 12.4549 10.8135 11.8046C10.8135 11.1542 11.3407 10.627 11.9911 10.627C12.6414 10.627 13.1687 11.1542 13.1687 11.8046Z" fill="#787C89"/>
<path d="M7.8341 12.9822C8.48447 12.9822 9.0117 12.4549 9.0117 11.8046C9.0117 11.1542 8.48447 10.627 7.8341 10.627C7.18372 10.627 6.65649 11.1542 6.65649 11.8046C6.65649 12.4549 7.18372 12.9822 7.8341 12.9822Z" fill="#787C89"/>
<path d="M17.3254 11.8046C17.3254 12.4549 16.7982 12.9822 16.1478 12.9822C15.4974 12.9822 14.9702 12.4549 14.9702 11.8046C14.9702 11.1542 15.4974 10.627 16.1478 10.627C16.7982 10.627 17.3254 11.1542 17.3254 11.8046Z" fill="#787C89"/>
</svg>
