<svg width="24" height="24" viewBox="0 0 24 24" fill="none" xmlns="http://www.w3.org/2000/svg">
<path d="M8 12.052C9.995 12.052 11.5 10.547 11.5 8.552C11.5 6.557 9.995 5.052 8 5.052C6.005 5.052 4.5 6.557 4.5 8.552C4.5 10.547 6.005 12.052 8 12.052ZM9 13H7C4.243 13 2 15.243 2 18V19H14V18C14 15.243 11.757 13 9 13ZM20.6466 8.64656C20.4513 8.45129 20.1347 8.45129 19.9394 8.64656L18.3536 10.2324C18.1583 10.4277 17.8417 10.4277 17.6464 10.2324L16.0606 8.64656C15.8653 8.45129 15.5487 8.45129 15.3534 8.64656L14.6466 9.35345C14.4513 9.54871 14.4513 9.86529 14.6466 10.0606L16.2314 11.6454C16.4267 11.8407 16.4267 12.1573 16.2314 12.3526L14.6456 13.9384C14.4503 14.1337 14.4503 14.4503 14.6456 14.6456L15.3524 15.3524C15.5477 15.5477 15.8643 15.5477 16.0596 15.3524L17.6454 13.7666C17.8407 13.5713 18.1573 13.5713 18.3526 13.7666L19.9394 15.3534C20.1347 15.5487 20.4513 15.5487 20.6466 15.3534L21.3534 14.6466C21.5487 14.4513 21.5487 14.1347 21.3534 13.9394L19.7676 12.3536C19.5723 12.1583 19.5723 11.8417 19.7676 11.6464L21.3534 10.0606C21.5487 9.86529 21.5487 9.54871 21.3534 9.35345L20.6466 8.64656Z" fill="#787C89"/>
</svg>
