<svg width="24" height="24" viewBox="0 0 24 24" fill="none" xmlns="http://www.w3.org/2000/svg">
<path d="M15.89 3.11H19.1C19.2812 3.10728 19.4557 3.17804 19.5838 3.30616C19.7119 3.43428 19.7827 3.60883 19.78 3.79V4.66C19.78 4.83944 19.708 5.01139 19.5802 5.13733C19.4524 5.26327 19.2794 5.33268 19.1 5.33H4.89999C4.72056 5.33268 4.54757 5.26327 4.41975 5.13733C4.29193 5.01139 4.21997 4.83944 4.21999 4.66V3.79C4.21726 3.60883 4.28803 3.43428 4.41615 3.30616C4.54427 3.17804 4.71882 3.10728 4.89999 3.11H8.10999L8.90999 2.31C9.10896 2.11127 9.37876 1.99975 9.65999 2H14.34C14.6212 1.99975 14.891 2.11127 15.09 2.31L15.89 3.11Z" fill="#787C89"/>
<path fill-rule="evenodd" clip-rule="evenodd" d="M8.82999 22C6.89927 21.9945 5.33548 20.4307 5.32999 18.5V7.58C5.32999 6.9504 5.84038 6.44 6.46999 6.44H17.53C17.8323 6.44 18.1223 6.56011 18.3361 6.7739C18.5499 6.98769 18.67 7.27765 18.67 7.58V18.5C18.6645 20.4307 17.1007 21.9945 15.17 22H8.82999ZM7.99999 10C7.99999 9.44772 8.4477 9 8.99999 9C9.55227 9 9.99999 9.44772 9.99999 10V18C9.99999 18.5523 9.55227 19 8.99999 19C8.4477 19 7.99999 18.5523 7.99999 18V10ZM15 9C14.4477 9 14 9.44772 14 10V18C14 18.5523 14.4477 19 15 19C15.5523 19 16 18.5523 16 18V10C16 9.44772 15.5523 9 15 9Z" fill="#787C89"/>
</svg>
