<svg width="24" height="24" viewBox="0 0 24 24" fill="none" xmlns="http://www.w3.org/2000/svg">
<path fill-rule="evenodd" clip-rule="evenodd" d="M6 2C4.89543 2 4 2.89543 4 4V20C4 21.1046 4.89543 22 6 22H18C19.1046 22 20 21.1046 20 20V4C20 2.89543 19.1046 2 18 2H6ZM12.3757 6.97885C12.2566 7.03054 12.1289 7.05714 12 7.05714C11.7396 7.05714 11.4899 6.94878 11.3057 6.75588C11.1216 6.56299 11.0182 6.30136 11.0182 6.02857C11.0182 5.75578 11.1216 5.49416 11.3057 5.30126C11.4899 5.10837 11.7396 5 12 5C12.1289 5 12.2566 5.02661 12.3757 5.0783C12.4948 5.12999 12.6031 5.20575 12.6942 5.30126C12.7854 5.39677 12.8577 5.51016 12.9071 5.63495C12.9564 5.75975 12.9818 5.8935 12.9818 6.02857C12.9818 6.16365 12.9564 6.2974 12.9071 6.42219C12.8577 6.54698 12.7854 6.66037 12.6942 6.75588C12.6031 6.85139 12.4948 6.92716 12.3757 6.97885ZM10.7786 7.4C10.4589 7.4 10.2 7.67086 10.2 8.00617V8.12926C10.2 8.20091 10.2 8.61234 10.4291 9.01246C10.6719 9.43554 11.1448 9.8 12 9.8C12.8552 9.8 13.3277 9.43554 13.5709 9.01246C13.8 8.61234 13.8 8.20057 13.8 8.1296V8.00617C13.8 7.6712 13.5411 7.4 13.2214 7.4H10.7786ZM12 16.2571C12.1289 16.2571 12.2566 16.2305 12.3757 16.1788C12.4948 16.1272 12.6031 16.0514 12.6942 15.9559C12.7854 15.8604 12.8577 15.747 12.9071 15.6222C12.9564 15.4974 12.9818 15.3636 12.9818 15.2286C12.9818 15.0935 12.9564 14.9597 12.9071 14.835C12.8577 14.7102 12.7854 14.5968 12.6942 14.5013C12.6031 14.4057 12.4948 14.33 12.3757 14.2783C12.2566 14.2266 12.1289 14.2 12 14.2C11.7396 14.2 11.4899 14.3084 11.3057 14.5013C11.1216 14.6942 11.0182 14.9558 11.0182 15.2286C11.0182 15.5014 11.1216 15.763 11.3057 15.9559C11.4899 16.1488 11.7396 16.2571 12 16.2571ZM10.2 17.2062C10.2 16.8709 10.4589 16.6 10.7786 16.6H13.2214C13.5411 16.6 13.8 16.8712 13.8 17.2062V17.3296C13.8 17.4006 13.8 17.8123 13.5709 18.2125C13.3277 18.6355 12.8552 19 12 19C11.1448 19 10.6719 18.6355 10.4291 18.2125C10.2 17.8123 10.2 17.4009 10.2 17.3293V17.2062ZM17.5757 16.1788C17.4566 16.2305 17.3289 16.2571 17.2 16.2571C16.9396 16.2571 16.6899 16.1488 16.5057 15.9559C16.3216 15.763 16.2182 15.5014 16.2182 15.2286C16.2182 14.9558 16.3216 14.6942 16.5057 14.5013C16.6899 14.3084 16.9396 14.2 17.2 14.2C17.3289 14.2 17.4566 14.2266 17.5757 14.2783C17.6948 14.33 17.8031 14.4057 17.8942 14.5013C17.9854 14.5968 18.0577 14.7102 18.1071 14.835C18.1564 14.9597 18.1818 15.0935 18.1818 15.2286C18.1818 15.3636 18.1564 15.4974 18.1071 15.6222C18.0577 15.747 17.9854 15.8604 17.8942 15.9559C17.8031 16.0514 17.6948 16.1272 17.5757 16.1788ZM15.9786 16.6C15.6589 16.6 15.4 16.8709 15.4 17.2062V17.3293C15.4 17.4009 15.4 17.8123 15.6291 18.2125C15.8719 18.6355 16.3448 19 17.2 19C18.0552 19 18.5277 18.6355 18.7709 18.2125C19 17.8123 19 17.4006 19 17.3296V17.2062C19 16.8712 18.7411 16.6 18.4214 16.6H15.9786ZM6.8 16.2571C6.92894 16.2571 7.05661 16.2305 7.17572 16.1788C7.29485 16.1272 7.40308 16.0514 7.49425 15.9559C7.58542 15.8604 7.65775 15.747 7.70708 15.6222C7.75642 15.4974 7.78181 15.3636 7.78181 15.2286C7.78181 15.0935 7.75642 14.9597 7.70708 14.835C7.65775 14.7102 7.58542 14.5968 7.49425 14.5013C7.40308 14.4057 7.29485 14.33 7.17572 14.2783C7.05661 14.2266 6.92894 14.2 6.8 14.2C6.5396 14.2 6.28987 14.3084 6.10574 14.5013C5.92162 14.6942 5.81818 14.9558 5.81818 15.2286C5.81818 15.5014 5.92162 15.763 6.10574 15.9559C6.28987 16.1488 6.5396 16.2571 6.8 16.2571ZM5 17.2062C5 16.8709 5.25887 16.6 5.57861 16.6H8.02138C8.34113 16.6 8.60001 16.8712 8.60001 17.2062V17.3296C8.60001 17.4006 8.60001 17.8123 8.37091 18.2125C8.12775 18.6355 7.65517 19 6.8 19C5.94484 19 5.47192 18.6355 5.2291 18.2125C5 17.8123 5 17.4009 5 17.3293V17.2062ZM12 10.5C12.2209 10.5 12.4 10.6791 12.4 10.9V11.1667C12.4 11.3508 12.5492 11.5 12.7333 11.5H17C17.5523 11.5 18 11.9477 18 12.5V13.1C18 13.3209 17.8209 13.5 17.6 13.5C17.3791 13.5 17.2 13.3209 17.2 13.1V12.8333C17.2 12.6492 17.0508 12.5 16.8667 12.5H7.13333C6.94923 12.5 6.8 12.6492 6.8 12.8333V13.1C6.8 13.3209 6.62091 13.5 6.39999 13.5C6.17909 13.5 6 13.3209 6 13.1V12.5C6 11.9477 6.44771 11.5 7 11.5H11.2667C11.4508 11.5 11.6 11.3508 11.6 11.1667V10.9C11.6 10.6791 11.7791 10.5 12 10.5Z" fill="#787C89"/>
</svg>
