<svg width="24" height="24" viewBox="0 0 24 24" fill="none" xmlns="http://www.w3.org/2000/svg">
<path fill-rule="evenodd" clip-rule="evenodd" d="M14.47 2.47C14.1674 2.16826 13.7573 1.99918 13.33 2H6C4.89543 2 4 2.89543 4 4V20C4 21.1046 4.89543 22 6 22H18C19.1046 22 20 21.1046 20 20V8.67C20.0008 8.24269 19.8317 7.83257 19.53 7.53L14.47 2.47ZM6.84345 19C6.80345 19 6.76945 18.986 6.74145 18.958C6.71345 18.93 6.69945 18.896 6.69945 18.856V14.95C6.69945 14.906 6.71345 14.87 6.74145 14.842C6.76945 14.814 6.80345 14.8 6.84345 14.8H9.48345C9.52745 14.8 9.56345 14.814 9.59145 14.842C9.61945 14.87 9.63345 14.906 9.63345 14.95V15.346C9.63345 15.386 9.61945 15.42 9.59145 15.448C9.56345 15.476 9.52745 15.49 9.48345 15.49H7.50945V16.552H9.35145C9.39545 16.552 9.43145 16.566 9.45945 16.594C9.48745 16.618 9.50145 16.652 9.50145 16.696V17.068C9.50145 17.112 9.48745 17.148 9.45945 17.176C9.43145 17.2 9.39545 17.212 9.35145 17.212H7.50945V18.31H9.53145C9.57545 18.31 9.61145 18.324 9.63945 18.352C9.66745 18.38 9.68145 18.416 9.68145 18.46V18.856C9.68145 18.896 9.66745 18.93 9.63945 18.958C9.61145 18.986 9.57545 19 9.53145 19H6.84345ZM10.5759 19C10.5359 19 10.5019 18.986 10.4739 18.958C10.4459 18.93 10.4319 18.896 10.4319 18.856V14.95C10.4319 14.906 10.4459 14.87 10.4739 14.842C10.5019 14.814 10.5359 14.8 10.5759 14.8H12.1839C12.4959 14.8 12.7679 14.85 12.9999 14.95C13.2319 15.046 13.4119 15.194 13.5399 15.394C13.6679 15.59 13.7319 15.836 13.7319 16.132C13.7319 16.432 13.6679 16.68 13.5399 16.876C13.4119 17.068 13.2319 17.212 12.9999 17.308C12.7679 17.404 12.4959 17.452 12.1839 17.452H11.2899V18.856C11.2899 18.896 11.2759 18.93 11.2479 18.958C11.2239 18.986 11.1899 19 11.1459 19H10.5759ZM11.2779 16.786H12.1539C12.3859 16.786 12.5639 16.732 12.6879 16.624C12.8119 16.512 12.8739 16.348 12.8739 16.132C12.8739 15.932 12.8159 15.772 12.6999 15.652C12.5839 15.528 12.4019 15.466 12.1539 15.466H11.2779V16.786ZM15.8449 19.06C15.4729 19.06 15.1609 19.006 14.9089 18.898C14.6609 18.786 14.4709 18.642 14.3389 18.466C14.2109 18.286 14.1429 18.098 14.1349 17.902C14.1349 17.866 14.1469 17.836 14.1709 17.812C14.1949 17.788 14.2249 17.776 14.2609 17.776H14.7949C14.8469 17.776 14.8849 17.788 14.9089 17.812C14.9369 17.832 14.9609 17.858 14.9809 17.89C15.0049 17.966 15.0509 18.042 15.1189 18.118C15.1869 18.19 15.2789 18.25 15.3949 18.298C15.5149 18.346 15.6649 18.37 15.8449 18.37C16.1329 18.37 16.3469 18.322 16.4869 18.226C16.6309 18.13 16.7029 18 16.7029 17.836C16.7029 17.72 16.6649 17.628 16.5889 17.56C16.5129 17.488 16.3949 17.424 16.2349 17.368C16.0789 17.308 15.8709 17.246 15.6109 17.182C15.3109 17.11 15.0589 17.024 14.8549 16.924C14.6549 16.82 14.5029 16.69 14.3989 16.534C14.2989 16.378 14.2489 16.18 14.2489 15.94C14.2489 15.708 14.3109 15.502 14.4349 15.322C14.5629 15.142 14.7429 15 14.9749 14.896C15.2109 14.792 15.4909 14.74 15.8149 14.74C16.0749 14.74 16.3049 14.776 16.5049 14.848C16.7049 14.916 16.8709 15.008 17.0029 15.124C17.1349 15.236 17.2349 15.358 17.3029 15.49C17.3749 15.618 17.4129 15.744 17.4169 15.868C17.4169 15.9 17.4049 15.93 17.3809 15.958C17.3609 15.982 17.3309 15.994 17.2909 15.994H16.7329C16.7009 15.994 16.6689 15.986 16.6369 15.97C16.6049 15.954 16.5789 15.924 16.5589 15.88C16.5349 15.756 16.4569 15.65 16.3249 15.562C16.1929 15.474 16.0229 15.43 15.8149 15.43C15.5989 15.43 15.4249 15.47 15.2929 15.55C15.1609 15.63 15.0949 15.754 15.0949 15.922C15.0949 16.034 15.1269 16.128 15.1909 16.204C15.2589 16.276 15.3649 16.34 15.5089 16.396C15.6569 16.452 15.8509 16.512 16.0909 16.576C16.4309 16.652 16.7089 16.74 16.9249 16.84C17.1409 16.94 17.2989 17.068 17.3989 17.224C17.4989 17.376 17.5489 17.57 17.5489 17.806C17.5489 18.07 17.4769 18.296 17.3329 18.484C17.1929 18.668 16.9949 18.81 16.7389 18.91C16.4829 19.01 16.1849 19.06 15.8449 19.06ZM13 4.38V8.17C13 8.6284 13.3716 9 13.83 9H17.62C17.769 9.00464 17.9055 8.91691 17.9632 8.7794C18.0208 8.64189 17.9878 8.48306 17.88 8.38L13.62 4.12C13.5169 4.01224 13.3581 3.97916 13.2206 4.03683C13.0831 4.09449 12.9954 4.23096 13 4.38Z" fill="#787C89"/>
</svg>
