<svg width="24" height="24" viewBox="0 0 24 24" fill="none" xmlns="http://www.w3.org/2000/svg">
<path fill-rule="evenodd" clip-rule="evenodd" d="M14.47 2.47C14.1674 2.16826 13.7573 1.99918 13.33 2H6C4.89543 2 4 2.89543 4 4V20C4 21.1046 4.89543 22 6 22H18C19.1046 22 20 21.1046 20 20V8.67C20.0008 8.24269 19.8317 7.83257 19.53 7.53L14.47 2.47ZM8.01389 19.06C7.64189 19.06 7.32989 19.006 7.07789 18.898C6.82989 18.786 6.63989 18.642 6.50789 18.466C6.37989 18.286 6.31189 18.098 6.30389 17.902C6.30389 17.866 6.31589 17.836 6.33989 17.812C6.36389 17.788 6.39389 17.776 6.42989 17.776H6.96389C7.01589 17.776 7.05389 17.788 7.07789 17.812C7.10589 17.832 7.12989 17.858 7.14989 17.89C7.17389 17.966 7.21989 18.042 7.28789 18.118C7.35589 18.19 7.44789 18.25 7.56389 18.298C7.68389 18.346 7.83389 18.37 8.01389 18.37C8.30189 18.37 8.51589 18.322 8.65589 18.226C8.79989 18.13 8.87189 18 8.87189 17.836C8.87189 17.72 8.83389 17.628 8.75789 17.56C8.68189 17.488 8.56389 17.424 8.40389 17.368C8.24789 17.308 8.03989 17.246 7.77989 17.182C7.47989 17.11 7.22789 17.024 7.02389 16.924C6.82389 16.82 6.67189 16.69 6.56789 16.534C6.46789 16.378 6.41789 16.18 6.41789 15.94C6.41789 15.708 6.47989 15.502 6.60389 15.322C6.73189 15.142 6.91189 15 7.14389 14.896C7.37989 14.792 7.65989 14.74 7.98389 14.74C8.24389 14.74 8.47389 14.776 8.67389 14.848C8.87389 14.916 9.03989 15.008 9.17189 15.124C9.30389 15.236 9.40389 15.358 9.47189 15.49C9.54389 15.618 9.58189 15.744 9.58589 15.868C9.58589 15.9 9.57389 15.93 9.54989 15.958C9.52989 15.982 9.49989 15.994 9.45989 15.994H8.90189C8.86989 15.994 8.83789 15.986 8.80589 15.97C8.77389 15.954 8.74789 15.924 8.72789 15.88C8.70389 15.756 8.62589 15.65 8.49389 15.562C8.36189 15.474 8.19189 15.43 7.98389 15.43C7.76789 15.43 7.59389 15.47 7.46189 15.55C7.32989 15.63 7.26389 15.754 7.26389 15.922C7.26389 16.034 7.29589 16.128 7.35989 16.204C7.42789 16.276 7.53389 16.34 7.67789 16.396C7.82589 16.452 8.01989 16.512 8.25989 16.576C8.59989 16.652 8.87789 16.74 9.09389 16.84C9.30989 16.94 9.46789 17.068 9.56789 17.224C9.66789 17.376 9.71789 17.57 9.71789 17.806C9.71789 18.07 9.64589 18.296 9.50189 18.484C9.36189 18.668 9.16389 18.81 8.90789 18.91C8.65189 19.01 8.35389 19.06 8.01389 19.06ZM11.483 19C11.419 19 11.369 18.984 11.333 18.952C11.297 18.92 11.271 18.88 11.255 18.832L9.97102 14.98C9.96302 14.96 9.95902 14.942 9.95902 14.926C9.95902 14.89 9.97102 14.86 9.99502 14.836C10.019 14.812 10.049 14.8 10.085 14.8H10.613C10.669 14.8 10.711 14.816 10.739 14.848C10.771 14.876 10.791 14.904 10.799 14.932L11.813 18.022L12.821 14.932C12.833 14.904 12.853 14.876 12.881 14.848C12.913 14.816 12.957 14.8 13.013 14.8H13.541C13.573 14.8 13.601 14.812 13.625 14.836C13.653 14.86 13.667 14.89 13.667 14.926C13.667 14.942 13.663 14.96 13.655 14.98L12.371 18.832C12.355 18.88 12.329 18.92 12.293 18.952C12.257 18.984 12.207 19 12.143 19H11.483ZM15.8109 19.06C15.4429 19.06 15.1289 18.996 14.8689 18.868C14.6129 18.74 14.4129 18.556 14.2689 18.316C14.1289 18.072 14.0529 17.782 14.0409 17.446C14.0369 17.274 14.0349 17.09 14.0349 16.894C14.0349 16.694 14.0369 16.506 14.0409 16.33C14.0529 15.998 14.1289 15.714 14.2689 15.478C14.4129 15.242 14.6149 15.06 14.8749 14.932C15.1389 14.804 15.4509 14.74 15.8109 14.74C16.1029 14.74 16.3589 14.78 16.5789 14.86C16.7989 14.936 16.9809 15.036 17.1249 15.16C17.2729 15.28 17.3829 15.41 17.4549 15.55C17.5309 15.69 17.5709 15.82 17.5749 15.94C17.5789 15.976 17.5689 16.006 17.5449 16.03C17.5209 16.054 17.4889 16.066 17.4489 16.066H16.8309C16.7909 16.066 16.7609 16.058 16.7409 16.042C16.7209 16.026 16.7029 16.002 16.6869 15.97C16.6549 15.886 16.6049 15.804 16.5369 15.724C16.4689 15.64 16.3769 15.57 16.2609 15.514C16.1449 15.458 15.9949 15.43 15.8109 15.43C15.5389 15.43 15.3209 15.502 15.1569 15.646C14.9969 15.79 14.9109 16.028 14.8989 16.36C14.8869 16.708 14.8869 17.06 14.8989 17.416C14.9109 17.756 14.9989 18 15.1629 18.148C15.3309 18.296 15.5509 18.37 15.8229 18.37C16.0029 18.37 16.1629 18.338 16.3029 18.274C16.4469 18.21 16.5589 18.11 16.6389 17.974C16.7229 17.838 16.7649 17.664 16.7649 17.452V17.266H16.0329C15.9929 17.266 15.9589 17.252 15.9309 17.224C15.9029 17.196 15.8889 17.16 15.8889 17.116V16.798C15.8889 16.754 15.9029 16.718 15.9309 16.69C15.9589 16.662 15.9929 16.648 16.0329 16.648H17.4669C17.5109 16.648 17.5449 16.662 17.5689 16.69C17.5969 16.718 17.6109 16.754 17.6109 16.798V17.428C17.6109 17.764 17.5369 18.054 17.3889 18.298C17.2449 18.542 17.0369 18.73 16.7649 18.862C16.4969 18.994 16.1789 19.06 15.8109 19.06ZM13 4.38V8.17C13 8.6284 13.3716 9 13.83 9H17.62C17.769 9.00464 17.9055 8.91691 17.9632 8.7794C18.0208 8.64189 17.9878 8.48306 17.88 8.38L13.62 4.12C13.5169 4.01224 13.3581 3.97916 13.2206 4.03683C13.0831 4.09449 12.9954 4.23096 13 4.38Z" fill="#787C89"/>
</svg>
