<svg width="24" height="24" viewBox="0 0 24 24" fill="none" xmlns="http://www.w3.org/2000/svg">
<path fill-rule="evenodd" clip-rule="evenodd" d="M14.47 2.47C14.1674 2.16826 13.7573 1.99918 13.33 2H6C4.89543 2 4 2.89543 4 4V20C4 21.1046 4.89543 22 6 22H18C19.1046 22 20 21.1046 20 20V8.67C20.0008 8.24269 19.8317 7.83257 19.53 7.53L14.47 2.47ZM7.23612 19C7.20946 19 7.18679 18.9907 7.16812 18.972C7.14946 18.9533 7.14013 18.9307 7.14013 18.904V16.3C7.14013 16.2707 7.14946 16.2467 7.16812 16.228C7.18679 16.2093 7.20946 16.2 7.23612 16.2H8.30813C8.51613 16.2 8.69746 16.2333 8.85213 16.3C9.00679 16.364 9.12679 16.4627 9.21212 16.596C9.29746 16.7267 9.34013 16.8907 9.34013 17.088C9.34013 17.288 9.29746 17.4533 9.21212 17.584C9.12679 17.712 9.00679 17.808 8.85213 17.872C8.69746 17.936 8.51613 17.968 8.30813 17.968H7.71213V18.904C7.71213 18.9307 7.70279 18.9533 7.68412 18.972C7.66813 18.9907 7.64546 19 7.61613 19H7.23612ZM7.70412 17.524H8.28813C8.44279 17.524 8.56146 17.488 8.64412 17.416C8.72679 17.3413 8.76813 17.232 8.76813 17.088C8.76813 16.9547 8.72946 16.848 8.65213 16.768C8.57479 16.6853 8.45346 16.644 8.28813 16.644H7.70412V17.524ZM9.87284 19C9.84618 19 9.82351 18.9907 9.80484 18.972C9.78618 18.9533 9.77684 18.9307 9.77684 18.904V16.3C9.77684 16.2707 9.78618 16.2467 9.80484 16.228C9.82351 16.2093 9.84618 16.2 9.87284 16.2H10.9448C11.1528 16.2 11.3342 16.2333 11.4888 16.3C11.6435 16.364 11.7635 16.4627 11.8488 16.596C11.9342 16.7267 11.9768 16.8907 11.9768 17.088C11.9768 17.288 11.9342 17.4533 11.8488 17.584C11.7635 17.712 11.6435 17.808 11.4888 17.872C11.3342 17.936 11.1528 17.968 10.9448 17.968H10.3488V18.904C10.3488 18.9307 10.3395 18.9533 10.3208 18.972C10.3048 18.9907 10.2822 19 10.2528 19H9.87284ZM10.3408 17.524H10.9248C11.0795 17.524 11.1982 17.488 11.2808 17.416C11.3635 17.3413 11.4048 17.232 11.4048 17.088C11.4048 16.9547 11.3662 16.848 11.2888 16.768C11.2115 16.6853 11.0902 16.644 10.9248 16.644H10.3408V17.524ZM13.1256 19C13.0989 19 13.0762 18.9907 13.0576 18.972C13.0389 18.9533 13.0296 18.9307 13.0296 18.904V16.692H12.2896C12.2629 16.692 12.2402 16.6827 12.2216 16.664C12.2029 16.6453 12.1936 16.6227 12.1936 16.596V16.3C12.1936 16.2707 12.2029 16.2467 12.2216 16.228C12.2402 16.2093 12.2629 16.2 12.2896 16.2H14.3296C14.3589 16.2 14.3829 16.2093 14.4016 16.228C14.4202 16.2467 14.4296 16.2707 14.4296 16.3V16.596C14.4296 16.6227 14.4202 16.6453 14.4016 16.664C14.3829 16.6827 14.3589 16.692 14.3296 16.692H13.5936V18.904C13.5936 18.9307 13.5842 18.9533 13.5656 18.972C13.5469 18.9907 13.5229 19 13.4936 19H13.1256ZM14.6794 19C14.6554 19 14.6354 18.992 14.6194 18.976C14.6034 18.96 14.5954 18.94 14.5954 18.916C14.5954 18.908 14.5968 18.9 14.5994 18.892L14.6074 18.868L15.5034 17.572L14.6634 16.332C14.6554 16.316 14.6514 16.3 14.6514 16.284C14.6514 16.26 14.6594 16.24 14.6754 16.224C14.6914 16.208 14.7101 16.2 14.7314 16.2H15.1434C15.1754 16.2 15.2008 16.208 15.2194 16.224C15.2381 16.24 15.2541 16.2573 15.2674 16.276L15.8554 17.14L16.4474 16.276C16.4581 16.2573 16.4728 16.24 16.4914 16.224C16.5128 16.208 16.5394 16.2 16.5714 16.2H16.9594C16.9834 16.2 17.0034 16.208 17.0194 16.224C17.0354 16.24 17.0434 16.26 17.0434 16.284C17.0434 16.3 17.0381 16.316 17.0274 16.332L16.1914 17.572L17.0874 18.868C17.0928 18.876 17.0968 18.884 17.0994 18.892C17.1021 18.9 17.1034 18.908 17.1034 18.916C17.1034 18.94 17.0941 18.96 17.0754 18.976C17.0594 18.992 17.0408 19 17.0194 19H16.5954C16.5634 19 16.5381 18.992 16.5194 18.976C16.5008 18.96 16.4861 18.944 16.4754 18.928L15.8354 18.024L15.2074 18.928C15.1968 18.944 15.1821 18.96 15.1634 18.976C15.1448 18.992 15.1181 19 15.0834 19H14.6794ZM13 4.38V8.17C13 8.6284 13.3716 9 13.83 9H17.62C17.769 9.00464 17.9055 8.91691 17.9632 8.7794C18.0208 8.64189 17.9878 8.48306 17.88 8.38L13.62 4.12C13.5169 4.01224 13.3581 3.97916 13.2206 4.03683C13.0831 4.09449 12.9954 4.23096 13 4.38Z" fill="#787C89"/>
</svg>
