<svg width="24" height="24" viewBox="0 0 24 24" fill="none" xmlns="http://www.w3.org/2000/svg">
<path fill-rule="evenodd" clip-rule="evenodd" d="M14.47 2.47C14.1674 2.16826 13.7573 1.99918 13.33 2H6C4.89543 2 4 2.89543 4 4V20C4 21.1046 4.89543 22 6 22H18C19.1046 22 20 21.1046 20 20V8.67C20.0008 8.24269 19.8317 7.83257 19.53 7.53L14.47 2.47ZM6.91278 19C6.87278 19 6.83878 18.986 6.81078 18.958C6.78278 18.93 6.76878 18.896 6.76878 18.856V14.95C6.76878 14.906 6.78278 14.87 6.81078 14.842C6.83878 14.814 6.87278 14.8 6.91278 14.8H8.52078C8.83278 14.8 9.10478 14.85 9.33678 14.95C9.56878 15.046 9.74878 15.194 9.87678 15.394C10.0048 15.59 10.0688 15.836 10.0688 16.132C10.0688 16.432 10.0048 16.68 9.87678 16.876C9.74878 17.068 9.56878 17.212 9.33678 17.308C9.10478 17.404 8.83278 17.452 8.52078 17.452H7.62678V18.856C7.62678 18.896 7.61278 18.93 7.58478 18.958C7.56078 18.986 7.52678 19 7.48278 19H6.91278ZM7.61478 16.786H8.49078C8.72278 16.786 8.90078 16.732 9.02478 16.624C9.14878 16.512 9.21078 16.348 9.21078 16.132C9.21078 15.932 9.15278 15.772 9.03678 15.652C8.92078 15.528 8.73878 15.466 8.49078 15.466H7.61478V16.786ZM10.8679 19C10.8279 19 10.7939 18.986 10.7659 18.958C10.7379 18.93 10.7239 18.896 10.7239 18.856V14.95C10.7239 14.906 10.7379 14.87 10.7659 14.842C10.7939 14.814 10.8279 14.8 10.8679 14.8H11.3299C11.3859 14.8 11.4259 14.814 11.4499 14.842C11.4779 14.866 11.4959 14.884 11.5039 14.896L13.2319 17.584V14.95C13.2319 14.906 13.2439 14.87 13.2679 14.842C13.2959 14.814 13.3319 14.8 13.3759 14.8H13.8799C13.9239 14.8 13.9599 14.814 13.9879 14.842C14.0159 14.87 14.0299 14.906 14.0299 14.95V18.85C14.0299 18.894 14.0159 18.93 13.9879 18.958C13.9599 18.986 13.9259 19 13.8859 19H13.4179C13.3619 19 13.3219 18.986 13.2979 18.958C13.2739 18.93 13.2559 18.912 13.2439 18.904L11.5219 16.276V18.856C11.5219 18.896 11.5079 18.93 11.4799 18.958C11.4519 18.986 11.4159 19 11.3719 19H10.8679ZM16.598 19.06C16.23 19.06 15.916 18.996 15.656 18.868C15.4 18.74 15.2 18.556 15.056 18.316C14.916 18.072 14.84 17.782 14.828 17.446C14.824 17.274 14.822 17.09 14.822 16.894C14.822 16.694 14.824 16.506 14.828 16.33C14.84 15.998 14.916 15.714 15.056 15.478C15.2 15.242 15.402 15.06 15.662 14.932C15.926 14.804 16.238 14.74 16.598 14.74C16.89 14.74 17.146 14.78 17.366 14.86C17.586 14.936 17.768 15.036 17.912 15.16C18.06 15.28 18.17 15.41 18.242 15.55C18.318 15.69 18.358 15.82 18.362 15.94C18.366 15.976 18.356 16.006 18.332 16.03C18.308 16.054 18.276 16.066 18.236 16.066H17.618C17.578 16.066 17.548 16.058 17.528 16.042C17.508 16.026 17.49 16.002 17.474 15.97C17.442 15.886 17.392 15.804 17.324 15.724C17.256 15.64 17.164 15.57 17.048 15.514C16.932 15.458 16.782 15.43 16.598 15.43C16.326 15.43 16.108 15.502 15.944 15.646C15.784 15.79 15.698 16.028 15.686 16.36C15.674 16.708 15.674 17.06 15.686 17.416C15.698 17.756 15.786 18 15.95 18.148C16.118 18.296 16.338 18.37 16.61 18.37C16.79 18.37 16.95 18.338 17.09 18.274C17.234 18.21 17.346 18.11 17.426 17.974C17.51 17.838 17.552 17.664 17.552 17.452V17.266H16.82C16.78 17.266 16.746 17.252 16.718 17.224C16.69 17.196 16.676 17.16 16.676 17.116V16.798C16.676 16.754 16.69 16.718 16.718 16.69C16.746 16.662 16.78 16.648 16.82 16.648H18.254C18.298 16.648 18.332 16.662 18.356 16.69C18.384 16.718 18.398 16.754 18.398 16.798V17.428C18.398 17.764 18.324 18.054 18.176 18.298C18.032 18.542 17.824 18.73 17.552 18.862C17.284 18.994 16.966 19.06 16.598 19.06ZM13 4.38V8.17C13 8.6284 13.3716 9 13.83 9H17.62C17.769 9.00464 17.9055 8.91691 17.9632 8.7794C18.0208 8.64189 17.9878 8.48306 17.88 8.38L13.62 4.12C13.5169 4.01224 13.3581 3.97916 13.2206 4.03683C13.0831 4.09449 12.9954 4.23096 13 4.38Z" fill="#787C89"/>
</svg>
