<svg width="24" height="24" viewBox="0 0 24 24" fill="none" xmlns="http://www.w3.org/2000/svg">
<path fill-rule="evenodd" clip-rule="evenodd" d="M14.47 2.47C14.1674 2.16826 13.7573 1.99918 13.33 2H6C4.89543 2 4 2.89543 4 4V20C4 21.1046 4.89543 22 6 22H18C19.1046 22 20 21.1046 20 20V8.67C20.0008 8.24269 19.8317 7.83257 19.53 7.53L14.47 2.47ZM6.5758 19C6.5398 19 6.5098 18.988 6.4858 18.964C6.4618 18.94 6.4498 18.91 6.4498 18.874C6.4498 18.862 6.4518 18.85 6.4558 18.838L6.4678 18.802L7.8118 16.858L6.5518 14.998C6.5398 14.974 6.5338 14.95 6.5338 14.926C6.5338 14.89 6.5458 14.86 6.5698 14.836C6.5938 14.812 6.6218 14.8 6.6538 14.8H7.2718C7.3198 14.8 7.3578 14.812 7.3858 14.836C7.4138 14.86 7.4378 14.886 7.4578 14.914L8.3398 16.21L9.2278 14.914C9.2438 14.886 9.2658 14.86 9.2938 14.836C9.3258 14.812 9.3658 14.8 9.4138 14.8H9.9958C10.0318 14.8 10.0618 14.812 10.0858 14.836C10.1098 14.86 10.1218 14.89 10.1218 14.926C10.1218 14.95 10.1138 14.974 10.0978 14.998L8.8438 16.858L10.1878 18.802C10.1958 18.814 10.2018 18.826 10.2058 18.838C10.2098 18.85 10.2118 18.862 10.2118 18.874C10.2118 18.91 10.1978 18.94 10.1698 18.964C10.1458 18.988 10.1178 19 10.0858 19H9.4498C9.4018 19 9.3638 18.988 9.3358 18.964C9.3078 18.94 9.2858 18.916 9.2698 18.892L8.3098 17.536L7.3678 18.892C7.3518 18.916 7.3298 18.94 7.3018 18.964C7.2738 18.988 7.2338 19 7.1818 19H6.5758ZM10.9325 19C10.8885 19 10.8525 18.986 10.8245 18.958C10.7965 18.93 10.7825 18.896 10.7825 18.856V14.95C10.7825 14.906 10.7965 14.87 10.8245 14.842C10.8525 14.814 10.8885 14.8 10.9325 14.8H11.4065C11.4625 14.8 11.5045 14.816 11.5325 14.848C11.5605 14.876 11.5785 14.898 11.5865 14.914L12.7445 17.074L13.9145 14.914C13.9225 14.898 13.9405 14.876 13.9685 14.848C13.9965 14.816 14.0385 14.8 14.0945 14.8H14.5625C14.6065 14.8 14.6425 14.814 14.6705 14.842C14.6985 14.87 14.7125 14.906 14.7125 14.95V18.856C14.7125 18.896 14.6985 18.93 14.6705 18.958C14.6425 18.986 14.6065 19 14.5625 19H14.0585C14.0145 19 13.9785 18.986 13.9505 18.958C13.9265 18.93 13.9145 18.896 13.9145 18.856V16.258L13.0745 17.86C13.0545 17.896 13.0285 17.928 12.9965 17.956C12.9645 17.98 12.9225 17.992 12.8705 17.992H12.6245C12.5685 17.992 12.5245 17.98 12.4925 17.956C12.4645 17.928 12.4405 17.896 12.4205 17.86L11.5805 16.258V18.856C11.5805 18.896 11.5665 18.93 11.5385 18.958C11.5105 18.986 11.4765 19 11.4365 19H10.9325ZM15.7897 19C15.7497 19 15.7157 18.986 15.6877 18.958C15.6597 18.93 15.6457 18.896 15.6457 18.856V14.944C15.6457 14.904 15.6597 14.87 15.6877 14.842C15.7157 14.814 15.7497 14.8 15.7897 14.8H16.3477C16.3877 14.8 16.4217 14.814 16.4497 14.842C16.4777 14.87 16.4917 14.904 16.4917 14.944V18.286H18.3937C18.4377 18.286 18.4737 18.3 18.5017 18.328C18.5297 18.356 18.5437 18.392 18.5437 18.436V18.856C18.5437 18.896 18.5297 18.93 18.5017 18.958C18.4737 18.986 18.4377 19 18.3937 19H15.7897ZM13 4.38V8.17C13 8.6284 13.3716 9 13.83 9H17.62C17.769 9.00464 17.9055 8.91691 17.9632 8.7794C18.0208 8.64189 17.9878 8.48306 17.88 8.38L13.62 4.12C13.5169 4.01224 13.3581 3.97916 13.2206 4.03683C13.0831 4.09449 12.9954 4.23096 13 4.38Z" fill="#787C89"/>
</svg>
