<svg width="24" height="24" viewBox="0 0 24 24" fill="none" xmlns="http://www.w3.org/2000/svg">
<path fill-rule="evenodd" clip-rule="evenodd" d="M14.47 2.47C14.1674 2.16826 13.7573 1.99918 13.33 2H6C4.89543 2 4 2.89543 4 4V20C4 21.1046 4.89543 22 6 22H18C19.1046 22 20 21.1046 20 20V8.67C20.0008 8.24269 19.8317 7.83257 19.53 7.53L14.47 2.47ZM6.58263 19C6.54663 19 6.51663 18.988 6.49263 18.964C6.46863 18.94 6.45663 18.91 6.45663 18.874C6.45663 18.862 6.45863 18.85 6.46263 18.838L6.47463 18.802L7.81863 16.858L6.55863 14.998C6.54663 14.974 6.54063 14.95 6.54063 14.926C6.54063 14.89 6.55263 14.86 6.57663 14.836C6.60063 14.812 6.62863 14.8 6.66063 14.8H7.27863C7.32663 14.8 7.36463 14.812 7.39263 14.836C7.42063 14.86 7.44463 14.886 7.46463 14.914L8.34663 16.21L9.23463 14.914C9.25063 14.886 9.27263 14.86 9.30063 14.836C9.33263 14.812 9.37263 14.8 9.42063 14.8H10.0026C10.0386 14.8 10.0686 14.812 10.0926 14.836C10.1166 14.86 10.1286 14.89 10.1286 14.926C10.1286 14.95 10.1206 14.974 10.1046 14.998L8.85063 16.858L10.1946 18.802C10.2026 18.814 10.2086 18.826 10.2126 18.838C10.2166 18.85 10.2186 18.862 10.2186 18.874C10.2186 18.91 10.2046 18.94 10.1766 18.964C10.1526 18.988 10.1246 19 10.0926 19H9.45663C9.40863 19 9.37063 18.988 9.34263 18.964C9.31463 18.94 9.29263 18.916 9.27663 18.892L8.31663 17.536L7.37463 18.892C7.35863 18.916 7.33663 18.94 7.30863 18.964C7.28063 18.988 7.24063 19 7.18863 19H6.58263ZM10.9333 19C10.8933 19 10.8593 18.986 10.8313 18.958C10.8033 18.93 10.7893 18.896 10.7893 18.856V14.944C10.7893 14.904 10.8033 14.87 10.8313 14.842C10.8593 14.814 10.8933 14.8 10.9333 14.8H11.4913C11.5313 14.8 11.5653 14.814 11.5933 14.842C11.6213 14.87 11.6353 14.904 11.6353 14.944V18.286H13.5373C13.5813 18.286 13.6173 18.3 13.6453 18.328C13.6733 18.356 13.6873 18.392 13.6873 18.436V18.856C13.6873 18.896 13.6733 18.93 13.6453 18.958C13.6173 18.986 13.5813 19 13.5373 19H10.9333ZM15.7278 19.06C15.3558 19.06 15.0438 19.006 14.7918 18.898C14.5438 18.786 14.3538 18.642 14.2218 18.466C14.0938 18.286 14.0258 18.098 14.0178 17.902C14.0178 17.866 14.0298 17.836 14.0538 17.812C14.0778 17.788 14.1078 17.776 14.1438 17.776H14.6778C14.7298 17.776 14.7678 17.788 14.7918 17.812C14.8198 17.832 14.8438 17.858 14.8638 17.89C14.8878 17.966 14.9338 18.042 15.0018 18.118C15.0698 18.19 15.1618 18.25 15.2778 18.298C15.3978 18.346 15.5478 18.37 15.7278 18.37C16.0158 18.37 16.2298 18.322 16.3698 18.226C16.5138 18.13 16.5858 18 16.5858 17.836C16.5858 17.72 16.5478 17.628 16.4718 17.56C16.3958 17.488 16.2778 17.424 16.1178 17.368C15.9618 17.308 15.7538 17.246 15.4938 17.182C15.1938 17.11 14.9418 17.024 14.7378 16.924C14.5378 16.82 14.3858 16.69 14.2818 16.534C14.1818 16.378 14.1318 16.18 14.1318 15.94C14.1318 15.708 14.1938 15.502 14.3178 15.322C14.4458 15.142 14.6258 15 14.8578 14.896C15.0938 14.792 15.3738 14.74 15.6978 14.74C15.9578 14.74 16.1878 14.776 16.3878 14.848C16.5878 14.916 16.7538 15.008 16.8858 15.124C17.0178 15.236 17.1178 15.358 17.1858 15.49C17.2578 15.618 17.2958 15.744 17.2998 15.868C17.2998 15.9 17.2878 15.93 17.2638 15.958C17.2438 15.982 17.2138 15.994 17.1738 15.994H16.6158C16.5838 15.994 16.5518 15.986 16.5198 15.97C16.4878 15.954 16.4618 15.924 16.4418 15.88C16.4178 15.756 16.3398 15.65 16.2078 15.562C16.0758 15.474 15.9058 15.43 15.6978 15.43C15.4818 15.43 15.3078 15.47 15.1758 15.55C15.0438 15.63 14.9778 15.754 14.9778 15.922C14.9778 16.034 15.0098 16.128 15.0738 16.204C15.1418 16.276 15.2478 16.34 15.3918 16.396C15.5398 16.452 15.7338 16.512 15.9738 16.576C16.3138 16.652 16.5918 16.74 16.8078 16.84C17.0238 16.94 17.1818 17.068 17.2818 17.224C17.3818 17.376 17.4318 17.57 17.4318 17.806C17.4318 18.07 17.3598 18.296 17.2158 18.484C17.0758 18.668 16.8778 18.81 16.6218 18.91C16.3658 19.01 16.0678 19.06 15.7278 19.06ZM13 4.38V8.17C13 8.6284 13.3716 9 13.83 9H17.62C17.769 9.00464 17.9055 8.91691 17.9632 8.7794C18.0208 8.64189 17.9878 8.48306 17.88 8.38L13.62 4.12C13.5169 4.01224 13.3581 3.97916 13.2206 4.03683C13.0831 4.09449 12.9954 4.23096 13 4.38Z" fill="#787C89"/>
</svg>
