<svg width="24" height="24" viewBox="0 0 24 24" fill="none" xmlns="http://www.w3.org/2000/svg">
<path fill-rule="evenodd" clip-rule="evenodd" d="M14.47 2.47L19.53 7.53C19.8317 7.83257 20.0008 8.24269 20 8.67V20C20 21.1046 19.1046 22 18 22H6C4.89543 22 4 21.1046 4 20V4C4 2.89543 4.89543 2 6 2H13.33C13.7573 1.99918 14.1674 2.16826 14.47 2.47ZM15 17.67C15.5523 17.67 16 17.2223 16 16.67C16 16.1177 15.5523 15.67 15 15.67H9C8.44772 15.67 8 16.1177 8 16.67C8 17.2223 8.44772 17.67 9 17.67H15ZM15 14H9C8.44772 14 8 13.5523 8 13C8 12.4477 8.44772 12 9 12H15C15.5523 12 16 12.4477 16 13C16 13.5523 15.5523 14 15 14ZM13.83 9H17.62C17.6275 9.00024 17.635 9.00024 17.6425 9C17.7826 8.99564 17.9084 8.90996 17.9632 8.7794C18.0208 8.64189 17.9878 8.48306 17.88 8.38L13.62 4.12C13.5169 4.01224 13.3581 3.97916 13.2206 4.03683C13.0831 4.09449 12.9954 4.23096 13 4.38V8.17C13 8.6284 13.3716 9 13.83 9Z" fill="#787C89"/>
</svg>
