<svg width="24" height="24" viewBox="0 0 24 24" fill="none" xmlns="http://www.w3.org/2000/svg">
<path fill-rule="evenodd" clip-rule="evenodd" d="M14.47 2.47C14.1674 2.16826 13.7573 1.99918 13.33 2H6C4.89543 2 4 2.89543 4 4V20C4 21.1046 4.89543 22 6 22H18C19.1046 22 20 21.1046 20 20V8.67C20.0008 8.24269 19.8317 7.83257 19.53 7.53L14.47 2.47ZM6.72333 19C6.68333 19 6.64933 18.986 6.62133 18.958C6.59333 18.93 6.57933 18.896 6.57933 18.856V14.95C6.57933 14.906 6.59333 14.87 6.62133 14.842C6.64933 14.814 6.68333 14.8 6.72333 14.8H8.33133C8.64333 14.8 8.91533 14.85 9.14733 14.95C9.37933 15.046 9.55933 15.194 9.68733 15.394C9.81533 15.59 9.87933 15.836 9.87933 16.132C9.87933 16.432 9.81533 16.68 9.68733 16.876C9.55933 17.068 9.37933 17.212 9.14733 17.308C8.91533 17.404 8.64333 17.452 8.33133 17.452H7.43733V18.856C7.43733 18.896 7.42333 18.93 7.39533 18.958C7.37133 18.986 7.33733 19 7.29333 19H6.72333ZM7.42533 16.786H8.30133C8.53333 16.786 8.71133 16.732 8.83533 16.624C8.95933 16.512 9.02133 16.348 9.02133 16.132C9.02133 15.932 8.96333 15.772 8.84733 15.652C8.73133 15.528 8.54933 15.466 8.30133 15.466H7.42533V16.786ZM10.6784 19C10.6384 19 10.6044 18.986 10.5764 18.958C10.5484 18.93 10.5344 18.896 10.5344 18.856V14.95C10.5344 14.906 10.5484 14.87 10.5764 14.842C10.6044 14.814 10.6384 14.8 10.6784 14.8H12.1424C12.5464 14.8 12.8784 14.862 13.1384 14.986C13.4024 15.11 13.6004 15.294 13.7324 15.538C13.8684 15.782 13.9384 16.08 13.9424 16.432C13.9504 16.608 13.9544 16.764 13.9544 16.9C13.9544 17.036 13.9504 17.19 13.9424 17.362C13.9344 17.734 13.8664 18.042 13.7384 18.286C13.6104 18.526 13.4164 18.706 13.1564 18.826C12.9004 18.942 12.5724 19 12.1724 19H10.6784ZM11.3684 18.31H12.1424C12.3664 18.31 12.5484 18.278 12.6884 18.214C12.8284 18.15 12.9304 18.048 12.9944 17.908C13.0624 17.764 13.0984 17.576 13.1024 17.344C13.1064 17.224 13.1084 17.12 13.1084 17.032C13.1124 16.94 13.1124 16.85 13.1084 16.762C13.1084 16.67 13.1064 16.566 13.1024 16.45C13.0944 16.122 13.0124 15.88 12.8564 15.724C12.7004 15.568 12.4524 15.49 12.1124 15.49H11.3684V18.31ZM14.8972 19C14.8572 19 14.8232 18.986 14.7952 18.958C14.7672 18.93 14.7532 18.896 14.7532 18.856V14.95C14.7532 14.906 14.7672 14.87 14.7952 14.842C14.8232 14.814 14.8572 14.8 14.8972 14.8H17.5012C17.5452 14.8 17.5812 14.814 17.6092 14.842C17.6372 14.87 17.6512 14.906 17.6512 14.95V15.37C17.6512 15.414 17.6372 15.45 17.6092 15.478C17.5812 15.502 17.5452 15.514 17.5012 15.514H15.5752V16.654H17.3812C17.4252 16.654 17.4612 16.668 17.4892 16.696C17.5172 16.724 17.5312 16.76 17.5312 16.804V17.224C17.5312 17.264 17.5172 17.298 17.4892 17.326C17.4612 17.354 17.4252 17.368 17.3812 17.368H15.5752V18.856C15.5752 18.896 15.5612 18.93 15.5332 18.958C15.5052 18.986 15.4692 19 15.4252 19H14.8972ZM13 4.38V8.17C13 8.6284 13.3716 9 13.83 9H17.62C17.769 9.00464 17.9055 8.91691 17.9632 8.7794C18.0208 8.64189 17.9878 8.48306 17.88 8.38L13.62 4.12C13.5169 4.01224 13.3581 3.97916 13.2206 4.03683C13.0831 4.09449 12.9954 4.23096 13 4.38Z" fill="#787C89"/>
</svg>
