<svg width="24" height="24" viewBox="0 0 24 24" fill="none" xmlns="http://www.w3.org/2000/svg">
<path fill-rule="evenodd" clip-rule="evenodd" d="M14.47 2.47C14.1674 2.16826 13.7573 1.99918 13.33 2H6C4.89543 2 4 2.89543 4 4V20C4 21.1046 4.89543 22 6 22H18C19.1046 22 20 21.1046 20 20V8.67C20.0008 8.24269 19.8317 7.83257 19.53 7.53L14.47 2.47ZM7.10028 19C7.06028 19 7.02628 18.986 6.99828 18.958C6.97028 18.93 6.95628 18.896 6.95628 18.856V14.95C6.95628 14.906 6.97028 14.87 6.99828 14.842C7.02628 14.814 7.06028 14.8 7.10028 14.8H8.70828C9.02028 14.8 9.29228 14.85 9.52428 14.95C9.75628 15.046 9.93628 15.194 10.0643 15.394C10.1923 15.59 10.2563 15.836 10.2563 16.132C10.2563 16.432 10.1923 16.68 10.0643 16.876C9.93628 17.068 9.75628 17.212 9.52428 17.308C9.29228 17.404 9.02028 17.452 8.70828 17.452H7.81428V18.856C7.81428 18.896 7.80028 18.93 7.77228 18.958C7.74828 18.986 7.71428 19 7.67028 19H7.10028ZM7.80228 16.786H8.67828C8.91028 16.786 9.08828 16.732 9.21228 16.624C9.33628 16.512 9.39828 16.348 9.39828 16.132C9.39828 15.932 9.34028 15.772 9.22428 15.652C9.10828 15.528 8.92628 15.466 8.67828 15.466H7.80228V16.786ZM12.3694 19.06C11.9974 19.06 11.6854 19.006 11.4334 18.898C11.1854 18.786 10.9954 18.642 10.8634 18.466C10.7354 18.286 10.6674 18.098 10.6594 17.902C10.6594 17.866 10.6714 17.836 10.6954 17.812C10.7194 17.788 10.7494 17.776 10.7854 17.776H11.3194C11.3714 17.776 11.4094 17.788 11.4334 17.812C11.4614 17.832 11.4854 17.858 11.5054 17.89C11.5294 17.966 11.5754 18.042 11.6434 18.118C11.7114 18.19 11.8034 18.25 11.9194 18.298C12.0394 18.346 12.1894 18.37 12.3694 18.37C12.6574 18.37 12.8714 18.322 13.0114 18.226C13.1554 18.13 13.2274 18 13.2274 17.836C13.2274 17.72 13.1894 17.628 13.1134 17.56C13.0374 17.488 12.9194 17.424 12.7594 17.368C12.6034 17.308 12.3954 17.246 12.1354 17.182C11.8354 17.11 11.5834 17.024 11.3794 16.924C11.1794 16.82 11.0274 16.69 10.9234 16.534C10.8234 16.378 10.7734 16.18 10.7734 15.94C10.7734 15.708 10.8354 15.502 10.9594 15.322C11.0874 15.142 11.2674 15 11.4994 14.896C11.7354 14.792 12.0154 14.74 12.3394 14.74C12.5994 14.74 12.8294 14.776 13.0294 14.848C13.2294 14.916 13.3954 15.008 13.5274 15.124C13.6594 15.236 13.7594 15.358 13.8274 15.49C13.8994 15.618 13.9374 15.744 13.9414 15.868C13.9414 15.9 13.9294 15.93 13.9054 15.958C13.8854 15.982 13.8554 15.994 13.8154 15.994H13.2574C13.2254 15.994 13.1934 15.986 13.1614 15.97C13.1294 15.954 13.1034 15.924 13.0834 15.88C13.0594 15.756 12.9814 15.65 12.8494 15.562C12.7174 15.474 12.5474 15.43 12.3394 15.43C12.1234 15.43 11.9494 15.47 11.8174 15.55C11.6854 15.63 11.6194 15.754 11.6194 15.922C11.6194 16.034 11.6514 16.128 11.7154 16.204C11.7834 16.276 11.8894 16.34 12.0334 16.396C12.1814 16.452 12.3754 16.512 12.6154 16.576C12.9554 16.652 13.2334 16.74 13.4494 16.84C13.6654 16.94 13.8234 17.068 13.9234 17.224C14.0234 17.376 14.0734 17.57 14.0734 17.806C14.0734 18.07 14.0014 18.296 13.8574 18.484C13.7174 18.668 13.5194 18.81 13.2634 18.91C13.0074 19.01 12.7094 19.06 12.3694 19.06ZM14.905 19C14.865 19 14.831 18.986 14.803 18.958C14.775 18.93 14.761 18.896 14.761 18.856V14.95C14.761 14.906 14.775 14.87 14.803 14.842C14.831 14.814 14.865 14.8 14.905 14.8H16.369C16.773 14.8 17.105 14.862 17.365 14.986C17.629 15.11 17.827 15.294 17.959 15.538C18.095 15.782 18.165 16.08 18.169 16.432C18.177 16.608 18.181 16.764 18.181 16.9C18.181 17.036 18.177 17.19 18.169 17.362C18.161 17.734 18.093 18.042 17.965 18.286C17.837 18.526 17.643 18.706 17.383 18.826C17.127 18.942 16.799 19 16.399 19H14.905ZM15.595 18.31H16.369C16.593 18.31 16.775 18.278 16.915 18.214C17.055 18.15 17.157 18.048 17.221 17.908C17.289 17.764 17.325 17.576 17.329 17.344C17.333 17.224 17.335 17.12 17.335 17.032C17.339 16.94 17.339 16.85 17.335 16.762C17.335 16.67 17.333 16.566 17.329 16.45C17.321 16.122 17.239 15.88 17.083 15.724C16.927 15.568 16.679 15.49 16.339 15.49H15.595V18.31ZM13 4.38V8.17C13 8.6284 13.3716 9 13.83 9H17.62C17.769 9.00464 17.9055 8.91691 17.9632 8.7794C18.0208 8.64189 17.9878 8.48306 17.88 8.38L13.62 4.12C13.5169 4.01224 13.3581 3.97916 13.2206 4.03683C13.0831 4.09449 12.9954 4.23096 13 4.38Z" fill="#787C89"/>
</svg>
