<svg width="24" height="24" viewBox="0 0 24 24" fill="none" xmlns="http://www.w3.org/2000/svg">
<path fill-rule="evenodd" clip-rule="evenodd" d="M13.33 2C13.7573 1.99918 14.1674 2.16826 14.47 2.47L19.53 7.53C19.8317 7.83257 20.0008 8.24269 20 8.67V20C20 21.1046 19.1046 22 18 22H6C4.89543 22 4 21.1046 4 20V4C4 2.89543 4.89543 2 6 2H13.33ZM13.2206 4.03683C13.0831 4.09449 12.9954 4.23096 13 4.38V8.17C13 8.6284 13.3716 9 13.83 9H17.62C17.769 9.00464 17.9055 8.91691 17.9632 8.7794C18.0208 8.64189 17.9878 8.48306 17.88 8.38L13.62 4.12C13.5169 4.01224 13.3581 3.97916 13.2206 4.03683ZM13.4142 12.1716C13.8047 11.7811 14.4379 11.7811 14.8284 12.1716C15.219 12.5621 15.219 13.1953 14.8284 13.5858L13.4142 15L14.8284 16.4142C15.219 16.8047 15.219 17.4379 14.8284 17.8284C14.4379 18.219 13.8047 18.219 13.4142 17.8284L12 16.4142L10.5858 17.8284C10.1953 18.219 9.5621 18.219 9.17157 17.8284C8.78105 17.4379 8.78105 16.8047 9.17157 16.4142L10.5858 15L9.17157 13.5858C8.78105 13.1953 8.78105 12.5621 9.17157 12.1716C9.5621 11.7811 10.1953 11.7811 10.5858 12.1716L12 13.5858L13.4142 12.1716Z" fill="#787C89"/>
</svg>
