<svg width="24" height="24" viewBox="0 0 24 24" fill="none" xmlns="http://www.w3.org/2000/svg">
<path fill-rule="evenodd" clip-rule="evenodd" d="M14.47 2.47C14.1674 2.16826 13.7573 1.99918 13.33 2H6C4.89543 2 4 2.89543 4 4V20C4 21.1046 4.89543 22 6 22H18C19.1046 22 20 21.1046 20 20V8.67C20.0008 8.24269 19.8317 7.83257 19.53 7.53L14.47 2.47ZM8.28884 19.06C8.07284 19.06 7.86684 19.034 7.67084 18.982C7.47884 18.926 7.30684 18.842 7.15484 18.73C7.00284 18.618 6.88084 18.48 6.78884 18.316C6.70084 18.152 6.65484 17.958 6.65084 17.734C6.65084 17.698 6.66284 17.668 6.68684 17.644C6.71084 17.616 6.74084 17.602 6.77684 17.602H7.34684C7.39884 17.602 7.43684 17.616 7.46084 17.644C7.48884 17.672 7.51084 17.71 7.52684 17.758C7.54684 17.902 7.59284 18.02 7.66484 18.112C7.73684 18.2 7.82684 18.266 7.93484 18.31C8.04684 18.35 8.17084 18.37 8.30684 18.37C8.55884 18.37 8.75084 18.288 8.88284 18.124C9.01884 17.96 9.08684 17.732 9.08684 17.44V15.508H7.05284C7.00884 15.508 6.97284 15.494 6.94484 15.466C6.92084 15.438 6.90884 15.404 6.90884 15.364V14.944C6.90884 14.904 6.92084 14.87 6.94484 14.842C6.97284 14.814 7.00884 14.8 7.05284 14.8H9.79484C9.83884 14.8 9.87484 14.814 9.90284 14.842C9.93084 14.87 9.94484 14.906 9.94484 14.95V17.464C9.94484 17.796 9.87484 18.082 9.73484 18.322C9.59884 18.562 9.40684 18.746 9.15884 18.874C8.91484 18.998 8.62484 19.06 8.28884 19.06ZM10.9909 19C10.9509 19 10.9169 18.986 10.8889 18.958C10.8609 18.93 10.8469 18.896 10.8469 18.856V14.95C10.8469 14.906 10.8609 14.87 10.8889 14.842C10.9169 14.814 10.9509 14.8 10.9909 14.8H12.5989C12.9109 14.8 13.1829 14.85 13.4149 14.95C13.6469 15.046 13.8269 15.194 13.9549 15.394C14.0829 15.59 14.1469 15.836 14.1469 16.132C14.1469 16.432 14.0829 16.68 13.9549 16.876C13.8269 17.068 13.6469 17.212 13.4149 17.308C13.1829 17.404 12.9109 17.452 12.5989 17.452H11.7049V18.856C11.7049 18.896 11.6909 18.93 11.6629 18.958C11.6389 18.986 11.6049 19 11.5609 19H10.9909ZM11.6929 16.786H12.5689C12.8009 16.786 12.9789 16.732 13.1029 16.624C13.2269 16.512 13.2889 16.348 13.2889 16.132C13.2889 15.932 13.2309 15.772 13.1149 15.652C12.9989 15.528 12.8169 15.466 12.5689 15.466H11.6929V16.786ZM16.434 19.06C16.066 19.06 15.752 18.996 15.492 18.868C15.236 18.74 15.036 18.556 14.892 18.316C14.752 18.072 14.676 17.782 14.664 17.446C14.66 17.274 14.658 17.09 14.658 16.894C14.658 16.694 14.66 16.506 14.664 16.33C14.676 15.998 14.752 15.714 14.892 15.478C15.036 15.242 15.238 15.06 15.498 14.932C15.762 14.804 16.074 14.74 16.434 14.74C16.726 14.74 16.982 14.78 17.202 14.86C17.422 14.936 17.604 15.036 17.748 15.16C17.896 15.28 18.006 15.41 18.078 15.55C18.154 15.69 18.194 15.82 18.198 15.94C18.202 15.976 18.192 16.006 18.168 16.03C18.144 16.054 18.112 16.066 18.072 16.066H17.454C17.414 16.066 17.384 16.058 17.364 16.042C17.344 16.026 17.326 16.002 17.31 15.97C17.278 15.886 17.228 15.804 17.16 15.724C17.092 15.64 17 15.57 16.884 15.514C16.768 15.458 16.618 15.43 16.434 15.43C16.162 15.43 15.944 15.502 15.78 15.646C15.62 15.79 15.534 16.028 15.522 16.36C15.51 16.708 15.51 17.06 15.522 17.416C15.534 17.756 15.622 18 15.786 18.148C15.954 18.296 16.174 18.37 16.446 18.37C16.626 18.37 16.786 18.338 16.926 18.274C17.07 18.21 17.182 18.11 17.262 17.974C17.346 17.838 17.388 17.664 17.388 17.452V17.266H16.656C16.616 17.266 16.582 17.252 16.554 17.224C16.526 17.196 16.512 17.16 16.512 17.116V16.798C16.512 16.754 16.526 16.718 16.554 16.69C16.582 16.662 16.616 16.648 16.656 16.648H18.09C18.134 16.648 18.168 16.662 18.192 16.69C18.22 16.718 18.234 16.754 18.234 16.798V17.428C18.234 17.764 18.16 18.054 18.012 18.298C17.868 18.542 17.66 18.73 17.388 18.862C17.12 18.994 16.802 19.06 16.434 19.06ZM13 4.38V8.17C13 8.6284 13.3716 9 13.83 9H17.62C17.769 9.00464 17.9055 8.91691 17.9632 8.7794C18.0208 8.64189 17.9878 8.48306 17.88 8.38L13.62 4.12C13.5169 4.01224 13.3581 3.97916 13.2206 4.03683C13.0831 4.09449 12.9954 4.23096 13 4.38Z" fill="#787C89"/>
</svg>
