<svg width="24" height="24" viewBox="0 0 24 24" fill="none" xmlns="http://www.w3.org/2000/svg">
<path fill-rule="evenodd" clip-rule="evenodd" d="M12 16.35C11.5049 16.3466 11.031 16.1491 10.68 15.8L5.99997 11.15C5.53407 10.6857 5.39749 9.98461 5.65501 9.37935C5.91252 8.77408 6.51234 8.38633 7.16997 8.4H8.29997V5.7C8.29997 4.20883 9.5088 3 11 3H13C13.7161 3 14.4028 3.28446 14.9092 3.79081C15.4155 4.29716 15.7 4.98392 15.7 5.7V8.4H16.83C17.4876 8.38633 18.0874 8.77408 18.3449 9.37935C18.6024 9.98461 18.4659 10.6857 18 11.15L13.31 15.8C12.9639 16.1504 12.4924 16.3483 12 16.35ZM8.10997 10.35L12 14.29L15.89 10.4H13.7V5.7C13.7 5.3134 13.3866 5 13 5H11C10.6134 5 10.3 5.3134 10.3 5.7V10.4L8.10997 10.35Z" fill="#787C89"/>
<path d="M5.64997 18.88C5.06454 18.88 4.58997 19.3546 4.58997 19.94C4.58997 20.5254 5.06454 21 5.64997 21H18.35C18.9354 21 19.41 20.5254 19.41 19.94C19.41 19.3546 18.9354 18.88 18.35 18.88H5.64997Z" fill="#787C89"/>
</svg>
