<svg width="24" height="24" viewBox="0 0 24 24" fill="none" xmlns="http://www.w3.org/2000/svg">
<path fill-rule="evenodd" clip-rule="evenodd" d="M15.18 9.35H17.68C17.9718 9.34928 18.2351 9.52471 18.3469 9.79423C18.4586 10.0637 18.3967 10.3741 18.19 10.58L12.71 16.05C12.5222 16.2393 12.2667 16.3458 12 16.3458C11.7334 16.3458 11.4778 16.2393 11.29 16.05L5.81001 10.58C5.60335 10.3741 5.5414 10.0637 5.65315 9.79423C5.7649 9.52471 6.02825 9.34928 6.32001 9.35H8.82001V5C8.82001 3.89543 9.71544 3 10.82 3H13.18C14.2846 3 15.18 3.89543 15.18 5V9.35ZM4.8975 20.6925C4.69813 20.4931 4.58732 20.2219 4.59001 19.94C4.59001 19.6589 4.70169 19.3893 4.90048 19.1905C5.09927 18.9917 5.36888 18.88 5.65001 18.88H18.35C18.9354 18.88 19.41 19.3546 19.41 19.94C19.4127 20.2219 19.3019 20.4931 19.1025 20.6925C18.9031 20.8919 18.632 21.0027 18.35 21H5.65001C5.36807 21.0027 5.09688 20.8919 4.8975 20.6925Z" fill="#787C89"/>
</svg>
