<svg width="24" height="24" viewBox="0 0 24 24" fill="none" xmlns="http://www.w3.org/2000/svg">
<path d="M3 14.25C3 14.6642 3.33579 15 3.75 15H11.25V19.6275L9.83676 18.2197C9.54429 17.9284 9.07116 17.9288 8.77926 18.2207C8.48696 18.513 8.48696 18.987 8.77926 19.2793L11.2929 21.7929C11.6834 22.1834 12.3166 22.1834 12.7071 21.7929L15.2207 19.2793C15.513 18.987 15.513 18.513 15.2207 18.2207C14.9288 17.9288 14.4557 17.9284 14.1632 18.2197L12.75 19.6275V15H20.25C20.6642 15 21 14.6642 21 14.25C21 13.8358 20.6642 13.5 20.25 13.5H3.75C3.33579 13.5 3 13.8358 3 14.25Z" fill="#787C89"/>
<path d="M8.77926 4.72074C8.48696 5.01304 8.48696 5.48696 8.77926 5.77926C9.07116 6.07117 9.54429 6.07162 9.83676 5.78029L11.25 4.3725V9H3.75C3.33579 9 3 9.33579 3 9.75C3 10.1642 3.33579 10.5 3.75 10.5H20.25C20.6642 10.5 21 10.1642 21 9.75C21 9.33579 20.6642 9 20.25 9H12.75V4.3725L14.1632 5.78029C14.4557 6.07162 14.9288 6.07117 15.2207 5.77926C15.513 5.48696 15.513 5.01304 15.2207 4.72074L12.7071 2.20711C12.3166 1.81658 11.6834 1.81658 11.2929 2.20711L8.77926 4.72074Z" fill="#787C89"/>
</svg>
