<svg width="24" height="24" viewBox="0 0 24 24" fill="none" xmlns="http://www.w3.org/2000/svg">
<path fill-rule="evenodd" clip-rule="evenodd" d="M18.37 3.29006L20.71 5.63006C21.1 6.02006 21.1 6.65006 20.71 7.04006L19.2336 8.51651C19.0383 8.71177 18.7217 8.71177 18.5264 8.5165L15.4836 5.47361C15.2883 5.27835 15.2883 4.96177 15.4836 4.76651L16.96 3.29006C17.35 2.90006 17.98 2.90006 18.37 3.29006ZM3.5 21.0001C3.22386 21.0001 3 20.7762 3 20.5001V17.4572C3 17.3246 3.05268 17.1974 3.14645 17.1036L13.7064 6.54361C13.9017 6.34835 14.2183 6.34835 14.4136 6.54361L17.4564 9.58651C17.6517 9.78177 17.6517 10.0984 17.4564 10.2936L6.89645 20.8536C6.80268 20.9474 6.6755 21.0001 6.54289 21.0001H3.5Z" fill="#787C89"/>
</svg>
