<svg width="24" height="24" viewBox="0 0 24 24" fill="none" xmlns="http://www.w3.org/2000/svg">
<path d="M12 2C9.34784 2 6.8043 3.0536 4.92893 4.92901C3.05357 6.80442 2 9.34803 2 12.0003C2.00007 13.3135 2.25879 14.6139 2.7614 15.8272C3.26401 17.0404 4.00067 18.1428 4.9293 19.0714C5.85793 19.9999 6.96036 20.7365 8.17365 21.239C9.38693 21.7415 10.6873 22.0001 12.0005 22C13.3137 21.9999 14.6141 21.7412 15.8273 21.2386C17.0405 20.736 18.1429 19.9993 19.0714 19.0706C20 18.142 20.7365 17.0395 21.239 15.8262C21.7415 14.6129 22.0001 13.3125 22 11.9992C22 6.4772 17.5219 2 12 2ZM12 19.9161C10.9528 19.9281 9.91361 19.7322 8.94265 19.3398C7.97168 18.9473 7.08823 18.3661 6.34346 17.6298C5.59869 16.8935 5.00741 16.0168 4.60386 15.0504C4.20032 14.0839 3.99252 13.047 3.99252 11.9997C3.99252 10.9524 4.20032 9.91555 4.60386 8.94912C5.00741 7.98269 5.59869 7.10594 6.34346 6.36965C7.08823 5.63336 7.97168 5.05215 8.94265 4.65971C9.91361 4.26726 10.9528 4.07137 12 4.08339C13.0472 4.07137 14.0864 4.26726 15.0574 4.65971C16.0283 5.05215 16.9118 5.63336 17.6565 6.36965C18.4013 7.10594 18.9926 7.98269 19.3961 8.94912C19.7997 9.91555 20.0075 10.9524 20.0075 11.9997C20.0075 13.047 19.7997 14.0839 19.3961 15.0504C18.9926 16.0168 18.4013 16.8935 17.6565 17.6298C16.9118 18.3661 16.0283 18.9473 15.0574 19.3398C14.0864 19.7322 13.0472 19.9281 12 19.9161ZM9.39687 11.7398C10.2594 11.7398 10.9583 10.9242 10.9583 9.91687C10.9583 8.90955 10.2583 8.09391 9.39583 8.09391C8.53333 8.09391 7.83333 8.90955 7.83333 9.91687C7.83333 10.9242 8.53333 11.7398 9.39687 11.7398ZM14.6042 11.7398C15.4677 11.7398 16.1667 10.9242 16.1667 9.91687C16.1667 8.90955 15.4667 8.09391 14.6042 8.09391C13.7417 8.09391 13.0417 8.9106 13.0417 9.91687C13.0417 10.9231 13.7417 11.7398 14.6042 11.7398ZM16.5219 13.392C16.338 13.2992 16.1252 13.2822 15.9289 13.3445C15.7326 13.4068 15.5686 13.5435 15.4719 13.7253C15.4365 13.7941 14.5667 15.3847 12.001 15.3847C9.44792 15.3847 8.57292 13.8086 8.52917 13.7263C8.43551 13.5414 8.27222 13.4012 8.07521 13.3366C7.8782 13.2721 7.66361 13.2884 7.47865 13.3821C7.29368 13.4757 7.1535 13.639 7.08894 13.836C7.02438 14.0331 7.04072 14.2476 7.13437 14.4326C7.18646 14.5357 8.43438 16.9473 12.001 16.9473C15.5688 16.9473 16.8146 14.5347 16.8656 14.4316C16.9574 14.248 16.9728 14.0356 16.9083 13.8408C16.8439 13.646 16.705 13.4846 16.5219 13.392Z" fill="#787C89"/>
</svg>
