<svg width="24" height="24" viewBox="0 0 24 24" fill="none" xmlns="http://www.w3.org/2000/svg">
<path fill-rule="evenodd" clip-rule="evenodd" d="M12 5.11036C7.74369 5.10679 3.87913 7.5945 2.12005 11.4704C1.95998 11.8056 1.95998 12.1951 2.12005 12.5304C3.87941 16.4067 7.74308 18.8961 12 18.8961C16.257 18.8961 20.1207 16.4067 21.88 12.5304C22.0401 12.1951 22.0401 11.8056 21.88 11.4704C20.121 7.5945 16.2564 5.10679 12 5.11036ZM13.25 16.4304C11.6471 16.878 9.92727 16.4268 8.75042 15.25C7.57358 14.0731 7.12243 12.3533 7.57004 10.7504C7.99008 9.20083 9.20052 7.99039 10.75 7.57036C12.353 7.12274 14.0728 7.57389 15.2497 8.75073C16.4265 9.92758 16.8777 11.6474 16.43 13.2504C16.01 14.7999 14.7996 16.0103 13.25 16.4304ZM9.56843 10.6971C10.1412 9.62499 11.3478 9.05377 12.54 9.29036C13.6346 9.5103 14.4901 10.3658 14.71 11.4604C14.9466 12.6526 14.3754 13.8592 13.3033 14.432C12.2312 15.0047 10.9107 14.8087 10.0512 13.9492C9.19175 13.0897 8.99571 11.7692 9.56843 10.6971Z" fill="#787C89"/>
</svg>
