<svg width="24" height="24" viewBox="0 0 24 24" fill="none" xmlns="http://www.w3.org/2000/svg">
<path fill-rule="evenodd" clip-rule="evenodd" d="M3.38997 5.44978C3.06836 5.12609 3.06836 4.60348 3.38997 4.27978C3.71367 3.95817 4.23628 3.95817 4.55997 4.27978L19.67 19.4198C19.9916 19.7435 19.9916 20.2661 19.67 20.5898C19.3463 20.9114 18.8237 20.9114 18.5 20.5898L16.39 18.4798L16 18.0998C14.7262 18.6032 13.3696 18.8644 12 18.8698C7.7544 18.8755 3.89482 16.4066 2.11997 12.5498C1.9596 12.2111 1.9596 11.8184 2.11997 11.4798C2.84543 9.88649 3.947 8.49322 5.32997 7.41978L4.89997 6.99978L3.38997 5.44978ZM16.56 11.3198C16.2515 9.30744 14.6723 7.7283 12.66 7.41978C11.8737 7.31588 11.0739 7.4193 10.34 7.71978L8.33997 5.71978C9.51188 5.2882 10.7511 5.06812 12 5.06978C16.2745 5.05595 20.1604 7.54868 21.93 11.4398C22.0849 11.7796 22.0849 12.1699 21.93 12.5098C21.2486 13.9874 20.2479 15.2955 19 16.3398L16.27 13.6598C16.5743 12.9198 16.6745 12.1117 16.56 11.3198ZM7.88997 9.99978L9.31997 11.4198C9.27208 11.6161 9.24857 11.8177 9.24997 12.0198C9.27184 13.5229 10.4967 14.7299 12 14.7298C12.2019 14.7274 12.403 14.7039 12.6 14.6598L14 16.0798C12.9481 16.6199 11.7239 16.7172 10.6 16.3498C9.17722 15.888 8.0618 14.7725 7.59997 13.3498C7.25801 12.2378 7.36201 11.0364 7.88997 9.99978ZM14.78 12.1798L11.89 9.27978L12 9.21978C12.745 9.21148 13.4616 9.50585 13.9856 10.0355C14.5096 10.5652 14.7963 11.2849 14.78 12.0298V12.1798Z" fill="#787C89"/>
</svg>
