<svg width="24" height="24" viewBox="0 0 24 24" fill="none" xmlns="http://www.w3.org/2000/svg">
<path fill-rule="evenodd" clip-rule="evenodd" d="M3 7C3 5.34315 4.34315 4 6 4H18C19.6569 4 21 5.34315 21 7V14.5C21 16.1569 19.6569 17.5 18 17.5H14.5898L12.41 20.6232C12.211 20.9083 11.789 20.9083 11.59 20.6232L9.41019 17.5H6C4.34315 17.5 3 16.1569 3 14.5V7ZM11.8958 7C12.2488 7 12.5925 7.04883 12.9268 7.14648C13.261 7.24413 13.5577 7.38873 13.8169 7.58028C14.0761 7.77183 14.2845 8.00845 14.4423 8.29014C14.6 8.57183 14.6789 8.89671 14.6789 9.26479C14.6789 9.56526 14.6319 9.82629 14.538 10.0479C14.4441 10.2695 14.3239 10.4685 14.1775 10.6451C14.031 10.8216 13.8714 10.9831 13.6986 11.1296C13.5258 11.2761 13.3624 11.415 13.2085 11.5465C13.0545 11.6779 12.9192 11.815 12.8028 11.9577C12.6864 12.1005 12.6169 12.2545 12.5944 12.4197C12.5793 12.5023 12.5455 12.5737 12.493 12.6338C12.4404 12.6939 12.3728 12.7239 12.2901 12.7239H11.4338C11.3512 12.7239 11.2779 12.6939 11.2141 12.6338C11.1502 12.5737 11.1221 12.5023 11.1296 12.4197C11.1446 12.1268 11.2066 11.8695 11.3155 11.6479C11.4244 11.4263 11.5559 11.2272 11.7099 11.0507C11.8639 10.8742 12.0291 10.7146 12.2056 10.5718C12.3822 10.4291 12.5455 10.292 12.6958 10.1606C12.846 10.0291 12.97 9.89765 13.0676 9.7662C13.1653 9.63474 13.2141 9.49014 13.2141 9.33239C13.2141 9.04695 13.0939 8.81221 12.8535 8.62817C12.6131 8.44413 12.2939 8.35211 11.8958 8.35211C11.2573 8.35211 10.7878 8.67136 10.4873 9.30986C10.4498 9.39249 10.4103 9.45446 10.369 9.49577C10.3277 9.53709 10.2582 9.55775 10.1606 9.55775H9.24789C9.18028 9.55775 9.12207 9.53521 9.07324 9.49014C9.02441 9.44507 9 9.38498 9 9.30986C9.00751 9.04695 9.08826 8.77841 9.24225 8.50423C9.39625 8.23005 9.60282 7.98216 9.86197 7.76056C10.1211 7.53897 10.4254 7.35681 10.7746 7.21408C11.1239 7.07136 11.4977 7 11.8958 7ZM12.3465 13.4C12.4291 13.4 12.5005 13.43 12.5606 13.4901C12.6207 13.5502 12.6507 13.6216 12.6507 13.7042V14.6958C12.6507 14.7784 12.6207 14.8498 12.5606 14.9099C12.5005 14.97 12.4291 15 12.3465 15H11.3775C11.2948 15 11.2235 14.97 11.1634 14.9099C11.1033 14.8498 11.0732 14.7784 11.0732 14.6958V13.7042C11.0732 13.6216 11.1033 13.5502 11.1634 13.4901C11.2235 13.43 11.2948 13.4 11.3775 13.4H12.3465Z" fill="#787C89"/>
</svg>
