<svg width="24" height="24" viewBox="0 0 24 24" fill="none" xmlns="http://www.w3.org/2000/svg">
<path d="M18.7324 8C18.3866 8.5978 17.7403 9 17 9C16.2597 9 15.6134 8.5978 15.2676 8H4C3.44772 8 3 7.55228 3 7C3 6.44772 3.44772 6 4 6H15.2676C15.6134 5.4022 16.2597 5 17 5C17.7403 5 18.3866 5.4022 18.7324 6H20C20.5523 6 21 6.44772 21 7C21 7.55228 20.5523 8 20 8H18.7324Z" fill="#787C89"/>
<path d="M9 14C9.74028 14 10.3866 13.5978 10.7324 13H20C20.5523 13 21 12.5523 21 12C21 11.4477 20.5523 11 20 11H10.7324C10.3866 10.4022 9.74028 10 9 10C8.25972 10 7.61337 10.4022 7.26756 11H4C3.44772 11 3 11.4477 3 12C3 12.5523 3.44772 13 4 13H7.26756C7.61337 13.5978 8.25972 14 9 14Z" fill="#787C89"/>
<path d="M15.7324 18C15.3866 18.5978 14.7403 19 14 19C13.2597 19 12.6134 18.5978 12.2676 18H4C3.44772 18 3 17.5523 3 17C3 16.4477 3.44772 16 4 16H12.2676C12.6134 15.4022 13.2597 15 14 15C14.7403 15 15.3866 15.4022 15.7324 16H20C20.5523 16 21 16.4477 21 17C21 17.5523 20.5523 18 20 18H15.7324Z" fill="#787C89"/>
</svg>
