<svg width="24" height="24" viewBox="0 0 24 24" fill="none" xmlns="http://www.w3.org/2000/svg">
<path fill-rule="evenodd" clip-rule="evenodd" d="M17.23 5.22001C17.1641 5.23467 17.0958 5.23467 17.03 5.22001C15.4931 4.35868 13.7617 3.90431 12 3.9C10.2523 3.89014 8.53112 4.32732 6.99998 5.17C6.78379 5.28459 6.51574 5.20988 6.38998 5C6.33021 4.89582 6.31564 4.77174 6.34963 4.65654C6.38362 4.54135 6.46323 4.44505 6.56998 4.39C9.96145 2.55685 14.0485 2.55685 17.44 4.39C17.5478 4.44118 17.6295 4.53487 17.6655 4.64866C17.7016 4.76245 17.6887 4.88609 17.63 4.99C17.5508 5.13604 17.396 5.225 17.23 5.22001ZM4.34998 10C4.25758 9.99788 4.16759 9.97019 4.08998 9.92C3.97898 9.84845 3.90501 9.73175 3.88768 9.60082C3.87035 9.4699 3.91141 9.33797 3.99998 9.24C4.86551 7.99994 6.01833 6.98779 7.35998 6.29C10.2822 4.83496 13.7178 4.83496 16.64 6.29C17.9803 6.97632 19.1335 7.97848 20 9.21C20.1112 9.33936 20.1397 9.52045 20.0736 9.6777C20.0075 9.83495 19.8582 9.94131 19.688 9.95239C19.5177 9.96347 19.3559 9.87736 19.27 9.73001C18.4799 8.61802 17.4338 7.71252 16.22 7.09C13.5567 5.76038 10.4232 5.76038 7.75998 7.09C6.54376 7.72233 5.49763 8.63812 4.70998 9.76C4.64733 9.9036 4.50662 9.99741 4.34998 10ZM9.67998 20.68C9.76447 20.7651 9.88005 20.8121 9.99998 20.81C10.1212 20.7948 10.232 20.7341 10.31 20.64C10.4777 20.4596 10.4777 20.1804 10.31 20C9.64595 19.3799 9.08552 18.6574 8.64998 17.86C8.07476 16.7954 7.78534 15.5998 7.80998 14.39C7.83356 13.3034 8.28866 12.2709 9.0748 11.5204C9.86094 10.7699 10.9135 10.3632 12 10.39C13.0882 10.3605 14.1433 10.766 14.9316 11.5168C15.7199 12.2676 16.1764 13.3016 16.2 14.39C16.2 14.6385 16.4015 14.84 16.65 14.84C16.8985 14.84 17.1 14.6385 17.1 14.39C17.0183 11.648 14.7426 9.48392 12 9.54C9.24964 9.47276 6.96169 11.6401 6.87998 14.39C6.86962 15.7579 7.21416 17.1051 7.87998 18.3C8.34646 19.186 8.95446 19.9899 9.67998 20.68ZM16.45 19.15C15.4603 19.1731 14.4871 18.894 13.66 18.35C12.3218 17.4591 11.5185 15.9576 11.52 14.35C11.52 14.1015 11.7214 13.9 11.97 13.9C12.2185 13.9 12.42 14.1015 12.42 14.35C12.431 15.645 13.0875 16.8491 14.17 17.56C14.8464 18.0021 15.6423 18.2255 16.45 18.2C16.7651 18.1935 17.0793 18.1634 17.39 18.11C17.5084 18.0869 17.6311 18.1134 17.7294 18.1833C17.8277 18.2533 17.893 18.3605 17.91 18.48C17.9302 18.5981 17.9026 18.7193 17.8331 18.8169C17.7637 18.9145 17.6582 18.9804 17.54 19C17.1754 19.0841 16.8038 19.1343 16.43 19.15H16.45ZM14.51 21H14.62C14.8312 21.0064 15.0184 20.8649 15.07 20.66C15.1335 20.4198 14.9902 20.1735 14.75 20.11C13.6312 19.8441 12.6113 19.2648 11.81 18.44C10.7261 17.3681 10.1204 15.9044 10.13 14.38C10.1456 13.9007 10.3518 13.4475 10.7029 13.1208C11.0539 12.7942 11.5208 12.6211 12 12.64C12.985 12.6001 13.8209 13.3559 13.88 14.34C13.88 15.8698 15.1201 17.11 16.65 17.11C18.1798 17.11 19.42 15.8698 19.42 14.34C19.284 10.367 15.9741 7.24447 12 7.34C9.12009 7.30789 6.47826 8.93423 5.20998 11.52C4.78963 12.4315 4.58108 13.4264 4.59998 14.43C4.59846 15.6496 4.81871 16.8592 5.24998 18C5.35616 18.2022 5.59458 18.2958 5.80998 18.22C5.92302 18.1797 6.01471 18.095 6.0638 17.9855C6.11289 17.876 6.11512 17.7512 6.06998 17.64C5.66883 16.6036 5.46532 15.5013 5.46998 14.39C5.4566 13.521 5.63768 12.66 5.99998 11.87C7.13583 9.60845 9.46969 8.20035 12 8.25C15.4904 8.16602 18.3919 10.9199 18.49 14.41C18.49 15.4428 17.6528 16.28 16.62 16.28C15.5872 16.28 14.75 15.4428 14.75 14.41C14.75 12.8802 13.5098 11.64 11.98 11.64C10.4501 11.64 9.20998 12.8802 9.20998 14.41C9.2 16.1754 9.90313 17.8702 11.16 19.11C12.0783 20.0405 13.2387 20.6952 14.51 21Z" fill="#787C89"/>
</svg>
