<svg width="24" height="24" viewBox="0 0 24 24" fill="none" xmlns="http://www.w3.org/2000/svg">
<path d="M17.9433 9.7013C17.9053 9.63688 17.8502 9.58329 17.7836 9.54601C17.717 9.50873 17.6412 9.48908 17.5641 9.48908H11.8544L12.8116 2.46492C12.8219 2.37092 12.7989 2.27633 12.7464 2.19638C12.6939 2.11643 12.6149 2.05579 12.5221 2.0242C12.4294 1.99261 12.3282 1.99193 12.235 2.02226C12.1418 2.05258 12.0619 2.11215 12.0082 2.19138L5.06456 13.8743C5.02396 13.9377 5.0017 14.0104 5.00009 14.0848C4.99848 14.1593 5.01758 14.2328 5.0554 14.2977C5.09323 14.3627 5.14842 14.4169 5.21529 14.4545C5.28216 14.4922 5.35828 14.5121 5.43581 14.5121H11.0602L10.3016 21.5468C10.2942 21.6405 10.3196 21.7339 10.3737 21.8121C10.4279 21.8904 10.5078 21.9489 10.6006 21.9785C10.6935 22.0082 10.794 22.0071 10.8861 21.9755C10.9783 21.944 11.0568 21.8837 11.1092 21.8044L17.9381 10.1227C17.9777 10.0592 17.9991 9.98672 18 9.91269C18.0009 9.83866 17.9813 9.76572 17.9433 9.7013Z" fill="#787C89"/>
</svg>
