<svg width="24" height="24" viewBox="0 0 24 24" fill="none" xmlns="http://www.w3.org/2000/svg">
<path d="M7.73092 5.23383C9.76118 3.57359 12.4291 2.91159 15 3.43013C18.5331 4.149 21.2622 6.96371 21.8717 10.5174C22.4811 14.071 20.8458 17.6342 17.754 19.4892C14.6623 21.3442 10.7487 21.1102 7.89999 18.9001C7.68163 18.7282 7.54464 18.4732 7.52187 18.1963C7.49911 17.9193 7.59262 17.6454 7.77999 17.4401C8.13363 17.1104 8.6725 17.081 9.05999 17.3701C11.1209 18.9996 13.9369 19.294 16.2902 18.1259C18.6435 16.9578 20.1117 14.5369 20.06 11.9101C19.9654 8.24419 17.0159 5.29471 13.35 5.20013C11.531 5.17605 9.77816 5.88183 8.48338 7.1597C7.1886 8.43757 6.45983 10.181 6.45999 12.0001H8.69999C8.8145 11.9985 8.91848 12.0667 8.96252 12.1724C9.00657 12.2781 8.9818 12.4 8.89999 12.4801L5.72999 15.6301C5.65654 15.7059 5.55551 15.7487 5.44999 15.7487C5.34447 15.7487 5.24345 15.7059 5.16999 15.6301L2.07999 12.4801C1.99818 12.4 1.97341 12.2781 2.01746 12.1724C2.0615 12.0667 2.16548 11.9985 2.27999 12.0001H4.51999C4.52217 9.37746 5.70065 6.89408 7.73092 5.23383Z" fill="#787C89"/>
<path d="M13.82 8.73013V11.9901L16.65 13.6201C16.8189 13.7165 16.9424 13.8762 16.9931 14.0639C17.0438 14.2517 17.0175 14.4519 16.92 14.6201C16.822 14.7873 16.6615 14.9087 16.4739 14.9575C16.2863 15.0063 16.087 14.9784 15.92 14.8801L12.36 12.8301V8.73013C12.36 8.32696 12.6868 8.00013 13.09 8.00013C13.4932 8.00013 13.82 8.32696 13.82 8.73013Z" fill="#787C89"/>
</svg>
