<svg width="24" height="24" viewBox="0 0 24 24" fill="none" xmlns="http://www.w3.org/2000/svg">
<path d="M20.76 9.1702L13 3.3102C12.4289 2.89009 11.6511 2.89009 11.08 3.3102L7.4 6.0002L3.24 9.1702C3.03645 9.33813 2.9665 9.61934 3.06767 9.86306C3.16883 10.1068 3.41736 10.2558 3.68 10.2302H4.09L5.09 20.0802C5.18648 20.6457 5.69802 21.0446 6.27 21.0002H8.79C9.20973 21.0002 9.55 20.6599 9.55 20.2402V16.7002C9.55209 16.0534 9.78629 15.4289 10.21 14.9402C10.6035 14.4849 11.1526 14.1925 11.75 14.1202C12.4394 14.0526 13.1254 14.2789 13.6394 14.7433C14.1534 15.2078 14.4477 15.8675 14.45 16.5602V20.2402C14.45 20.6599 14.7903 21.0002 15.21 21.0002H17.73C18.2909 21.0286 18.7846 20.6336 18.88 20.0802L19.32 15.8402L19.91 10.2302H20.32C20.5826 10.2558 20.8312 10.1068 20.9323 9.86306C21.0335 9.61934 20.9635 9.33813 20.76 9.1702Z" fill="#787C89"/>
</svg>
