<svg width="24" height="24" viewBox="0 0 24 24" fill="none" xmlns="http://www.w3.org/2000/svg">
<path d="M6 3.7V4.35C6.00849 6.6849 6.93523 8.92273 8.58 10.58L8.9 10.9C9.50511 11.5085 9.50511 12.4915 8.9 13.1L8.57 13.43C6.92766 15.084 6.00414 17.3191 6 19.65V20.3C6 20.7509 6.17911 21.1833 6.49792 21.5021C6.81673 21.8209 7.24913 22 7.7 22H16.3C17.2389 22 18 21.2389 18 20.3V19.66C17.9985 17.3208 17.0709 15.0773 15.42 13.42L15.1 13.1C14.8069 12.809 14.642 12.413 14.642 12C14.642 11.587 14.8069 11.191 15.1 10.9L15.4 10.6C17.0669 8.94359 18.0029 6.68991 18 4.34V3.7C18 2.76112 17.2389 2 16.3 2H7.7C6.76112 2 6 2.76112 6 3.7Z" fill="#787C89"/>
</svg>
