<svg width="24" height="24" viewBox="0 0 24 24" fill="none" xmlns="http://www.w3.org/2000/svg">
<path fill-rule="evenodd" clip-rule="evenodd" d="M7.56998 2C6.7029 2 5.99998 2.70291 5.99998 3.57V5.68C5.99631 7.17967 6.59006 8.61906 7.64998 9.68L8.99998 11C9.52829 11.562 9.52829 12.438 8.99998 13L7.64998 14.35C6.58817 15.4097 5.99409 16.8499 5.99998 18.35V20.45C6.01093 21.3093 6.71065 22.0001 7.56998 22H16.43C17.2971 22 18 21.2971 18 20.43V18.33C18.0059 16.8299 17.4118 15.3897 16.35 14.33L15 13C14.4666 12.44 14.4666 11.56 15 11L16.32 9.68C17.3818 8.62032 17.9759 7.18011 17.97 5.68V3.57C17.9701 2.71449 17.2853 2.01635 16.43 2H7.56998ZM16 18.43V19.43C16 19.7338 15.7537 19.98 15.45 19.98H8.54998C8.25387 19.9802 8.01075 19.7459 7.99998 19.45V18.45C8.00114 17.2119 8.49392 16.0249 9.36998 15.15L12 12.5L14.63 15.13C15.506 16.0049 15.9988 17.1919 16 18.43ZM9.36998 8.87L12 11.5L14.63 8.85C15.506 7.9751 15.9988 6.78812 16 5.55V4.55C16 4.24624 15.7537 4 15.45 4H8.54998C8.40058 3.9999 8.25757 4.06058 8.15383 4.1681C8.05009 4.27561 7.99455 4.4207 7.99998 4.57V5.57C8.00114 6.80812 8.49392 7.9951 9.36998 8.87Z" fill="#787C89"/>
</svg>
