<svg width="24" height="24" viewBox="0 0 24 24" fill="none" xmlns="http://www.w3.org/2000/svg">
<path fill-rule="evenodd" clip-rule="evenodd" d="M2 6C2 4.89543 2.89543 4 4 4H20C21.1046 4 22 4.89543 22 6V18C22 19.1046 21.1046 20 20 20H4C2.89543 20 2 19.1046 2 18V6ZM12.5 11C12.5 10.4477 12.9477 10 13.5 10H15.5C16.0523 10 16.5 10.4477 16.5 11C16.5 11.5523 16.0523 12 15.5 12H13.5C12.9477 12 12.5 11.5523 12.5 11ZM13.5 13C12.9477 13 12.5 13.4477 12.5 14C12.5 14.5523 12.9477 15 13.5 15H18C18.5523 15 19 14.5523 19 14C19 13.4477 18.5523 13 18 13H13.5ZM5 14.5C5 13.3954 5.89543 12.5 7 12.5H9C10.1046 12.5 11 13.3954 11 14.5V15.5C11 16.0523 10.5523 16.5 10 16.5H6C5.44772 16.5 5 16.0523 5 15.5V14.5ZM8 12C9.10457 12 10 11.1046 10 10C10 8.89543 9.10457 8 8 8C6.89543 8 6 8.89543 6 10C6 11.1046 6.89543 12 8 12Z" fill="#787C89"/>
</svg>
