<svg width="24" height="24" viewBox="0 0 24 24" fill="none" xmlns="http://www.w3.org/2000/svg">
<path d="M19.999 4H3.99899C2.89599 4 1.99899 4.897 1.99899 6V18C1.99899 19.103 2.89599 20 3.99899 20H19.999C21.102 20 21.999 19.103 21.999 18V6C21.999 4.897 21.102 4 19.999 4ZM6.49899 7C6.89682 7 7.27835 7.15804 7.55965 7.43934C7.84096 7.72064 7.99899 8.10218 7.99899 8.5C7.99899 8.89782 7.84096 9.27936 7.55965 9.56066C7.27835 9.84196 6.89682 10 6.49899 10C6.10117 10 5.71964 9.84196 5.43833 9.56066C5.15703 9.27936 4.99899 8.89782 4.99899 8.5C4.99899 8.10218 5.15703 7.72064 5.43833 7.43934C5.71964 7.15804 6.10117 7 6.49899 7ZM11.999 17H4.99899L8.99899 12L10.499 14L13.499 10L18.999 17H11.999Z" fill="#787C89"/>
</svg>
