<svg width="24" height="24" viewBox="0 0 24 24" fill="none" xmlns="http://www.w3.org/2000/svg">
<path d="M12.3596 11.8069C12.3596 12.4206 11.8622 12.918 11.2485 12.918C10.6349 12.918 10.1374 12.4206 10.1374 11.8069C10.1374 11.1933 10.6349 10.6958 11.2485 10.6958C11.8622 10.6958 12.3596 11.1933 12.3596 11.8069Z" fill="#787C89"/>
<path fill-rule="evenodd" clip-rule="evenodd" d="M18.7858 3.99811L12.5609 2.33016C10.427 1.75839 8.2337 3.02472 7.66193 5.15859L7.0714 7.36249H6.24854C4.0394 7.36249 2.24854 9.15335 2.24854 11.3625V17.8069C2.24854 20.0161 4.0394 21.8069 6.24854 21.8069H12.693C14.8233 21.8069 16.5646 20.1417 16.6862 18.0419C18.2074 17.8089 19.5224 16.7038 19.9462 15.1219L21.6142 8.89709C22.186 6.76322 20.9196 4.56987 18.7858 3.99811ZM16.693 15.9915C17.3182 15.7905 17.8318 15.2859 18.0144 14.6043L19.6823 8.37945C19.9682 7.31251 19.3351 6.21584 18.2681 5.92996L12.0433 4.26201C10.9763 3.97613 9.87967 4.60929 9.59378 5.67623L9.14195 7.36249H12.693C14.9021 7.36249 16.693 9.15335 16.693 11.3625V15.9915ZM6.24854 9.36249C5.14397 9.36249 4.24854 10.2579 4.24854 11.3625V15.032L6.23396 13.1164C6.83013 12.5411 7.77973 12.5581 8.35494 13.1543C8.38255 13.184 8.39637 13.1988 8.40962 13.2141C8.42288 13.2295 8.43559 13.2452 8.461 13.2768L10.4713 15.8702L11.9406 14.1671C12.4818 13.5398 13.429 13.47 14.0562 14.0111C14.1366 14.0804 14.2094 14.1581 14.2734 14.2429L14.693 14.7984V11.3625C14.693 10.2579 13.7975 9.36249 12.693 9.36249H6.24854ZM4.24854 17.8111C4.2508 18.9138 5.14536 19.8069 6.24854 19.8069H12.693C13.7018 19.8069 14.5362 19.06 14.6732 18.089C14.6632 18.0769 14.6533 18.0645 14.6437 18.0518L13.0506 15.9423L11.5864 17.6395C11.5212 17.7151 11.4486 17.784 11.3696 17.8452C10.7149 18.3527 9.77267 18.2334 9.26513 17.5787L7.22166 14.9425L4.24854 17.8111Z" fill="#787C89"/>
</svg>
