<svg width="24" height="24" viewBox="0 0 24 24" fill="none" xmlns="http://www.w3.org/2000/svg">
<path fill-rule="evenodd" clip-rule="evenodd" d="M5 3C3.89543 3 3 3.89543 3 5V19C3 20.1046 3.89543 21 5 21H19C20.1046 21 21 20.1046 21 19V5C21 3.89543 20.1046 3 19 3H5ZM5 12V6C5 5.44771 5.44772 5 6 5H18C18.5523 5 19 5.44771 19 6V12C19 12.5523 18.5523 13 18 13H16C15.4477 13 14.9953 13.4547 14.8317 13.9822C14.5604 14.8571 13.8516 16 12 16C10.1484 16 9.43957 14.8571 9.16826 13.9822C9.00469 13.4547 8.55228 13 8 13H6C5.44772 13 5 12.5523 5 12Z" fill="#787C89"/>
</svg>
