<svg width="24" height="24" viewBox="0 0 24 24" fill="none" xmlns="http://www.w3.org/2000/svg">
<path fill-rule="evenodd" clip-rule="evenodd" d="M22 12C22 17.5228 17.5228 22 12 22C6.47715 22 2 17.5228 2 12C2 6.47715 6.47715 2 12 2C17.5228 2 22 6.47715 22 12ZM14.6831 18.0316L14.8575 17.3177C14.7672 17.3604 14.6212 17.4086 14.4216 17.4637C14.2214 17.5191 14.0408 17.5475 13.8822 17.5475C13.5447 17.5475 13.3068 17.4916 13.1688 17.3807C13.0322 17.2697 12.9637 17.06 12.9637 16.7538C12.9637 16.6323 12.984 16.4513 13.0273 16.2143C13.0693 15.9759 13.1169 15.7637 13.1705 15.5781L13.8225 13.2698C13.8865 13.058 13.9304 12.825 13.9539 12.5713C13.978 12.3174 13.9889 12.1402 13.9889 12.039C13.9889 11.5526 13.8182 11.1572 13.4768 10.8525C13.1355 10.5483 12.6497 10.3958 12.0195 10.3958C11.6689 10.3958 11.2986 10.4581 10.9064 10.5829C10.5141 10.707 10.1038 10.8564 9.67505 11.0309L9.5 11.7457C9.62799 11.6981 9.78007 11.6473 9.95834 11.5948C10.1356 11.5423 10.3096 11.5155 10.4786 11.5155C10.8243 11.5155 11.0574 11.5741 11.1793 11.69C11.3013 11.8065 11.3626 12.0138 11.3626 12.3098C11.3626 12.4734 11.3429 12.6549 11.303 12.8529C11.2631 13.0515 11.2138 13.2621 11.1552 13.4836L10.5006 15.8014C10.4425 16.0448 10.3999 16.2631 10.373 16.4562C10.3462 16.6499 10.3336 16.839 10.3336 17.024C10.3336 17.4999 10.5098 17.8927 10.8616 18.2029C11.2132 18.5114 11.7067 18.6667 12.3412 18.6667C12.7542 18.6667 13.1169 18.6125 13.4287 18.5042C13.7405 18.396 14.159 18.2384 14.6831 18.0316ZM14.5665 8.65457C14.8711 8.37225 15.0228 8.02874 15.0228 7.62669C15.0228 7.22521 14.8717 6.88114 14.5665 6.59504C14.2629 6.31006 13.8969 6.16667 13.4687 6.16667C13.0392 6.16667 12.6711 6.3095 12.3647 6.59504C12.0579 6.88114 11.9042 7.22521 11.9042 7.62669C11.9042 8.02874 12.0579 8.37169 12.3647 8.65457C12.6721 8.93786 13.0387 9.07958 13.4687 9.07958C13.8969 9.07958 14.2629 8.93786 14.5665 8.65457Z" fill="#787C89"/>
</svg>
