<svg width="24" height="24" viewBox="0 0 24 24" fill="none" xmlns="http://www.w3.org/2000/svg">
<path fill-rule="evenodd" clip-rule="evenodd" d="M20 9.18V9.26C20.0149 9.55648 20.0149 9.85352 20 10.15C20.0197 12.5335 19.0013 14.8075 17.21 16.38C15.3285 17.9164 13.7077 19.7466 12.41 21.8C12.3396 21.9273 12.2055 22.0064 12.06 22.0064C11.9145 22.0064 11.7805 21.9273 11.71 21.8C10.4124 19.7466 8.7915 17.9164 6.91002 16.38C5.09647 14.8187 4.05544 12.543 4.06002 10.15C4.0451 9.85352 4.0451 9.55648 4.06002 9.26V9.18C4.50141 5.11867 7.9149 2.03191 12 2C16.1081 2.00145 19.556 5.09599 20 9.18ZM8.74432 11.2976C9.28672 12.6179 10.5727 13.4799 12 13.48C13.9263 13.4747 15.4927 11.9261 15.52 10C15.5362 8.57277 14.689 7.27702 13.375 6.71957C12.061 6.16211 10.5405 6.45331 9.5255 7.4568C8.51047 8.46029 8.20191 9.97739 8.74432 11.2976Z" fill="#787C89"/>
</svg>
