<svg width="24" height="24" viewBox="0 0 24 24" fill="none" xmlns="http://www.w3.org/2000/svg">
<path fill-rule="evenodd" clip-rule="evenodd" d="M3.53022 16.0765C3.23732 16.3694 3.23732 16.8443 3.53022 17.1372C3.82311 17.4301 4.29798 17.4301 4.59088 17.1372L18.7744 2.95367C19.0673 2.66078 19.0673 2.1859 18.7744 1.89301C18.4815 1.60012 18.0066 1.60012 17.7137 1.89301L16.318 3.2887C15.0556 2.47185 13.5538 2.00073 11.9514 2.00016C7.86633 2.03207 4.45283 5.11883 4.01145 9.18016V9.26016C3.99652 9.55664 3.99652 9.85368 4.01145 10.1502C4.00854 11.6685 4.42657 13.1396 5.19578 14.411L3.53022 16.0765ZM8.59286 11.0139L13.0052 6.60153C11.7707 6.21383 10.41 6.53432 9.47676 7.457C8.53381 8.38924 8.20056 9.76474 8.59286 11.0139Z" fill="#787C89"/>
<path d="M19.9514 9.18016V9.26016C19.9664 9.55664 19.9664 9.85368 19.9514 10.1502C19.9711 12.5336 18.9527 14.8077 17.1614 16.3802C15.28 17.9165 13.6591 19.7468 12.3614 21.8002C12.291 21.9275 12.157 22.0065 12.0114 22.0065C11.8659 22.0065 11.7319 21.9275 11.6614 21.8002C10.3638 19.7468 8.74292 17.9165 6.86145 16.3802L6.8541 16.3738L10.2092 13.0188C10.7292 13.3151 11.3267 13.4802 11.9513 13.4802C13.8776 13.4749 15.444 11.9263 15.4713 10.0002C15.4785 9.36166 15.313 8.74943 15.0101 8.21787L18.2224 5.0055C19.158 6.16763 19.7796 7.59982 19.9514 9.18016Z" fill="#787C89"/>
</svg>
