<svg width="24" height="24" viewBox="0 0 24 24" fill="none" xmlns="http://www.w3.org/2000/svg">
<path fill-rule="evenodd" clip-rule="evenodd" d="M16.76 8.65979V6.99979C16.8263 4.47871 14.9719 2.31737 12.47 1.99979C11.129 1.86987 9.79568 2.31306 8.79933 3.21988C7.80297 4.12669 7.23655 5.41256 7.24 6.75979V8.65979C5.66275 8.66528 4.38549 9.94254 4.38 11.5198V19.1398C4.38549 20.717 5.66275 21.9943 7.24 21.9998H16.76C18.3373 21.9943 19.6145 20.717 19.62 19.1398V11.5198C19.6145 9.94254 18.3373 8.66528 16.76 8.65979ZM12 17.2398C10.9451 17.2398 10.09 16.3847 10.09 15.3298C10.09 14.2749 10.9451 13.4198 12 13.4198C13.0549 13.4198 13.91 14.2749 13.91 15.3298C13.9045 16.3824 13.0526 17.2343 12 17.2398ZM9.05 8.65979H15V6.75979C14.9848 5.86975 14.5751 5.03244 13.8817 4.47424C13.1883 3.91603 12.2828 3.69459 11.41 3.86979C10.0066 4.17585 9.01702 5.43376 9.05 6.86979V8.65979Z" fill="#787C89"/>
</svg>
