<svg width="24" height="24" viewBox="0 0 24 24" fill="none" xmlns="http://www.w3.org/2000/svg">
<path d="M12.7635 4.49984C12.7635 4.96007 13.1366 5.33317 13.5968 5.33317H18.5968C19.057 5.33317 19.4301 5.70627 19.4301 6.1665V17.8332C19.4301 18.2934 19.057 18.6665 18.5968 18.6665H13.5968C13.1366 18.6665 12.7635 19.0396 12.7635 19.4998C12.7635 19.9601 13.1366 20.3332 13.5968 20.3332H18.5968C19.9775 20.3332 21.0968 19.2139 21.0968 17.8332V6.1665C21.0968 4.78579 19.9775 3.6665 18.5968 3.6665H13.5968C13.1366 3.6665 12.7635 4.0396 12.7635 4.49984Z" fill="#787C89"/>
<path d="M8.53057 16.4611C8.20034 16.7817 8.1925 17.3092 8.51306 17.6395C8.83363 17.9697 9.36121 17.9776 9.69144 17.657L14.5343 12.956C15.0297 12.4751 15.0414 11.6837 14.5606 11.1884C14.5476 11.1752 14.5476 11.1751 14.5344 11.1622L9.69144 6.46109C9.36121 6.14053 8.83363 6.14837 8.51306 6.47861C8.1925 6.80885 8.20034 7.33642 8.53057 7.65699L12.1461 11.1666H2.83321C2.37297 11.1666 1.99988 11.5397 1.99988 11.9999C1.99988 12.4602 2.37297 12.8333 2.83321 12.8333H12.2679L8.53057 16.4611Z" fill="#787C89"/>
</svg>
