<svg width="24" height="24" viewBox="0 0 24 24" fill="none" xmlns="http://www.w3.org/2000/svg">
<path d="M11.5136 4.50033C11.5136 4.96056 11.8867 5.33366 12.3469 5.33366H17.3469C17.8072 5.33366 18.1803 5.70675 18.1803 6.16699V17.8337C18.1803 18.2939 17.8072 18.667 17.3469 18.667H12.3469C11.8867 18.667 11.5136 19.0401 11.5136 19.5003C11.5136 19.9606 11.8867 20.3337 12.3469 20.3337H17.3469C18.7277 20.3337 19.8469 19.2144 19.8469 17.8337V6.16699C19.8469 4.78628 18.7277 3.66699 17.3469 3.66699H12.3469C11.8867 3.66699 11.5136 4.04009 11.5136 4.50033Z" fill="#787C89"/>
<path d="M10.0497 16.4616C10.38 16.7821 10.3878 17.3097 10.0672 17.64C9.74666 17.9702 9.21908 17.978 8.88885 17.6575L4.04598 12.9565C3.55062 12.4756 3.53886 11.6842 4.01971 11.1889C4.03269 11.1756 4.03271 11.1756 4.04593 11.1627L8.88885 6.46158C9.21908 6.14102 9.74666 6.14886 10.0672 6.4791C10.3878 6.80933 10.38 7.33691 10.0497 7.65748L6.4341 11.1672H15.7471C16.2073 11.1672 16.5804 11.5403 16.5804 12.0005C16.5804 12.4608 16.2073 12.8339 15.7471 12.8339H6.31253L10.0497 16.4616Z" fill="#787C89"/>
</svg>
