<svg width="24" height="24" viewBox="0 0 24 24" fill="none" xmlns="http://www.w3.org/2000/svg">
<path fill-rule="evenodd" clip-rule="evenodd" d="M6 4C3.79086 4 2 5.79086 2 8V16C2 18.2091 3.79086 20 6 20H18C20.2091 20 22 18.2091 22 16V8C22 5.79086 20.2091 4 18 4H6ZM19.7593 6.34921C19.3998 5.92988 18.7685 5.88132 18.3492 6.24074L12 11.6829L5.65079 6.24074C5.23147 5.88132 4.60017 5.92988 4.24074 6.34921C3.88132 6.76853 3.92988 7.39983 4.34921 7.75926L11.3492 13.7593C11.7237 14.0802 12.2763 14.0802 12.6508 13.7593L19.6508 7.75926C20.0701 7.39983 20.1187 6.76853 19.7593 6.34921Z" fill="#787C89"/>
</svg>
