<svg width="24" height="24" viewBox="0 0 24 24" fill="none" xmlns="http://www.w3.org/2000/svg">
<path d="M2 5C2 3.89543 2.89543 3 4 3H20C21.1046 3 22 3.89543 22 5V15C22 16.1046 21.1046 17 20 17H4C2.89543 17 2 16.1046 2 15V5Z" fill="#787C89"/>
<path d="M11 17H13V19H11V17Z" fill="#787C89"/>
<path d="M6.16667 20.0041C8.04786 19.2012 8.95692 19.0845 10.8333 19.0082C11.2148 18.9927 11.7765 19.0032 11.9483 19.007C11.9829 19.0078 12.0171 19.0078 12.0517 19.007C12.2235 19.0032 12.7852 18.9927 13.1667 19.0082C15.0431 19.0845 15.9521 19.2012 17.8333 20.0041C18.6406 20.3487 18.2884 21 17.4107 21C17.1509 21 16.893 21 16.6667 21C14.3333 21 14.3333 20.5021 12 20.5021C9.66667 20.5021 9.66667 21 7.33333 21C7.10697 21 6.84908 21 6.58929 21C5.71155 21 5.35939 20.3487 6.16667 20.0041Z" fill="#787C89"/>
</svg>
