<svg width="24" height="24" viewBox="0 0 24 24" fill="none" xmlns="http://www.w3.org/2000/svg">
<path d="M18.8799 14.1199C17.709 14.1199 16.7599 13.1707 16.7599 11.9999C16.7599 10.829 17.709 9.87988 18.8799 9.87988C20.0507 9.87988 20.9999 10.829 20.9999 11.9999C20.9999 13.1707 20.0507 14.1199 18.8799 14.1199Z" fill="#787C89"/>
<path d="M9.87988 11.9999C9.87988 13.1707 10.829 14.1199 11.9999 14.1199C13.1707 14.1199 14.1199 13.1707 14.1199 11.9999C14.1199 10.829 13.1707 9.87988 11.9999 9.87988C10.829 9.87988 9.87988 10.829 9.87988 11.9999Z" fill="#787C89"/>
<path d="M2.99988 11.9999C2.99988 13.1707 3.94903 14.1199 5.11988 14.1199C6.29072 14.1199 7.23988 13.1707 7.23988 11.9999C7.23988 10.829 6.29072 9.87988 5.11988 9.87988C3.94903 9.87988 2.99988 10.829 2.99988 11.9999Z" fill="#787C89"/>
</svg>
