<svg width="24" height="24" viewBox="0 0 24 24" fill="none" xmlns="http://www.w3.org/2000/svg">
<path d="M14.12 5.12C14.12 6.29084 13.1708 7.24 12 7.24C10.8292 7.24 9.88 6.29084 9.88 5.12C9.88 3.94916 10.8292 3 12 3C13.1708 3 14.12 3.94916 14.12 5.12Z" fill="#787C89"/>
<path d="M12 14.12C13.1708 14.12 14.12 13.1708 14.12 12C14.12 10.8292 13.1708 9.88 12 9.88C10.8292 9.88 9.88 10.8292 9.88 12C9.88 13.1708 10.8292 14.12 12 14.12Z" fill="#787C89"/>
<path d="M12 21C13.1708 21 14.12 20.0508 14.12 18.88C14.12 17.7092 13.1708 16.76 12 16.76C10.8292 16.76 9.88 17.7092 9.88 18.88C9.88 20.0508 10.8292 21 12 21Z" fill="#787C89"/>
</svg>
