<svg width="24" height="24" viewBox="0 0 24 24" fill="none" xmlns="http://www.w3.org/2000/svg">
<path d="M14.5942 3.7934C13.9694 4.3919 13.8145 5.49595 13.8008 6.6C13.8145 7.70405 13.9694 8.8081 14.5942 9.40659C15.1926 10.0313 16.2967 10.1862 17.4007 10.2C18.5048 10.1862 19.6088 10.0313 20.2073 9.40659C20.8321 8.8081 20.987 7.70405 21.0007 6.6C20.987 5.49595 20.8321 4.3919 20.2073 3.7934C19.6088 3.16866 18.5048 3.01377 17.4007 3C16.2967 3.01377 15.1926 3.16866 14.5942 3.7934Z" fill="#787C89"/>
<path d="M13.8008 17.4C13.8145 16.296 13.9694 15.1919 14.5942 14.5935C15.1926 13.9687 16.2967 13.8138 17.4007 13.8C18.5048 13.8138 19.6088 13.9687 20.2073 14.5935C20.8321 15.1919 20.987 16.296 21.0007 17.4C20.987 18.5041 20.8321 19.6081 20.2073 20.2066C19.6088 20.8314 18.5048 20.9863 17.4007 21C16.2967 20.9863 15.1926 20.8314 14.5942 20.2066C13.9694 19.6081 13.8145 18.5041 13.8008 17.4Z" fill="#787C89"/>
<path d="M6.59997 13.8C8.58819 13.8 10.2 15.4118 10.2 17.4C10.2 19.3883 8.58819 21 6.59997 21C4.61174 21 2.99997 19.3883 2.99997 17.4C2.99997 15.4118 4.61174 13.8 6.59997 13.8Z" fill="#787C89"/>
<path d="M2.99997 6.6C3.01374 5.49595 3.16863 4.3919 3.79337 3.7934C4.39186 3.16866 5.49591 3.01377 6.59997 3C7.70402 3.01377 8.80807 3.16866 9.40656 3.7934C10.0313 4.3919 10.1862 5.49595 10.2 6.6C10.1862 7.70405 10.0313 8.8081 9.40656 9.40659C8.80807 10.0313 7.70402 10.1862 6.59997 10.2C5.49591 10.1862 4.39186 10.0313 3.79337 9.40659C3.16863 8.8081 3.01374 7.70405 2.99997 6.6Z" fill="#787C89"/>
</svg>
