<svg width="24" height="24" viewBox="0 0 24 24" fill="none" xmlns="http://www.w3.org/2000/svg">
<path d="M15 12C15 13.6569 13.6569 15 12 15C10.3431 15 9 13.6569 9 12C9 10.3431 10.3431 9 12 9C13.6569 9 15 10.3431 15 12Z" fill="#787C89"/>
<path fill-rule="evenodd" clip-rule="evenodd" d="M11 3C11 2.44772 11.4477 2 12 2C12.5523 2 13 2.44772 13 3V4.06189C16.6187 4.51314 19.4869 7.38128 19.9381 11H21C21.5523 11 22 11.4477 22 12C22 12.5523 21.5523 13 21 13H19.9381C19.4869 16.6187 16.6187 19.4869 13 19.9381V21C13 21.5523 12.5523 22 12 22C11.4477 22 11 21.5523 11 21V19.9381C7.38128 19.4869 4.51314 16.6187 4.06189 13H3C2.44772 13 2 12.5523 2 12C2 11.4477 2.44772 11 3 11H4.06189C4.51314 7.38128 7.38128 4.51314 11 4.06189V3ZM6.08296 13H7C7.55228 13 8 12.5523 8 12C8 11.4477 7.55228 11 7 11H6.08296C6.50448 8.48749 8.4875 6.50448 11 6.08296V7C11 7.55228 11.4477 8 12 8C12.5523 8 13 7.55228 13 7V6.08296C15.5125 6.50448 17.4955 8.48749 17.917 11H17C16.4477 11 16 11.4477 16 12C16 12.5523 16.4477 13 17 13H17.917C17.4955 15.5125 15.5125 17.4955 13 17.917V17C13 16.4477 12.5523 16 12 16C11.4477 16 11 16.4477 11 17V17.917C8.4875 17.4955 6.50448 15.5125 6.08296 13Z" fill="#787C89"/>
</svg>
