<svg width="24" height="24" viewBox="0 0 24 24" fill="none" xmlns="http://www.w3.org/2000/svg">
<path fill-rule="evenodd" clip-rule="evenodd" d="M13.8624 19.5396L15.3408 19.1172C15.5712 19.0403 15.8014 18.9059 15.9743 18.7139L17.0495 17.4851L17.0493 20.0386C17.0493 20.6145 16.5693 21.0753 16.0126 21.0753H3.91661C3.34072 21.0753 2.87988 20.5953 2.87988 20.0386V5.61936C2.87988 5.0626 3.35988 4.60176 3.91661 4.60176H5.47192V3.91056C5.47192 3.3538 5.91348 2.9314 6.45108 2.9314C7.00785 2.9314 7.43025 3.35383 7.43025 3.91056L7.43038 4.60176H8.98555V3.91056C8.98555 3.3538 9.42711 2.9314 9.96472 2.9314C10.5023 2.9314 10.9439 3.35383 10.9439 3.91056V4.60176H12.499V3.91056C12.499 3.3538 12.9214 2.9314 13.4592 2.9314C13.9968 2.9314 14.4383 3.35383 14.4383 3.91056V4.60176H15.9935C16.5694 4.60176 17.0302 5.06263 17.0302 5.61936L17.0304 10.957L12.7296 15.8722C12.7178 15.8879 12.7067 15.9029 12.6962 15.9172C12.6554 15.9727 12.6217 16.0185 12.576 16.0642H6.87356C6.52789 16.0642 6.25909 16.3523 6.25909 16.6787C6.25909 17.0244 6.52803 17.2932 6.87356 17.2932L12.288 17.2933L12.1728 18.0612C12.1152 18.4452 12.2304 18.8292 12.48 19.1364C12.7296 19.4245 13.0945 19.5972 13.4784 19.5972C13.6128 19.5972 13.7472 19.5781 13.8624 19.5396ZM13.0368 8.21163H6.87365C6.54726 8.21163 6.25918 8.48043 6.25918 8.82597C6.25918 9.15249 6.52812 9.44043 6.87365 9.44043L13.0368 9.44057C13.3825 9.44057 13.6513 9.15248 13.6513 8.8261C13.6513 8.48042 13.3824 8.21163 13.0368 8.21163ZM13.0368 12.1476H6.87365C6.54726 12.1476 6.25918 12.4164 6.25918 12.762C6.25918 13.0885 6.52812 13.3764 6.87365 13.3764L13.0368 13.3766C13.3825 13.3766 13.6513 13.0885 13.6513 12.7621C13.6513 12.4164 13.3824 12.1476 13.0368 12.1476Z" fill="#787C89"/>
<path d="M13.613 18.5989C13.3442 18.6758 13.1137 18.4646 13.1522 18.2149L13.4018 16.6982C13.4018 16.6213 13.421 16.5637 13.4785 16.5061L13.9009 16.0261L15.6482 17.5813L15.2258 18.0613C15.1873 18.0997 15.1297 18.1382 15.0722 18.1573L13.613 18.5989Z" fill="#787C89"/>
<path d="M14.4192 15.4499L16.1664 17.0051L19.776 12.8771L18.0288 11.3411L14.4192 15.4499Z" fill="#787C89"/>
<path d="M19.7762 9.90131L21.005 10.9765C21.1393 11.1108 21.1586 11.322 21.0242 11.4565L20.2946 12.282L18.5474 10.746L19.277 9.92046C19.4113 9.78613 19.6225 9.76684 19.7762 9.90131Z" fill="#787C89"/>
</svg>
