<svg width="24" height="24" viewBox="0 0 24 24" fill="none" xmlns="http://www.w3.org/2000/svg">
<path d="M11 3C10.7239 3 10.5 3.22386 10.5 3.5V4.5C10.5 4.77614 10.7239 5 11 5H14C14.2761 5 14.5 4.77614 14.5 4.5V3.5C14.5 3.22386 14.2761 3 14 3H11Z" fill="#787C89"/>
<path fill-rule="evenodd" clip-rule="evenodd" d="M8 4H9V5C9 5.55228 9.44772 6 10 6H15C15.5523 6 16 5.55228 16 5V4H17C18.6569 4 20 5.34315 20 7V19C20 20.6569 18.6569 22 17 22H8C6.34315 22 5 20.6569 5 19V7C5 5.34315 6.34315 4 8 4ZM8 11C8 10.4477 8.44772 10 9 10H14C14.5523 10 15 10.4477 15 11C15 11.5523 14.5523 12 14 12H9C8.44772 12 8 11.5523 8 11ZM9 14C8.44772 14 8 14.4477 8 15C8 15.5523 8.44772 16 9 16H16C16.5523 16 17 15.5523 17 15C17 14.4477 16.5523 14 16 14H9Z" fill="#787C89"/>
</svg>
