<svg width="24" height="24" viewBox="0 0 24 24" fill="none" xmlns="http://www.w3.org/2000/svg">
<path d="M7.84 3C7.38713 3 7.02 3.36713 7.02 3.82001V5H5.1C4.54305 5 4.0089 5.22125 3.61508 5.61508C3.22125 6.0089 3 6.54305 3 7.10001V9.39999C3 9.67615 3.22386 9.89999 3.5 9.89999H20.5C20.7761 9.89999 21 9.67615 21 9.39999V7.10001C21 5.9402 20.0598 5 18.9 5H16.98V3.82001C16.98 3.36713 16.6129 3 16.16 3C15.7071 3 15.34 3.36713 15.34 3.82001V5H8.66V3.82001C8.66 3.36713 8.29287 3 7.84 3Z" fill="#787C89"/>
<path fill-rule="evenodd" clip-rule="evenodd" d="M3.5 11H20.5C20.7761 11 21 11.2239 21 11.5V13.9996C20.1643 13.3719 19.1256 13 18 13C15.2386 13 13 15.2386 13 18C13 19.1256 13.3719 20.1643 13.9996 21H5.1C4.54305 21 4.0089 20.7787 3.61508 20.3849C3.22125 19.9911 3 19.457 3 18.9V11.5C3 11.2239 3.22386 11 3.5 11ZM7 13C6.44772 13 6 13.4477 6 14C6 14.5523 6.44772 15 7 15H12C12.5523 15 13 14.5523 13 14C13 13.4477 12.5523 13 12 13H7Z" fill="#787C89"/>
<path d="M16.3218 17.7925H16.8029C16.9323 17.7925 17.0383 17.7747 17.1208 17.7391C17.2033 17.7025 17.2643 17.6495 17.3037 17.5801C17.344 17.5098 17.3641 17.4235 17.3641 17.3213C17.3641 17.2191 17.344 17.1319 17.3037 17.0597C17.2633 16.9865 17.2019 16.9312 17.1194 16.8937C17.0369 16.8553 16.9304 16.836 16.8001 16.836H16.3218V17.7925Z" fill="#787C89"/>
<path d="M18.9121 18.5676C18.8727 18.4625 18.853 18.3402 18.853 18.2004C18.853 18.0607 18.8722 17.9393 18.9107 17.8361C18.9501 17.733 19.0077 17.6528 19.0837 17.5956C19.1597 17.5384 19.252 17.5098 19.3608 17.5098C19.4743 17.5098 19.569 17.5393 19.6449 17.5984C19.7209 17.6575 19.7781 17.7391 19.8165 17.8432C19.855 17.9473 19.8742 18.0663 19.8742 18.2004C19.8742 18.3355 19.8545 18.456 19.8151 18.5619C19.7767 18.667 19.7195 18.75 19.6435 18.8109C19.5676 18.8709 19.4733 18.9009 19.3608 18.9009C19.253 18.9009 19.1611 18.8719 19.0851 18.8137C19.0101 18.7546 18.9524 18.6726 18.9121 18.5676Z" fill="#787C89"/>
<path fill-rule="evenodd" clip-rule="evenodd" d="M22 18C22 20.2091 20.2091 22 18 22C15.7909 22 14 20.2091 14 18C14 15.7909 15.7909 14 18 14C20.2091 14 22 15.7909 22 18ZM15.8 19.2807V16.4H16.8803C17.1016 16.4 17.2872 16.4384 17.4373 16.5153C17.5883 16.5922 17.7022 16.7001 17.7791 16.8389C17.8569 16.9767 17.8958 17.1375 17.8958 17.3213C17.8958 17.5061 17.8564 17.6664 17.7777 17.8024C17.6998 17.9374 17.585 18.042 17.4331 18.1161C17.4153 18.1246 17.397 18.1327 17.3782 18.1402L18.0013 19.2807H17.419L16.8529 18.2258H16.3218V19.2807H15.8ZM18.3537 20.0909V17.1202H18.8544V17.4775H18.884C18.9102 17.4249 18.9473 17.3691 18.9951 17.3101C19.0429 17.2501 19.1076 17.1989 19.1892 17.1567C19.2708 17.1136 19.3749 17.092 19.5015 17.092C19.6684 17.092 19.8189 17.1347 19.953 17.22C20.088 17.3044 20.1949 17.4296 20.2737 17.5956C20.3534 17.7607 20.3932 17.9632 20.3932 18.2033C20.3932 18.4405 20.3543 18.6421 20.2765 18.8081C20.1987 18.9741 20.0927 19.1007 19.9586 19.1879C19.8245 19.2751 19.6726 19.3187 19.5029 19.3187C19.3791 19.3187 19.2764 19.2981 19.1948 19.2568C19.1132 19.2155 19.0476 19.1658 18.9979 19.1077C18.9491 19.0486 18.9112 18.9928 18.884 18.9403H18.8629V20.0909H18.3537Z" fill="#787C89"/>
</svg>
