<svg width="24" height="24" viewBox="0 0 24 24" fill="none" xmlns="http://www.w3.org/2000/svg">
<path d="M9.1875 4.5H7.78125C7.40829 4.5 7.0506 4.65804 6.78688 4.93934C6.52316 5.22064 6.375 5.60218 6.375 6V18C6.375 18.3978 6.52316 18.7794 6.78688 19.0607C7.0506 19.342 7.40829 19.5 7.78125 19.5H9.1875C9.56046 19.5 9.91815 19.342 10.1819 19.0607C10.4456 18.7794 10.5938 18.3978 10.5938 18V6C10.5938 5.60218 10.4456 5.22064 10.1819 4.93934C9.91815 4.65804 9.56046 4.5 9.1875 4.5ZM16.2188 4.5H14.8125C14.4395 4.5 14.0819 4.65804 13.8181 4.93934C13.5544 5.22064 13.4062 5.60218 13.4062 6V18C13.4062 18.3978 13.5544 18.7794 13.8181 19.0607C14.0819 19.342 14.4395 19.5 14.8125 19.5H16.2188C16.5917 19.5 16.9494 19.342 17.2131 19.0607C17.4768 18.7794 17.625 18.3978 17.625 18V6C17.625 5.60218 17.4768 5.22064 17.2131 4.93934C16.9494 4.65804 16.5917 4.5 16.2188 4.5Z" fill="#787C89"/>
</svg>
