<svg width="24" height="24" viewBox="0 0 24 24" fill="none" xmlns="http://www.w3.org/2000/svg">
<path d="M7.5 8C8.29565 8 9.05871 7.68393 9.62132 7.12132C10.1839 6.55871 10.5 5.79565 10.5 5C10.5 4.20435 10.1839 3.44129 9.62132 2.87868C9.05871 2.31607 8.29565 2 7.5 2C6.70435 2 5.94129 2.31607 5.37868 2.87868C4.81607 3.44129 4.5 4.20435 4.5 5C4.5 5.79565 4.81607 6.55871 5.37868 7.12132C5.94129 7.68393 6.70435 8 7.5 8ZM2 10.768C2 9.79 2.791 9 3.768 9H8.535C8.1834 9.60782 7.99883 10.2978 8 11C7.99933 11.5676 8.11976 12.1288 8.35325 12.6461C8.58674 13.1635 8.92792 13.625 9.354 14H8.268C7.7044 14 7.15421 14.172 6.6909 14.4929C6.22758 14.8138 5.87318 15.2684 5.675 15.796C4.177 15.43 3.248 14.613 2.701 13.703C2 12.536 2 11.336 2 11.127V10.768ZM16 11C16.0012 10.2978 15.8166 9.6078 15.465 9H20.232C21.21 9 22 9.791 22 10.768V11.128C22 11.335 22 12.536 21.3 13.703C20.752 14.613 19.823 15.43 18.325 15.796C18.1269 15.2683 17.7726 14.8136 17.3092 14.4927C16.8459 14.1718 16.2956 13.9999 15.732 14H14.646C15.0721 13.625 15.4133 13.1635 15.6468 12.6461C15.8802 12.1288 16.0007 11.5676 16 11ZM19.5 5C19.5 5.79565 19.1839 6.55871 18.6213 7.12132C18.0587 7.68393 17.2956 8 16.5 8C15.7044 8 14.9413 7.68393 14.3787 7.12132C13.8161 6.55871 13.5 5.79565 13.5 5C13.5 4.20435 13.8161 3.44129 14.3787 2.87868C14.9413 2.31607 15.7044 2 16.5 2C17.2956 2 18.0587 2.31607 18.6213 2.87868C19.1839 3.44129 19.5 4.20435 19.5 5ZM6.5 16.768C6.5 15.79 7.291 15 8.268 15H15.732C16.709 15 17.5 15.791 17.5 16.768V17.128C17.5 17.335 17.5 18.536 16.8 19.703C16.057 20.937 14.613 22 12 22C9.387 22 7.942 20.937 7.2 19.703C6.5 18.536 6.5 17.336 6.5 17.127V16.768ZM12 14C12.394 14 12.7841 13.9224 13.1481 13.7716C13.512 13.6209 13.8427 13.3999 14.1213 13.1213C14.3999 12.8427 14.6209 12.512 14.7716 12.1481C14.9224 11.7841 15 11.394 15 11C15 10.606 14.9224 10.2159 14.7716 9.85195C14.6209 9.48797 14.3999 9.15726 14.1213 8.87868C13.8427 8.6001 13.512 8.37913 13.1481 8.22836C12.7841 8.0776 12.394 8 12 8C11.2044 8 10.4413 8.31607 9.87868 8.87868C9.31607 9.44129 9 10.2044 9 11C9 11.7956 9.31607 12.5587 9.87868 13.1213C10.4413 13.6839 11.2044 14 12 14Z" fill="#787C89"/>
</svg>
