<svg width="24" height="24" viewBox="0 0 24 24" fill="none" xmlns="http://www.w3.org/2000/svg">
<path d="M12.9959 16.0913V15.4009C12.9959 14.8767 13.1113 14.3951 13.342 13.9562C13.5772 13.5129 13.9167 13.1592 14.3605 12.895C14.8087 12.6265 15.3545 12.4922 15.998 12.4922C16.6503 12.4922 17.1983 12.6244 17.6421 12.8886C18.0903 13.1528 18.4275 13.5065 18.6539 13.9498C18.8846 14.3887 19 14.8725 19 15.4009V16.0913C19 16.6155 18.8846 17.0992 18.6539 17.5425C18.4231 17.9814 18.0836 18.333 17.6354 18.5973C17.1872 18.8658 16.6414 19 15.998 19C15.3456 19 14.7976 18.8658 14.3538 18.5973C13.9101 18.333 13.5728 17.9814 13.342 17.5425C13.1113 17.0992 12.9959 16.6155 12.9959 16.0913ZM14.9329 15.4009V16.0913C14.9329 16.3939 15.0084 16.6795 15.1592 16.9479C15.3146 17.2164 15.5941 17.3507 15.998 17.3507C16.4018 17.3507 16.6769 17.2186 16.8233 16.9543C16.9742 16.6901 17.0497 16.4024 17.0497 16.0913V15.4009C17.0497 15.0898 16.9787 14.8 16.8367 14.5315C16.6947 14.263 16.4151 14.1288 15.998 14.1288C15.5986 14.1288 15.3212 14.263 15.1659 14.5315C15.0106 14.8 14.9329 15.0898 14.9329 15.4009ZM6 8.59909V7.90868C6 7.38021 6.1176 6.8965 6.35279 6.45753C6.58798 6.01431 6.92746 5.66058 7.37122 5.39635C7.81942 5.13212 8.36081 5 8.99539 5C9.65216 5 10.2024 5.13212 10.6462 5.39635C11.0899 5.66058 11.4272 6.01431 11.658 6.45753C11.8887 6.8965 12.0041 7.38021 12.0041 7.90868V8.59909C12.0041 9.12755 11.8865 9.61126 11.6513 10.0502C11.4206 10.4892 11.0811 10.8408 10.6329 11.105C10.1891 11.365 9.64328 11.495 8.99539 11.495C8.3475 11.495 7.79945 11.3629 7.35125 11.0986C6.90749 10.8301 6.57023 10.4785 6.33948 10.0438C6.11316 9.60487 6 9.12329 6 8.59909ZM7.95033 7.90868V8.59909C7.95033 8.9102 8.02577 9.19787 8.17665 9.4621C8.33197 9.72633 8.60488 9.85845 8.99539 9.85845C9.40365 9.85845 9.681 9.72633 9.82744 9.4621C9.97832 9.19787 10.0538 8.9102 10.0538 8.59909V7.90868C10.0538 7.59756 9.98276 7.30776 9.84076 7.03927C9.69875 6.77078 9.41697 6.63653 8.99539 6.63653C8.60044 6.63653 8.32753 6.77291 8.17665 7.04566C8.02577 7.31842 7.95033 7.60609 7.95033 7.90868ZM6.87865 18.5461L16.2509 5.45388H17.9949L8.62263 18.5461H6.87865Z" fill="#787C89"/>
</svg>
