<svg width="24" height="24" viewBox="0 0 24 24" fill="none" xmlns="http://www.w3.org/2000/svg">
<path d="M10.61 12.22C13.156 12.22 15.22 10.156 15.22 7.61C15.22 5.06397 13.156 3 10.61 3C8.06397 3 6 5.06397 6 7.61C6 10.156 8.06397 12.22 10.61 12.22Z" fill="#787C89"/>
<path d="M11 14H6.65C3.52959 14 1 16.5296 1 19.65C1 20.1141 1.18437 20.5592 1.51256 20.8874C1.84075 21.2156 2.28587 21.4 2.75 21.4H11V14Z" fill="#787C89"/>
<path d="M12.6 21.4L14 20H18.965C18.8028 20.7988 18.0966 21.4 17.25 21.4H12.6Z" fill="#787C89"/>
<path d="M12 12.9087C12 12.4069 12.4069 12 12.9087 12H20.0913C20.5931 12 21 12.4069 21 12.9087V17.0913C21 17.5931 20.5931 18 20.0913 18H14.3564L12.6145 19.6628C12.3832 19.8836 12 19.7196 12 19.3998V12.9087Z" fill="#787C89"/>
</svg>
