<svg width="24" height="24" viewBox="0 0 24 24" fill="none" xmlns="http://www.w3.org/2000/svg">
<path d="M10.61 12.22C13.156 12.22 15.22 10.156 15.22 7.61C15.22 5.06397 13.156 3 10.61 3C8.06397 3 6 5.06397 6 7.61C6 10.156 8.06397 12.22 10.61 12.22Z" fill="#787C89"/>
<path d="M11.6829 13.5996C11.5251 14.083 11.5297 14.6454 11.7334 15.188L12.689 17.7073C13.092 18.775 14.1378 19.403 15.1111 19.1619C15.5731 19.0507 16.0271 18.9113 16.471 18.7442C17.2839 18.435 18.0605 18.0359 18.7895 17.5526L19.5024 16.9323C19.8292 17.6555 20.0011 18.445 20 19.2496C20 20.2161 19.2165 20.9996 18.25 20.9996H3.75C3.28587 20.9996 2.84075 20.8152 2.51256 20.487C2.18437 20.1589 2 19.7137 2 19.2496C2 16.1292 4.52959 13.5996 7.65 13.5996H11.6829Z" fill="#787C89"/>
<path d="M14.2836 13.7812L15.6989 13.2444C15.7876 13.2114 15.8845 13.2069 15.976 13.2317L16.5122 13.3637C16.6013 13.3894 16.6972 13.371 16.7706 13.3144C17.8029 12.3929 18.3924 11.0744 18.3908 9.69062C18.3825 9.59878 18.3331 9.51563 18.2564 9.46449L17.802 9.15071C17.7266 9.10129 17.6677 9.03059 17.6326 8.94758L17.0958 7.53232C16.8608 6.9057 17.1753 6.20684 17.8001 5.96717L19.1729 5.44651C19.7539 5.2272 20.4069 5.48007 20.6887 6.03349C20.823 6.2957 20.943 6.56502 21.0481 6.84026C21.2393 7.34558 21.3806 7.86838 21.47 8.40119C21.9893 11.5794 20.5579 14.76 17.8348 16.479C17.3767 16.7654 16.8917 17.0064 16.3867 17.1984C16.111 17.3022 15.8298 17.391 15.5444 17.4644C14.9431 17.6227 14.3194 17.3009 14.0999 16.7191L13.5792 15.3464C13.3442 14.7197 13.6587 14.0209 14.2836 13.7812Z" fill="#787C89"/>
</svg>
