<svg width="24" height="24" viewBox="0 0 24 24" fill="none" xmlns="http://www.w3.org/2000/svg">
<path d="M4.99994 8C4.99994 7.24368 5.47074 5.98744 6.57608 4.90052C7.64804 3.84643 9.27459 3 11.4999 3C15.3903 3 17.4393 5.91703 18.139 8.04011C17.7514 8.15351 17.4586 8.49572 17.4235 8.91695L17.0902 12.917C17.0416 13.5 17.5017 14 18.0867 14H19.5798C20.0999 14 20.5332 13.6013 20.5764 13.083L20.9097 9.08305C20.9493 8.60745 20.6505 8.18708 20.2214 8.04832C19.5703 5.44893 17.0048 1 11.4999 1C8.72529 1 6.60184 2.07023 5.1738 3.47448C3.77914 4.8459 2.99994 6.58965 2.99994 8L2.99995 8.0037C2.45695 8.05022 2.04404 8.52918 2.09019 9.08305L2.42353 13.083C2.46672 13.6013 2.89998 14 3.42007 14H4.91314C5.49818 14 5.95827 13.5 5.90969 12.917L5.57635 8.91695C5.54546 8.54622 5.31498 8.23669 4.9959 8.0905C4.99857 8.06069 4.99994 8.0305 4.99994 8Z" fill="#787C89"/>
<path d="M11.6099 15.22C14.156 15.22 16.2199 13.156 16.2199 10.61C16.2199 8.06397 14.156 6 11.6099 6C9.06391 6 6.99994 8.06397 6.99994 10.61C6.99994 13.156 9.06391 15.22 11.6099 15.22Z" fill="#787C89"/>
<path d="M18.8799 18.1351C17.9275 17.418 16.4935 17.0009 14.9777 17H9.02216C6.24846 17 3.99994 18.3673 3.99994 20.0541C3.99994 20.3049 4.16383 20.5455 4.45555 20.7229C4.74727 20.9003 5.14294 21 5.55549 21H18.4444C19.3035 21 19.9999 20.5765 19.9999 20.0541C20.0015 19.355 19.6058 18.6772 18.8799 18.1351Z" fill="#787C89"/>
</svg>
