<svg width="24" height="24" viewBox="0 0 24 24" fill="none" xmlns="http://www.w3.org/2000/svg">
<path d="M9.78003 9.53333C11.9892 9.53333 13.78 7.74246 13.78 5.53333C13.78 3.32419 11.9892 1.53333 9.78003 1.53333C7.57089 1.53333 5.78003 3.32419 5.78003 5.53333C5.78003 7.74246 7.57089 9.53333 9.78003 9.53333Z" fill="#787C89"/>
<path d="M10.0383 21.2134C10.3768 21.2134 10.6001 20.7403 10.5502 20.4056C10.5045 20.0991 10.5594 19.786 10.7066 19.5134C10.8897 19.168 10.7074 18.74 10.3333 18.6267C10.0369 18.534 9.77895 18.3471 9.59847 18.0944C9.418 17.8417 9.32488 17.5371 9.33325 17.2267V15.86C9.33269 15.551 9.43156 15.25 9.61524 15.0015C9.79892 14.753 10.0577 14.5702 10.3533 14.48L10.3607 14.4778C10.7344 14.3646 10.9134 13.9398 10.7333 13.5934C10.5904 13.3244 10.536 13.0172 10.5779 12.7156C10.6296 12.3434 10.4398 11.8499 10.0647 11.828C9.85001 11.8154 9.63503 11.8083 9.41992 11.8067C7.89213 11.7707 6.37523 12.0724 4.97741 12.69C2.28397 13.8802 1.33325 17.0015 1.33325 19.9462V20.5467C1.33325 20.7235 1.40349 20.8931 1.52851 21.0181C1.65354 21.1431 1.82311 21.2134 1.99992 21.2134H10.0383Z" fill="#787C89"/>
<path fill-rule="evenodd" clip-rule="evenodd" d="M21.1334 15.24L22.4668 15.64C22.5087 15.6641 22.5432 15.6992 22.5667 15.7415C22.5902 15.7838 22.6017 15.8316 22.6001 15.88V17.26C22.5972 17.3125 22.5785 17.3629 22.5463 17.4046C22.5142 17.4463 22.4702 17.4772 22.4201 17.4933L21.0868 17.9C20.9936 18.2195 20.8662 18.5279 20.7068 18.82L21.3734 20.0733C21.3984 20.1202 21.4079 20.1738 21.4007 20.2264C21.3936 20.2791 21.37 20.3281 21.3334 20.3666L20.3601 21.3333C20.3216 21.3699 20.2725 21.3934 20.2199 21.4006C20.1672 21.4078 20.1137 21.3982 20.0668 21.3733L18.8068 20.7066C18.5153 20.8673 18.2067 20.9948 17.8868 21.0866L17.4868 22.4533C17.4704 22.5027 17.4392 22.5458 17.3974 22.5768C17.3557 22.6078 17.3054 22.6252 17.2534 22.6266H15.8868C15.8336 22.6266 15.7819 22.6098 15.7388 22.5787C15.6957 22.5476 15.6635 22.5037 15.6468 22.4533L15.2468 21.0866C14.923 20.9936 14.6101 20.8662 14.3134 20.7066L13.0668 21.3733C13.0198 21.3982 12.9663 21.4078 12.9136 21.4006C12.861 21.3934 12.8119 21.3699 12.7734 21.3333L11.7801 20.3666C11.7415 20.3295 11.7161 20.2807 11.7077 20.2278C11.6992 20.1749 11.7083 20.1206 11.7334 20.0733L12.4001 18.8066C12.2341 18.5082 12.1 18.1932 12.0001 17.8666L10.6668 17.46C10.6163 17.4454 10.5721 17.4147 10.5407 17.3725C10.5094 17.3304 10.4928 17.2791 10.4934 17.2266V15.86C10.4928 15.8075 10.5094 15.7562 10.5407 15.7141C10.5721 15.6719 10.6163 15.6412 10.6668 15.6266L12.0001 15.22C12.1095 14.8874 12.2548 14.5678 12.4334 14.2666L11.7668 13.0533C11.7416 13.006 11.7326 12.9518 11.741 12.8988C11.7494 12.8459 11.7748 12.7972 11.8134 12.76L12.7934 11.8C12.832 11.7634 12.881 11.7399 12.9336 11.7327C12.9863 11.7255 13.0398 11.735 13.0868 11.76L14.2934 12.4266C14.599 12.2544 14.9233 12.118 15.2601 12.02L15.6601 10.6866C15.6765 10.6373 15.7077 10.5942 15.7494 10.5632C15.7912 10.5322 15.8414 10.5148 15.8934 10.5133H17.2801C17.3324 10.5129 17.3836 10.5287 17.4265 10.5586C17.4695 10.5884 17.5022 10.6308 17.5201 10.68L17.9268 12.0133C18.2571 12.1144 18.5765 12.2484 18.8801 12.4133L20.1134 11.7466C20.1602 11.7241 20.2128 11.7165 20.2641 11.7248C20.3154 11.7332 20.3629 11.7571 20.4001 11.7933L21.3668 12.7666C21.4058 12.8021 21.4317 12.8498 21.4401 12.9018C21.4486 12.9539 21.4392 13.0073 21.4134 13.0533L20.7468 14.2933C20.9113 14.5931 21.041 14.9107 21.1334 15.24ZM15.3412 18.4146C15.7083 18.6585 16.1394 18.788 16.5801 18.7866C17.1695 18.7849 17.7341 18.5495 18.1503 18.1321C18.5664 17.7147 18.8001 17.1494 18.8001 16.56C18.8001 16.1193 18.6693 15.6885 18.4244 15.3222C18.1794 14.9559 17.8312 14.6705 17.424 14.5022C17.0167 14.3338 16.5687 14.2901 16.1366 14.3766C15.7045 14.4631 15.3077 14.6758 14.9966 14.9879C14.6854 15.2999 14.4739 15.6973 14.3887 16.1297C14.3036 16.562 14.3486 17.01 14.5182 17.4167C14.6877 17.8235 14.9742 18.1708 15.3412 18.4146Z" fill="#787C89"/>
</svg>
