<svg width="24" height="24" viewBox="0 0 24 24" fill="none" xmlns="http://www.w3.org/2000/svg">
<path d="M18.8155 13.9064H16.0909C15.9204 13.9075 15.7545 13.9618 15.6164 14.0618L14.7982 14.6264C14.6646 14.7264 14.4914 14.7568 14.3318 14.7082C12.0063 13.8163 10.1724 11.9735 9.29182 9.64363C9.24709 9.48381 9.27717 9.31233 9.37364 9.17727L9.93818 8.35909C10.0335 8.22782 10.0876 8.07118 10.0936 7.90909V5.18454C10.0891 3.97992 9.11372 3.00449 7.90909 3H5.26636C4.14852 3.00178 3.21096 3.84417 3.09 4.95545C3.03125 5.48252 3.00121 6.0124 3 6.54273C3.00086 7.5152 3.09677 8.48527 3.28636 9.43909C4.44115 15.1195 8.88054 19.5588 14.5609 20.7136C15.5147 20.9032 16.4848 20.9991 17.4573 21C17.9876 20.9988 18.5175 20.9687 19.0445 20.91C20.1577 20.7926 21.002 19.8529 21 18.7336V16.0909C20.9955 14.8863 20.0201 13.9108 18.8155 13.9064Z" fill="#787C89"/>
</svg>
