<svg width="24" height="24" viewBox="0 0 24 24" fill="none" xmlns="http://www.w3.org/2000/svg">
<path d="M5.75001 19.5C5.58425 19.5 5.42527 19.4342 5.30806 19.3169C5.19085 19.1997 5.125 19.0408 5.125 18.875V5.1249C5.12502 5.01629 5.15334 4.90956 5.20717 4.81523C5.261 4.7209 5.33848 4.64223 5.43198 4.58697C5.52547 4.5317 5.63175 4.50175 5.74035 4.50007C5.84895 4.4984 5.9561 4.52504 6.05126 4.57739L18.5514 11.4524C18.6494 11.5064 18.7311 11.5857 18.7881 11.682C18.845 11.7783 18.875 11.8881 18.875 11.9999C18.875 12.1118 18.845 12.2216 18.7881 12.3179C18.7311 12.4142 18.6494 12.4935 18.5514 12.5475L6.05126 19.4225C5.95898 19.4733 5.85535 19.5 5.75001 19.5Z" fill="#787C89"/>
</svg>
