<svg width="24" height="24" viewBox="0 0 24 24" fill="none" xmlns="http://www.w3.org/2000/svg">
<path fill-rule="evenodd" clip-rule="evenodd" d="M7.75 3.8999H16.25C16.8829 3.90533 17.3946 4.41704 17.4 5.0499V6.3499C17.3946 6.98277 16.8829 7.49447 16.25 7.4999H7.75C7.11714 7.49447 6.60543 6.98277 6.6 6.3499V5.0499C6.60543 4.41704 7.11714 3.90533 7.75 3.8999ZM5.7 8.3999H18.3C19.7912 8.3999 21 9.60873 21 11.0999V15.5599C21 16.0791 20.5791 16.4999 20.06 16.4999H17.4V19.2599C17.3946 19.7216 17.0217 20.0945 16.56 20.0999H7.44C6.97834 20.0945 6.6054 19.7216 6.6 19.2599V16.4999H3.94C3.42085 16.4999 3 16.0791 3 15.5599V11.0999C3 9.60873 4.20883 8.3999 5.7 8.3999ZM8.4 18.2999H15.6V13.7999H8.4V18.2999ZM18.3 11.9999C17.8029 11.9999 17.4 11.597 17.4 11.0999C17.4 10.6028 17.8029 10.1999 18.3 10.1999C18.7971 10.1999 19.2 10.6028 19.2 11.0999C19.2 11.597 18.7971 11.9999 18.3 11.9999Z" fill="#787C89"/>
</svg>
