<svg width="24" height="24" viewBox="0 0 24 24" fill="none" xmlns="http://www.w3.org/2000/svg">
<path fill-rule="evenodd" clip-rule="evenodd" d="M12 2C6.47715 2 2 6.47715 2 12C2 17.5228 6.47715 22 12 22C17.5228 22 22 17.5228 22 12C22 6.47715 17.5228 2 12 2ZM13.2778 17.8111C13.2779 17.9374 13.2256 18.0582 13.1333 18.1444C13.0443 18.2327 12.9253 18.2842 12.8 18.2889H11.2778C11.1489 18.2859 11.0258 18.2343 10.9333 18.1444C10.8482 18.0543 10.8006 17.9351 10.8 17.8111V16.2444C10.8006 16.1204 10.8482 16.0013 10.9333 15.9111C11.0258 15.8212 11.1489 15.7696 11.2778 15.7667H12.8C12.9253 15.7713 13.0443 15.8229 13.1333 15.9111C13.2256 15.9974 13.2779 16.1181 13.2778 16.2444V17.8111ZM15.6778 11.4444C15.9075 11.156 16.0981 10.8384 16.2444 10.5C16.3912 10.1098 16.4592 9.6944 16.4444 9.27778C16.4617 8.74085 16.3392 8.20864 16.0889 7.73333C15.8453 7.29789 15.5121 6.91916 15.1111 6.62222C14.6868 6.31771 14.2132 6.08844 13.7111 5.94444C13.1845 5.78847 12.6381 5.70987 12.0889 5.71111C11.4828 5.70608 10.882 5.82323 10.3222 6.05556C9.80079 6.26027 9.31655 6.54931 8.88889 6.91111C8.50604 7.23962 8.18604 7.63492 7.94444 8.07778C7.71289 8.46171 7.57934 8.89672 7.55556 9.34444C7.55205 9.4398 7.58826 9.53234 7.65556 9.6C7.72549 9.67197 7.82187 9.71213 7.92222 9.71111H9.35556C9.47193 9.72143 9.58769 9.6855 9.67778 9.61111C9.7554 9.52524 9.81914 9.42777 9.86667 9.32222C10.2139 8.3997 11.1033 7.79487 12.0889 7.81111C12.625 7.78314 13.1545 7.94003 13.5889 8.25556C13.95 8.5093 14.1622 8.92533 14.1556 9.36667C14.158 9.61088 14.0799 9.84908 13.9333 10.0444C13.761 10.2733 13.5634 10.482 13.3444 10.6667C13.1111 10.8778 12.8556 11.0889 12.5778 11.3111C12.2971 11.5399 12.0369 11.7927 11.8 12.0667C11.5487 12.3502 11.3391 12.6683 11.1778 13.0111C10.9949 13.3891 10.8964 13.8024 10.8889 14.2222C10.8725 14.3522 10.9226 14.4816 11.0222 14.5667C11.1119 14.6607 11.2368 14.713 11.3667 14.7111H12.7111C12.832 14.7155 12.9476 14.6618 13.0222 14.5667C13.11 14.4748 13.168 14.3586 13.1889 14.2333C13.2278 13.9642 13.3392 13.7107 13.5111 13.5C13.7089 13.2688 13.9244 13.0534 14.1556 12.8556L14.9222 12.2C15.1958 11.9709 15.4486 11.718 15.6778 11.4444Z" fill="#787C89"/>
</svg>
