<svg width="24" height="24" viewBox="0 0 24 24" fill="none" xmlns="http://www.w3.org/2000/svg">
<path d="M8 12.052C9.995 12.052 11.5 10.547 11.5 8.552C11.5 6.557 9.995 5.052 8 5.052C6.005 5.052 4.5 6.557 4.5 8.552C4.5 10.547 6.005 12.052 8 12.052ZM9 13H7C4.243 13 2 15.243 2 18V19H14V18C14 15.243 11.757 13 9 13ZM20.6472 8.64623C20.4522 8.45062 20.1355 8.45025 19.9399 8.6454L16.3476 12.2311C16.1522 12.4261 15.8359 12.4259 15.6408 12.2308L15.0556 11.6456C14.8603 11.4503 14.5437 11.4503 14.3484 11.6456L13.6417 12.3523C13.4464 12.5476 13.4464 12.8643 13.6418 13.0596L15.6408 15.057C15.8359 15.252 16.1522 15.2521 16.3474 15.0572L21.3523 10.0611C21.5477 9.86604 21.548 9.5496 21.3531 9.35414L20.6472 8.64623Z" fill="#787C89"/>
</svg>
