<svg width="24" height="24" viewBox="0 0 24 24" fill="none" xmlns="http://www.w3.org/2000/svg">
<path d="M3.59998 6.0001C3.59998 5.36358 3.85283 4.75313 4.30292 4.30304C4.75301 3.85295 5.36346 3.6001 5.99998 3.6001H14.4C15.0365 3.6001 15.6469 3.85295 16.097 4.30304C16.5471 4.75313 16.8 5.36358 16.8 6.0001V14.4001H20.4V16.8001C20.4 17.7549 20.0207 18.6706 19.3456 19.3457C18.6704 20.0208 17.7548 20.4001 16.8 20.4001H7.19998C6.2452 20.4001 5.32952 20.0208 4.65439 19.3457C3.97926 18.6706 3.59998 17.7549 3.59998 16.8001V6.0001ZM16.8 19.2001C17.4365 19.2001 18.0469 18.9472 18.497 18.4972C18.9471 18.0471 19.2 17.4366 19.2 16.8001V15.6001H16.8V19.2001ZM7.79998 7.2001C7.64085 7.2001 7.48823 7.26331 7.37571 7.37583C7.26319 7.48836 7.19998 7.64097 7.19998 7.8001C7.19998 7.95923 7.26319 8.11184 7.37571 8.22436C7.48823 8.33688 7.64085 8.4001 7.79998 8.4001H12.6C12.7591 8.4001 12.9117 8.33688 13.0242 8.22436C13.1368 8.11184 13.2 7.95923 13.2 7.8001C13.2 7.64097 13.1368 7.48836 13.0242 7.37583C12.9117 7.26331 12.7591 7.2001 12.6 7.2001H7.79998ZM7.79998 10.8001C7.64085 10.8001 7.48823 10.8633 7.37571 10.9758C7.26319 11.0884 7.19998 11.241 7.19998 11.4001C7.19998 11.5592 7.26319 11.7118 7.37571 11.8244C7.48823 11.9369 7.64085 12.0001 7.79998 12.0001H12.6C12.7591 12.0001 12.9117 11.9369 13.0242 11.8244C13.1368 11.7118 13.2 11.5592 13.2 11.4001C13.2 11.241 13.1368 11.0884 13.0242 10.9758C12.9117 10.8633 12.7591 10.8001 12.6 10.8001H7.79998ZM7.79998 14.4001C7.64085 14.4001 7.48823 14.4633 7.37571 14.5758C7.26319 14.6884 7.19998 14.841 7.19998 15.0001C7.19998 15.1592 7.26319 15.3118 7.37571 15.4244C7.48823 15.5369 7.64085 15.6001 7.79998 15.6001H10.2C10.3591 15.6001 10.5117 15.5369 10.6242 15.4244C10.7368 15.3118 10.8 15.1592 10.8 15.0001C10.8 14.841 10.7368 14.6884 10.6242 14.5758C10.5117 14.4633 10.3591 14.4001 10.2 14.4001H7.79998Z" fill="#787C89"/>
</svg>
