<svg width="24" height="24" viewBox="0 0 24 24" fill="none" xmlns="http://www.w3.org/2000/svg">
<path fill-rule="evenodd" clip-rule="evenodd" d="M9.45056 6.95761C15.8675 7.2399 21.209 12.131 21.9956 18.5551C22.0281 18.8198 21.8776 19.0729 21.6297 19.1711C21.5595 19.1988 21.4864 19.2122 21.4144 19.2122C21.2316 19.2122 21.0543 19.1265 20.9413 18.9724C18.7795 16.0186 15.3084 14.2551 11.6562 14.2551C10.9204 14.2551 10.1805 14.3271 9.45056 14.4697V16.018C9.45056 17.1178 8.85135 17.5081 8.33835 17.5081C7.96466 17.5081 7.58563 17.3186 7.2121 16.9451L2.68344 12.4164C1.77219 11.5052 1.77219 10.0225 2.68344 9.11124L7.2121 4.58258C7.58563 4.20905 7.96466 4.01953 8.33835 4.01953C8.85135 4.01953 9.45056 4.40985 9.45056 5.5097V6.95761ZM11.6562 13.0836C13.6821 13.0836 15.6972 13.5737 17.4837 14.5013C18.5346 15.0469 19.5096 15.7442 20.3719 16.5613C18.8245 11.623 14.2066 8.11652 8.86478 8.11652C8.54129 8.11652 8.27899 7.85422 8.27899 7.53073V5.5097C8.27899 5.38657 8.26678 5.29684 8.2529 5.23566C8.19965 5.26892 8.12762 5.32401 8.0405 5.41098L3.51184 9.93964C3.05743 10.3942 3.05743 11.1335 3.51184 11.588L8.04065 16.1165C8.12762 16.2037 8.1998 16.2586 8.2529 16.2919C8.26678 16.2308 8.27899 16.141 8.27899 16.018V13.9968C8.27899 13.7253 8.46561 13.4893 8.72989 13.4267C9.69318 13.1989 10.6777 13.0836 11.6562 13.0836Z" fill="#787C89"/>
</svg>
