<svg width="24" height="24" viewBox="0 0 24 24" fill="none" xmlns="http://www.w3.org/2000/svg">
<path d="M21.9956 18.5355C21.209 12.1114 15.8675 7.22037 9.45056 6.93808V5.49017C9.45056 4.39032 8.85135 4 8.33835 4C7.96466 4 7.58563 4.18951 7.2121 4.56305L2.68344 9.09171C1.77219 10.003 1.77219 11.4857 2.68344 12.3969L7.2121 16.9256C7.58563 17.2991 7.96466 17.4886 8.33835 17.4886C8.8515 17.4886 9.45056 17.0983 9.45056 15.9984V14.4501C10.1805 14.3076 10.9204 14.2356 11.6564 14.2356C15.3086 14.2356 18.7796 15.9991 20.9415 18.9529C21.0544 19.107 21.2317 19.1927 21.4144 19.1927C21.4865 19.1927 21.5596 19.1793 21.6298 19.1515C21.8776 19.0534 22.0281 18.8003 21.9956 18.5355Z" fill="#787C89"/>
</svg>
