<svg width="24" height="24" viewBox="0 0 24 24" fill="none" xmlns="http://www.w3.org/2000/svg">
<path d="M15.6525 12.1009C15.551 11.9993 15.4137 11.9423 15.2706 11.9423C15.1275 11.9423 14.9902 11.9993 14.8888 12.1009C14.7879 12.2031 14.7312 12.3413 14.7312 12.4854C14.7312 12.6295 14.7879 12.7677 14.8888 12.8699L16.9417 14.9369H7.08333V5.54538C7.08333 5.40074 7.02627 5.26202 6.92468 5.15974C6.8231 5.05746 6.68533 5 6.54167 5C6.39801 5 6.26023 5.05746 6.15865 5.15974C6.05707 5.26202 6 5.40074 6 5.54538V14.9369C6 15.2262 6.11414 15.5036 6.3173 15.7082C6.52047 15.9127 6.79602 16.0277 7.08333 16.0277H16.9146L14.8888 18.0728C14.7879 18.175 14.7312 18.3133 14.7312 18.4573C14.7312 18.6014 14.7879 18.7396 14.8888 18.8418C14.9896 18.9426 15.1258 18.9994 15.2679 19C15.3392 19.0004 15.4099 18.9866 15.4759 18.9595C15.5419 18.9324 15.6019 18.8924 15.6525 18.8418L19 15.4823L15.6525 12.1009Z" fill="#787C89"/>
</svg>
