<svg width="24" height="24" viewBox="0 0 24 24" fill="none" xmlns="http://www.w3.org/2000/svg">
<path d="M5 7.88C5 8.43228 4.55228 8.88 4 8.88C3.73478 8.88 3.48043 8.77464 3.29289 8.58711C3.10536 8.39957 3 8.14522 3 7.88V4.43C3 3.64023 3.64023 3 4.43 3H7.88C8.43228 3 8.88 3.44772 8.88 4C8.88 4.55228 8.43228 5 7.88 5H5.58C5.25967 5 5 5.25967 5 5.58V7.88Z" fill="#787C89"/>
<path d="M5.58 19H7.88C8.43228 19 8.88 19.4477 8.88 20C8.88 20.5523 8.43228 21 7.88 21H4.43C3.64023 21 3 20.3598 3 19.57V16.12C3 15.5677 3.44772 15.12 4 15.12C4.55228 15.12 5 15.5677 5 16.12V18.42C5 18.7403 5.25967 19 5.58 19Z" fill="#787C89"/>
<path d="M20 15.12C19.4477 15.12 19 15.5677 19 16.12V18.42C19 18.7403 18.7403 19 18.42 19H16.12C15.5677 19 15.12 19.4477 15.12 20C15.12 20.5523 15.5677 21 16.12 21H19.57C20.3598 21 21 20.3598 21 19.57V16.12C21 15.5677 20.5523 15.12 20 15.12Z" fill="#787C89"/>
<path d="M16.12 3H19.57C20.3598 3 21 3.64023 21 4.43V7.88C21 8.43228 20.5523 8.88 20 8.88C19.4477 8.88 19 8.43228 19 7.88V5.58C19 5.25967 18.7403 5 18.42 5H16.12C15.5677 5 15.12 4.55228 15.12 4C15.12 3.44772 15.5677 3 16.12 3Z" fill="#787C89"/>
<path d="M3.71 14H6.44V16.81C6.43728 17.0097 6.51543 17.2021 6.65667 17.3433C6.79792 17.4846 6.99027 17.5627 7.19 17.56H16.81C17.0097 17.5627 17.2021 17.4846 17.3433 17.3433C17.4846 17.2021 17.5627 17.0097 17.56 16.81V14H20.29C20.6821 14 21 13.6821 21 13.29C21 12.8979 20.6821 12.58 20.29 12.58H3.71C3.31788 12.58 3 12.8979 3 13.29C3 13.6821 3.31788 14 3.71 14Z" fill="#787C89"/>
<path d="M6.44 11.5V7.19C6.43728 6.99027 6.51543 6.79792 6.65667 6.65667C6.79792 6.51543 6.99027 6.43728 7.19 6.44H16.81C17.0097 6.43728 17.2021 6.51543 17.3433 6.65667C17.4846 6.79792 17.5627 6.99027 17.56 7.19V11.5H6.44Z" fill="#787C89"/>
</svg>
