<svg width="24" height="24" viewBox="0 0 24 24" fill="none" xmlns="http://www.w3.org/2000/svg">
<path fill-rule="evenodd" clip-rule="evenodd" d="M15.77 14.4998C16.049 14.5731 16.304 14.7179 16.51 14.9198L20.67 19.0998C20.8807 19.3066 20.9995 19.5895 20.9995 19.8848C20.9995 20.1801 20.8807 20.4629 20.67 20.6698C20.4632 20.8805 20.1803 20.9992 19.885 20.9992C19.5898 20.9992 19.3069 20.8805 19.1 20.6698L14.92 16.4998C14.7166 16.2989 14.5714 16.0466 14.5 15.7698L14.32 15.0698C11.5125 17.4743 7.30673 17.2307 4.79569 14.518C2.28465 11.8053 2.36591 7.59327 4.97971 4.97947C7.59351 2.36567 11.8056 2.28441 14.5182 4.79545C17.2309 7.30649 17.4746 11.5123 15.07 14.3198L15.77 14.4998ZM5.62897 12.0155C6.56412 13.851 8.57579 14.8745 10.61 14.5498C12.6336 14.2268 14.2219 12.6425 14.55 10.6198C14.8799 8.58638 13.8615 6.57211 12.0284 5.6323C10.1953 4.69248 7.96532 5.04136 6.50684 6.49614C5.04835 7.95092 4.69381 10.18 5.62897 12.0155Z" fill="#787C89"/>
</svg>
