<svg width="24" height="24" viewBox="0 0 24 24" fill="none" xmlns="http://www.w3.org/2000/svg">
<path d="M8.04853 13.8518C7.5799 13.3831 6.8201 13.3831 6.35147 13.8518C5.88284 14.3204 5.88284 15.0802 6.35147 15.5488L10.962 20.1593C11.5477 20.7451 12.4975 20.7451 13.0833 20.1593L17.6938 15.5488C18.1624 15.0802 18.1624 14.3204 17.6938 13.8518C17.2251 13.3831 16.4653 13.3831 15.9967 13.8518L12.0226 17.8258L8.04853 13.8518Z" fill="#787C89"/>
<path d="M8.04853 9.74688C7.5799 10.2155 6.8201 10.2155 6.35147 9.74688C5.88284 9.27825 5.88284 8.51845 6.35147 8.04982L10.962 3.43934C11.5477 2.85355 12.4975 2.85355 13.0833 3.43934L17.6938 8.04982C18.1624 8.51845 18.1624 9.27825 17.6938 9.74688C17.2251 10.2155 16.4653 10.2155 15.9967 9.74688L12.0226 5.77279L8.04853 9.74688Z" fill="#787C89"/>
</svg>
