<svg width="24" height="24" viewBox="0 0 24 24" fill="none" xmlns="http://www.w3.org/2000/svg">
<g clip-path="url(#clip0_895_2656)">
<path d="M15 18.9675V20.5335C14.0319 20.8504 13.0187 21.008 12 21C7.29 21 4.5 17.9565 4.5 15V14.25C4.5 13.6533 4.73705 13.081 5.15901 12.659C5.58097 12.2371 6.15326 12 6.75 12H14.3025C13.7751 12.9117 13.4982 13.9467 13.5 15C13.5 16.521 14.067 17.91 15 18.9675ZM12 2.25C13.094 2.25 14.1432 2.6846 14.9168 3.45818C15.6904 4.23177 16.125 5.28098 16.125 6.375C16.125 7.46902 15.6904 8.51823 14.9168 9.29182C14.1432 10.0654 13.094 10.5 12 10.5C10.906 10.5 9.85677 10.0654 9.08318 9.29182C8.3096 8.51823 7.875 7.46902 7.875 6.375C7.875 5.28098 8.3096 4.23177 9.08318 3.45818C9.85677 2.6846 10.906 2.25 12 2.25ZM19.5 19.5C20.6935 19.5 21.8381 19.0259 22.682 18.182C23.5259 17.3381 24 16.1935 24 15C24 13.8065 23.5259 12.6619 22.682 11.818C21.8381 10.9741 20.6935 10.5 19.5 10.5C18.3065 10.5 17.1619 10.9741 16.318 11.818C15.4741 12.6619 15 13.8065 15 15C15 16.1935 15.4741 17.3381 16.318 18.182C17.1619 19.0259 18.3065 19.5 19.5 19.5ZM19.5 21C20.5534 21.0014 21.5884 20.724 22.5 20.196V23.6235C22.5001 23.6898 22.4826 23.7549 22.4492 23.8123C22.4159 23.8696 22.368 23.9171 22.3104 23.9498C22.2528 23.9826 22.1875 23.9995 22.1212 23.9989C22.0549 23.9982 21.99 23.9799 21.933 23.946L19.5 22.5L17.067 23.9475C17.01 23.9814 16.9451 23.9997 16.8788 24.0004C16.8125 24.001 16.7472 23.9841 16.6896 23.9513C16.632 23.9186 16.5841 23.8711 16.5508 23.8138C16.5174 23.7564 16.4999 23.6913 16.5 23.625V20.1975C17.4117 20.725 18.4467 21.0018 19.5 21Z" fill="#787C89"/>
</g>
<defs>
<clipPath id="clip0_895_2656">
<rect width="24" height="24" fill="white"/>
</clipPath>
</defs>
</svg>
