<svg width="24" height="24" viewBox="0 0 24 24" fill="none" xmlns="http://www.w3.org/2000/svg">
<path d="M19.1615 18.824C18.7896 18.8967 18.4129 18.7232 18.2339 18.3968C18.0549 18.0705 18.1159 17.6682 18.384 17.4064C18.6522 17.1446 19.0643 17.0851 19.3986 17.2598C19.733 17.4345 19.9107 17.8023 19.8362 18.1653C19.7674 18.4973 19.5016 18.7568 19.1615 18.824Z" fill="#787C89"/>
<path fill-rule="evenodd" clip-rule="evenodd" d="M19 22C21.2091 22 23 20.2091 23 18C23 15.7909 21.2091 14 19 14C16.7909 14 15 15.7909 15 18C15 20.2091 16.7909 22 19 22ZM20.9507 18.3227C20.8734 18.2742 20.8262 18.191 20.8251 18.1013V17.8987C20.8224 17.8119 20.8632 17.7294 20.9343 17.6773L21.3386 17.368C21.3843 17.3307 21.3968 17.2672 21.3687 17.216L20.877 16.384C20.8463 16.3335 20.7828 16.3121 20.7267 16.3333L20.2542 16.5173C20.1635 16.5528 20.0605 16.5407 19.981 16.4853C19.9342 16.4546 19.8859 16.4261 19.8362 16.4C19.751 16.3596 19.6917 16.2808 19.6778 16.1893L19.604 15.7013C19.5958 15.6429 19.5443 15.5995 19.4838 15.6H18.5004C18.4399 15.5995 18.3885 15.6429 18.3802 15.7013L18.3092 16.1893C18.2939 16.2803 18.2351 16.3586 18.1508 16.4C18.097 16.4262 18.045 16.4555 17.9951 16.488C17.916 16.545 17.8117 16.5562 17.7219 16.5173L17.2602 16.3333C17.2042 16.3109 17.1399 16.3326 17.11 16.384L16.6183 17.216C16.5851 17.2664 16.5983 17.3333 16.6483 17.368L17.0526 17.6773C17.1227 17.7299 17.1624 17.8124 17.1592 17.8987V18.1013C17.1624 18.1876 17.1227 18.2701 17.0526 18.3227L16.6483 18.632C16.5995 18.6674 16.5865 18.7334 16.6183 18.784L17.11 19.616C17.1398 19.6675 17.2035 19.6901 17.2602 19.6693L17.7301 19.4827C17.8208 19.4472 17.9237 19.4593 18.0033 19.5147C18.0527 19.5457 18.1038 19.5742 18.1562 19.6C18.2419 19.6404 18.302 19.719 18.3174 19.8107L18.3884 20.2987C18.3967 20.3571 18.4481 20.4005 18.5086 20.4H19.492C19.5525 20.4005 19.604 20.3571 19.6122 20.2987L19.686 19.8107C19.6999 19.7192 19.7592 19.6404 19.8444 19.6C19.8969 19.5732 19.948 19.5439 19.9974 19.512C20.0764 19.455 20.1807 19.4438 20.2705 19.4827L20.7431 19.6693C20.7998 19.6914 20.8644 19.6684 20.8934 19.616L21.3851 18.784C21.4132 18.7328 21.4007 18.6693 21.355 18.632L20.9507 18.3227Z" fill="#787C89"/>
<path d="M3 6C3 4.89543 3.89543 4 5 4H19C20.1046 4 21 4.89543 21 6V13.416C20.3875 13.1485 19.7111 13 19 13C16.2386 13 14 15.2386 14 18H5C3.89543 18 3 17.1046 3 16V6Z" fill="#787C89"/>
<path d="M14.9996 21C14.5629 20.4186 14.25 19.7389 14.1 19H3C2.44772 19 2 19.4477 2 20C2 20.5523 2.44772 21 3 21H14.9996Z" fill="#787C89"/>
</svg>
