<svg width="24" height="24" viewBox="0 0 24 24" fill="none" xmlns="http://www.w3.org/2000/svg">
<path d="M20.4001 6.59998C20.4001 5.80433 20.084 5.04126 19.5214 4.47866C18.9588 3.91605 18.1957 3.59998 17.4001 3.59998H6.6001C5.80445 3.59998 5.04139 3.91605 4.47878 4.47866C3.91617 5.04126 3.6001 5.80433 3.6001 6.59998V7.19998H20.4001V6.59998Z" fill="#787C89"/>
<path d="M20.4001 11.52V8.40002H3.6001V17.4C3.6001 18.1957 3.91617 18.9587 4.47878 19.5213C5.04139 20.084 5.80445 20.4 6.6001 20.4H11.5201C10.8855 19.1578 10.6608 17.7464 10.8783 16.3685C11.0958 14.9906 11.7443 13.717 12.7307 12.7306C13.7171 11.7442 14.9906 11.0957 16.3685 10.8782C17.7465 10.6607 19.1578 10.8854 20.4001 11.52Z" fill="#787C89"/>
<path d="M16.4424 17.8961C16.6662 18.304 17.1371 18.5209 17.6019 18.43C18.027 18.346 18.3592 18.0217 18.4453 17.6067C18.5384 17.153 18.3163 16.6932 17.8983 16.4748C17.4804 16.2564 16.9653 16.3308 16.6301 16.658C16.2949 16.9852 16.2187 17.4881 16.4424 17.8961Z" fill="#787C89"/>
<path fill-rule="evenodd" clip-rule="evenodd" d="M17.4 22.8C18.8322 22.8 20.2057 22.2311 21.2184 21.2184C22.2311 20.2057 22.8 18.8322 22.8 17.4C22.8 15.9678 22.2311 14.5943 21.2184 13.5816C20.2057 12.5689 18.8322 12 17.4 12C15.9678 12 14.5943 12.5689 13.5816 13.5816C12.5689 14.5943 12 15.9678 12 17.4C12 18.8322 12.5689 20.2057 13.5816 21.2184C14.5943 22.2311 15.9678 22.8 17.4 22.8ZM19.6815 17.2734V17.5267C19.6828 17.6388 19.7419 17.7428 19.8386 17.8034L20.3439 18.19C20.401 18.2367 20.4166 18.316 20.3815 18.38L19.7669 19.42C19.7307 19.4856 19.6499 19.5142 19.5791 19.4867L18.9883 19.2534C18.876 19.2047 18.7456 19.2187 18.6469 19.29C18.5851 19.3299 18.5213 19.3666 18.4557 19.4C18.3491 19.4505 18.275 19.549 18.2576 19.6634L18.1654 20.2734C18.1551 20.3465 18.0908 20.4007 18.0152 20.4H16.7859C16.7103 20.4007 16.646 20.3465 16.6357 20.2734L16.5469 19.6634C16.5276 19.5488 16.4525 19.4506 16.3454 19.4C16.2798 19.3677 16.216 19.3321 16.1542 19.2934C16.0548 19.2241 15.9261 19.2091 15.8128 19.2534L15.2254 19.4867C15.1546 19.5127 15.0749 19.4844 15.0376 19.42L14.423 18.38C14.3832 18.3168 14.3995 18.2343 14.4606 18.19L14.9659 17.8034C15.0536 17.7376 15.1032 17.6345 15.0991 17.5267V17.2734C15.1032 17.1655 15.0536 17.0624 14.9659 16.9967L14.4606 16.61C14.398 16.5667 14.3815 16.483 14.423 16.42L15.0376 15.38C15.075 15.3158 15.1554 15.2886 15.2254 15.3167L15.8025 15.5467C15.9148 15.5953 16.0452 15.5813 16.144 15.51C16.2064 15.4695 16.2715 15.4327 16.3386 15.4C16.444 15.3482 16.5176 15.2503 16.5366 15.1367L16.6254 14.5267C16.6357 14.4536 16.7001 14.3993 16.7757 14.4H18.0049C18.0805 14.3993 18.1449 14.4536 18.1552 14.5267L18.2474 15.1367C18.2648 15.251 18.3389 15.3496 18.4454 15.4C18.5075 15.4326 18.5679 15.4682 18.6264 15.5067C18.7258 15.5759 18.8545 15.591 18.9678 15.5467L19.5586 15.3167C19.6286 15.2901 19.708 15.3169 19.7464 15.38L20.361 16.42C20.3962 16.484 20.3805 16.5634 20.3234 16.61L19.8181 16.9967C19.7291 17.0617 19.6782 17.1649 19.6815 17.2734Z" fill="#787C89"/>
</svg>
