<svg width="24" height="24" viewBox="0 0 24 24" fill="none" xmlns="http://www.w3.org/2000/svg">
<path d="M12.2689 12.3734C11.6492 12.4945 11.0213 12.2054 10.723 11.6614C10.4246 11.1174 10.5263 10.447 10.9732 10.0107C11.4201 9.57438 12.107 9.47515 12.6642 9.76637C13.2214 10.0576 13.5176 10.6706 13.3935 11.2756C13.2787 11.8289 12.8357 12.2613 12.2689 12.3734Z" fill="#787C89"/>
<path fill-rule="evenodd" clip-rule="evenodd" d="M4.73223 2.73223C4.26339 3.20107 4 3.83696 4 4.5V19.5C4 20.163 4.26339 20.7989 4.73223 21.2678C5.20107 21.7366 5.83696 22 6.5 22H19.75C19.9489 22 20.1397 21.921 20.2803 21.7803C20.421 21.6397 20.5 21.4489 20.5 21.25C20.5 21.0511 20.421 20.8603 20.2803 20.7197C20.1397 20.579 19.9489 20.5 19.75 20.5H6.5C6.23478 20.5 5.98043 20.3946 5.79289 20.2071C5.60536 20.0196 5.5 19.7652 5.5 19.5H19.75C19.9489 19.5 20.1397 19.421 20.2803 19.2803C20.421 19.1397 20.5 18.9489 20.5 18.75V4.5C20.5 4.1717 20.4353 3.84661 20.3097 3.54329C20.1841 3.23998 19.9999 2.96438 19.7678 2.73223C19.5356 2.50009 19.26 2.31594 18.9567 2.1903C18.6534 2.06466 18.3283 2 18 2H6.5C5.83696 2 5.20107 2.26339 4.73223 2.73223ZM15.0418 11.1689V10.8311C15.0374 10.6865 15.1053 10.5489 15.2239 10.4622L15.8977 9.94667C15.9738 9.88447 15.9947 9.7787 15.9478 9.69334L15.1283 8.30667C15.0772 8.22254 14.9713 8.18682 14.8779 8.22223L14.0903 8.52889C13.9391 8.58797 13.7675 8.56787 13.635 8.47556C13.557 8.42427 13.4765 8.37681 13.3937 8.33334C13.2517 8.26604 13.1529 8.13465 13.1296 7.98223L13.0067 7.1689C12.993 7.07142 12.9072 6.99909 12.8064 7.00001H11.1674C11.0666 6.99909 10.9808 7.07142 10.967 7.1689L10.8487 7.98223C10.8232 8.13376 10.7251 8.26427 10.5846 8.33334C10.4951 8.37693 10.4084 8.42591 10.3251 8.48001C10.1934 8.57506 10.0195 8.59373 9.86982 8.52889L9.1004 8.22223C9.00706 8.18479 8.89976 8.22097 8.84999 8.30667L8.03049 9.69334C7.9751 9.77727 7.99716 9.88889 8.08057 9.94667L8.75439 10.4622C8.87124 10.5499 8.93741 10.6873 8.93194 10.8311V11.1689C8.93741 11.3127 8.87124 11.4501 8.75439 11.5378L8.08057 12.0533C7.9992 12.1124 7.97747 12.2223 8.03049 12.3067L8.84999 13.6933C8.89963 13.7791 9.0059 13.8169 9.1004 13.7822L9.88348 13.4711C10.0346 13.412 10.2062 13.4321 10.3388 13.5244C10.4212 13.5761 10.5063 13.6236 10.5937 13.6667C10.7364 13.7341 10.8367 13.865 10.8623 14.0178L10.9807 14.8311C10.9944 14.9286 11.0802 15.0009 11.181 15H12.82C12.9208 15.0009 13.0066 14.9286 13.0204 14.8311L13.1433 14.0178C13.1665 13.8654 13.2653 13.734 13.4073 13.6667C13.4948 13.6221 13.5799 13.5731 13.6623 13.52C13.794 13.4249 13.9679 13.4063 14.1176 13.4711L14.9052 13.7822C14.9997 13.8189 15.1074 13.7807 15.1556 13.6933L15.9751 12.3067C16.022 12.2213 16.0011 12.1155 15.925 12.0533L15.2512 11.5378C15.1223 11.457 15.0436 11.3184 15.0418 11.1689Z" fill="#787C89"/>
</svg>
