<svg width="24" height="24" viewBox="0 0 24 24" fill="none" xmlns="http://www.w3.org/2000/svg">
<path fill-rule="evenodd" clip-rule="evenodd" d="M18.71 11.62V12.38C18.714 12.7165 18.8868 13.0284 19.17 13.21L20.65 14.37C20.8171 14.51 20.863 14.748 20.76 14.94L18.96 18.06C18.854 18.2566 18.6175 18.3426 18.41 18.26L16.68 17.56C16.3512 17.4141 15.9693 17.4561 15.68 17.67C15.4991 17.7896 15.3122 17.8997 15.12 18C14.8081 18.1514 14.5911 18.4471 14.54 18.79L14.27 20.62C14.2398 20.8393 14.0514 21.0021 13.83 21H10.23C10.0086 21.0021 9.8202 20.8393 9.79002 20.62L9.53002 18.79C9.47363 18.4464 9.25352 18.1516 8.94002 18C8.74794 17.9031 8.56102 17.7963 8.38002 17.68C8.08887 17.4723 7.71203 17.4271 7.38002 17.56L5.66002 18.26C5.45245 18.3379 5.21905 18.2531 5.11002 18.06L3.31002 14.94C3.19355 14.7502 3.24128 14.5029 3.42002 14.37L4.90002 13.21C5.15669 13.0128 5.30202 12.7035 5.29002 12.38V11.62C5.30202 11.2965 5.15669 10.9873 4.90002 10.79L3.42002 9.63002C3.23681 9.50001 3.18834 9.24886 3.31002 9.06002L5.11002 5.94002C5.21932 5.74719 5.455 5.66578 5.66002 5.75002L7.35002 6.44002C7.67887 6.5859 8.06074 6.5439 8.35002 6.33002C8.53299 6.20831 8.72336 6.0981 8.92002 6.00002C9.22858 5.84461 9.44417 5.55096 9.50002 5.21002L9.76002 3.38002C9.7902 3.1607 9.97864 2.99795 10.2 3.00002H13.8C14.0214 2.99795 14.2098 3.1607 14.24 3.38002L14.51 5.21002C14.5611 5.55296 14.7781 5.8486 15.09 6.00002C15.2719 6.09782 15.4488 6.20462 15.62 6.32002C15.9112 6.52771 16.288 6.57293 16.62 6.44002L18.35 5.75002C18.5551 5.67036 18.7878 5.75073 18.9 5.94002L20.7 9.06002C20.803 9.25209 20.7571 9.49007 20.59 9.63002L19.11 10.79C18.8496 10.9851 18.7004 11.2948 18.71 11.62ZM9.2243 13.4881C9.87954 14.712 11.2588 15.3627 12.62 15.09C13.8649 14.8379 14.8379 13.8649 15.09 12.62C15.3627 11.2588 14.712 9.87955 13.4881 9.22431C12.2642 8.56906 10.7556 8.79233 9.77398 9.77398C8.79232 10.7556 8.56906 12.2642 9.2243 13.4881Z" fill="#787C89"/>
</svg>
