<svg width="24" height="24" viewBox="0 0 24 24" fill="none" xmlns="http://www.w3.org/2000/svg">
<path d="M12.3751 3.29875L19.0365 9.91375C19.3878 10.2648 19.3878 10.8317 19.0365 11.1827C18.8663 11.3531 18.6346 11.449 18.393 11.449C18.1513 11.449 17.9197 11.3531 17.7495 11.1827L12.5563 6.02575V15.0943C12.5563 15.5914 12.1505 15.9943 11.65 15.9943C11.1495 15.9943 10.7437 15.5914 10.7437 15.0943V6.02575L5.55051 11.1827C5.38034 11.3531 5.14869 11.449 4.90703 11.449C4.66537 11.449 4.43372 11.3531 4.26355 11.1827C3.91215 10.8317 3.91215 10.2648 4.26355 9.91375L10.9249 3.29875C11.1171 3.10749 11.378 3 11.65 3C11.922 3 12.1829 3.10749 12.3751 3.29875Z" fill="#787C89"/>
<path d="M5.90657 13.8C5.40951 13.8 5.00657 14.2029 5.00657 14.7V16.5C5.00657 18.9853 7.02129 21 9.50657 21H14.0066C16.4918 21 18.5066 18.9853 18.5066 16.5V14.7C18.5066 14.2029 18.1036 13.8 17.6066 13.8C17.1095 13.8 16.7066 14.2029 16.7066 14.7V16.5C16.7066 17.9912 15.4977 19.2 14.0066 19.2H9.50657C8.0154 19.2 6.80657 17.9912 6.80657 16.5V14.7C6.80657 14.2029 6.40362 13.8 5.90657 13.8Z" fill="#787C89"/>
</svg>
