<svg width="24" height="24" viewBox="0 0 24 24" fill="none" xmlns="http://www.w3.org/2000/svg">
<path fill-rule="evenodd" clip-rule="evenodd" d="M15.29 15.8198C15.8898 15.0471 16.8119 14.5935 17.79 14.5898H17.8C19.1002 14.5858 20.2743 15.3664 20.7738 16.5668C21.2732 17.7672 20.9992 19.1503 20.0798 20.0696C19.1605 20.989 17.7774 21.263 16.577 20.7635C15.3766 20.2641 14.596 19.09 14.6 17.7898C14.5954 17.7701 14.5954 17.7496 14.6 17.7298L8.45004 14.1898C7.41763 15.2129 5.82659 15.4147 4.57152 14.6816C3.31644 13.9485 2.71057 12.4636 3.09456 11.0617C3.47856 9.65988 4.75658 8.69099 6.21004 8.69982C7.12747 8.68454 8.00652 9.06753 8.62004 9.74982L14.62 6.26982C14.6154 6.2501 14.6154 6.22955 14.62 6.20982C14.616 4.90969 15.3966 3.73551 16.597 3.2361C17.7974 2.73669 19.1805 3.01069 20.0998 3.93003C21.0192 4.84937 21.2932 6.23247 20.7938 7.43286C20.2943 8.63326 19.1202 9.41387 17.82 9.40982C16.8419 9.40614 15.9198 8.9525 15.32 8.17982L9.41004 11.5898C9.41544 11.6964 9.41544 11.8032 9.41004 11.9098C9.40873 12.0744 9.39199 12.2384 9.36004 12.3998L15.29 15.8198ZM18.915 5.73981C18.7246 5.288 18.2803 4.99577 17.79 4.99982C17.1257 5.00532 16.59 5.54545 16.59 6.20982C16.5901 6.70013 16.886 7.14196 17.3393 7.32864C17.7927 7.51533 18.3139 7.40996 18.6592 7.06182C19.0044 6.71369 19.1055 6.19162 18.915 5.73981ZM6.21004 13.1098C5.71884 13.1139 5.27394 12.8206 5.0841 12.3675C4.89425 11.9145 4.99714 11.3916 5.34448 11.0443C5.69182 10.6969 6.21468 10.594 6.66772 10.7839C7.12076 10.9737 7.41408 11.4186 7.41004 11.9098C7.4046 12.5703 6.87051 13.1044 6.21004 13.1098ZM16.58 17.7898C16.58 18.4581 17.1218 18.9998 17.79 18.9998C18.4583 18.9998 19 18.4581 19 17.7898C19 17.1216 18.4583 16.5798 17.79 16.5798C17.1218 16.5798 16.58 17.1216 16.58 17.7898Z" fill="#787C89"/>
</svg>
