<svg width="24" height="24" viewBox="0 0 24 24" fill="none" xmlns="http://www.w3.org/2000/svg">
<path d="M4 5C3.44772 5 3 5.44772 3 6C3 6.55228 3.44772 7 4 7H20C20.5523 7 21 6.55228 21 6C21 5.44772 20.5523 5 20 5H4Z" fill="#787C89"/>
<path d="M4 10C3.44772 10 3 10.4477 3 11C3 11.5523 3.44772 12 4 12H14C14.5523 12 15 11.5523 15 11C15 10.4477 14.5523 10 14 10H4Z" fill="#787C89"/>
<path d="M19 10C19 9.44772 18.5523 9 18 9C17.4477 9 17 9.44772 17 10V16.3885L15.9044 15.2929C15.5138 14.9024 14.8807 14.9024 14.4902 15.2929C14.0996 15.6834 14.0996 16.3166 14.4902 16.7071L17.3052 19.5221C17.6957 19.9126 18.3288 19.9126 18.7194 19.5221L21.5344 16.7071C21.9249 16.3166 21.9249 15.6834 21.5344 15.2929C21.1439 14.9024 20.5107 14.9024 20.1202 15.2929L19 16.4131V10Z" fill="#787C89"/>
<path d="M4 15C3.44772 15 3 15.4477 3 16C3 16.5523 3.44772 17 4 17H12C12.5523 17 13 16.5523 13 16C13 15.4477 12.5523 15 12 15H4Z" fill="#787C89"/>
</svg>
