<svg width="24" height="24" viewBox="0 0 24 24" fill="none" xmlns="http://www.w3.org/2000/svg">
<path fill-rule="evenodd" clip-rule="evenodd" d="M13 20C13.5523 20 14 19.5523 14 19V5C14 4.44772 13.5523 4 13 4H11C10.4477 4 10 4.44772 10 5V19C10 19.5523 10.4477 20 11 20H13ZM7 20C7.55228 20 8 19.5523 8 19V13C8 12.4477 7.55228 12 7 12H5C4.44772 12 4 12.4477 4 13V19C4 19.5523 4.44772 20 5 20H7ZM17 20C16.4477 20 16 19.5523 16 19V10C16 9.44772 16.4477 9 17 9H19C19.5523 9 20 9.44771 20 10V19C20 19.5523 19.5523 20 19 20H17Z" fill="#787C89"/>
</svg>
