<svg width="24" height="24" viewBox="0 0 24 24" fill="none" xmlns="http://www.w3.org/2000/svg">
<path fill-rule="evenodd" clip-rule="evenodd" d="M20.9939 7.2731V8.00293C20.9939 8.11749 20.9959 8.22994 21 8.35511V8.77518L20.9939 8.95976L20.9936 8.9654C20.9916 9.0019 20.9896 9.04013 20.9857 9.07644C20.985 9.0823 20.9841 9.08943 20.9831 9.09712C20.9811 9.1117 20.9789 9.12832 20.9776 9.14221C20.9756 9.14433 20.9756 9.14646 20.9756 9.14858V9.15919C20.9745 9.16536 20.9734 9.17157 20.9723 9.17781C20.9652 9.21873 20.9579 9.26083 20.9491 9.30133C20.9185 9.44984 20.8737 9.59199 20.8228 9.73201C20.8167 9.7458 20.8101 9.76012 20.8035 9.77444C20.7969 9.78876 20.7902 9.80308 20.7841 9.81687C20.7577 9.87628 20.7271 9.93356 20.6966 9.99084C20.6949 9.99376 20.693 9.99683 20.6911 10C20.6861 10.0084 20.6806 10.0177 20.6762 10.0269C20.6436 10.0863 20.607 10.1457 20.5683 10.203C20.563 10.2104 20.5573 10.2179 20.5516 10.2256C20.5375 10.2444 20.5228 10.264 20.5112 10.2836C20.5102 10.2857 20.5087 10.2873 20.5072 10.2889C20.5056 10.2905 20.5041 10.2921 20.5031 10.2942C20.4685 10.3409 20.4318 10.3833 20.3931 10.4258C20.332 10.4937 20.2709 10.5573 20.2058 10.6167C20.1965 10.6248 20.1873 10.6332 20.178 10.6417C20.1606 10.6575 20.1429 10.6736 20.1243 10.6888C20.1243 10.6903 20.1225 10.6917 20.1207 10.6931C20.1198 10.6938 20.1189 10.6945 20.1182 10.6952L20.1161 10.6973C20.1019 10.7079 20.0693 10.7334 20.0591 10.7419C20.0225 10.7695 19.9858 10.7949 19.9471 10.8204C19.831 10.8989 19.7109 10.9646 19.5846 11.0262C19.5683 11.0325 19.5525 11.0389 19.5368 11.0453C19.521 11.0516 19.5052 11.058 19.4889 11.0644C19.4197 11.0898 19.3504 11.1132 19.2791 11.1323C19.212 11.1522 19.1432 11.1666 19.0759 11.1805L19.0633 11.1832C19.0531 11.1853 19.0424 11.1869 19.0317 11.1885C19.021 11.1901 19.0103 11.1917 19.0001 11.1938L18.9492 11.2001C18.8616 11.2086 18.7761 11.2129 18.6885 11.2129H15.3324C15.1533 11.2129 14.974 11.2117 14.7946 11.2105C14.4352 11.2082 14.0753 11.2058 13.7154 11.2129H13.6889C13.6746 11.2129 13.6604 11.2129 13.6461 11.215V10.5106C13.6461 10.5021 13.6461 10.4937 13.6441 10.4852C13.6237 10.3261 13.5117 10.2115 13.3529 10.203H10.8133C10.7986 10.203 10.7838 10.2028 10.769 10.2026C10.6586 10.201 10.5469 10.1995 10.459 10.2836C10.3579 10.3797 10.3602 10.5127 10.3626 10.6435C10.3629 10.6629 10.3632 10.6823 10.3632 10.7016V11.2129C10.349 11.2107 10.3347 11.2107 10.3205 11.2107H5.60592C5.57574 11.2107 5.54552 11.2109 5.51525 11.211C5.3637 11.2116 5.21121 11.2122 5.06013 11.198C5.0538 11.1969 5.04693 11.1964 5.03979 11.1958C5.03314 11.1953 5.02627 11.1948 5.0194 11.1938L4.94608 11.181C4.87277 11.1662 4.80149 11.1492 4.73021 11.1301C4.66504 11.111 4.59987 11.0898 4.5347 11.0665C4.5128 11.0598 4.4917 11.0514 4.4704 11.0429C4.45803 11.0379 4.44559 11.033 4.43288 11.0283C4.43084 11.0272 4.42931 11.0267 4.42779 11.0262C4.42626 11.0256 4.42473 11.0251 4.42269 11.0241C4.46139 11.0389 4.52452 11.0538 4.4064 11.0156C4.28421 10.9562 4.16609 10.8883 4.05205 10.8119C4.03066 10.797 4.00979 10.7811 3.98891 10.7652C3.96804 10.7493 3.94717 10.7334 3.92578 10.7185C3.93291 10.7228 3.93902 10.727 3.9436 10.7302C3.94818 10.7334 3.95124 10.7355 3.95226 10.7355C3.95124 10.7345 3.94717 10.7318 3.93902 10.7265C3.93087 10.7212 3.91865 10.7132 3.90134 10.7016C3.89523 10.6973 3.88913 10.6931 3.88505 10.6888C3.85654 10.6655 3.83007 10.6422 3.80359 10.6167C3.73842 10.5552 3.67529 10.4915 3.61623 10.4258C3.57754 10.3833 3.54088 10.3388 3.50626 10.2942C3.50328 10.2911 3.50139 10.288 3.49899 10.2841C3.49811 10.2826 3.49717 10.2811 3.49608 10.2794L3.50219 10.2921C3.4927 10.2761 3.48184 10.2614 3.4708 10.2466C3.46288 10.2359 3.45486 10.2251 3.4472 10.2136C3.4024 10.15 3.36167 10.0821 3.32297 10.0142C3.31686 10.0078 3.31279 9.99933 3.30872 9.99084C3.2802 9.9378 3.25373 9.88476 3.22725 9.8296C3.213 9.7999 3.19874 9.7702 3.18652 9.7405C3.18551 9.73838 3.185 9.73678 3.18449 9.73519C3.18398 9.7336 3.18347 9.73201 3.18245 9.72989C3.18041 9.72777 3.18041 9.72777 3.18041 9.72565C3.17924 9.72443 3.17875 9.72391 3.17853 9.72328C3.17838 9.72282 3.17838 9.7223 3.17838 9.7214C3.12747 9.57926 3.08266 9.43287 3.05211 9.28436C3.04376 9.24374 3.03731 9.20214 3.03081 9.16022C3.0278 9.14082 3.02479 9.12136 3.02157 9.1019C3.02157 9.09872 3.02106 9.09554 3.02055 9.09236C3.02004 9.08917 3.01953 9.08599 3.01953 9.08281C3.0192 9.07923 3.01888 9.07567 3.01855 9.07212C3.01482 9.03143 3.01122 8.99225 3.00935 8.95127C3.00527 8.88762 3.00527 8.8261 3.00527 8.76245V7.29008C3.02157 7.01639 3.12543 6.75544 3.32093 6.5645C3.52255 6.36931 3.77712 6.27172 4.05001 6.27172H8.49371C8.4933 6.21646 8.49288 6.16118 8.49245 6.10588C8.4886 5.60497 8.48474 5.10284 8.49574 4.60416C8.51 3.99527 8.97025 3.51367 9.55474 3.50094C9.58725 3.49953 9.62066 3.5 9.65437 3.50047C9.67134 3.50071 9.68839 3.50094 9.70544 3.50094H14.4037C14.699 3.50306 14.9821 3.6049 15.1918 3.82554C15.4159 4.05892 15.5034 4.36442 15.5034 4.6869V6.27172H19.9777C20.5194 6.28021 20.9552 6.71725 20.9939 7.2731ZM14.4933 4.61689C14.4913 4.61689 14.4913 4.61477 14.4913 4.61265V4.5978C14.4943 4.59992 14.4974 4.60257 14.5004 4.60522C14.5035 4.60788 14.5065 4.61053 14.5096 4.61265C14.5035 4.60841 14.4953 4.59992 14.4892 4.59143C14.4892 4.58931 14.4887 4.58772 14.4882 4.58613C14.4877 4.58454 14.4872 4.58295 14.4872 4.58082C14.4888 4.58164 14.49 4.58245 14.4911 4.58314C14.4928 4.58426 14.4941 4.58507 14.4953 4.58507C14.493 4.58258 14.4906 4.58083 14.4886 4.57937C14.4872 4.57834 14.486 4.57746 14.4852 4.57658V4.57446C14.4892 4.57658 14.4953 4.57658 14.4974 4.57658C14.4961 4.57658 14.4941 4.57577 14.4913 4.57465C14.4895 4.57396 14.4875 4.57315 14.4852 4.57234V4.56173C14.5116 4.55961 14.5035 4.55537 14.4852 4.55112C14.4852 4.54688 14.4831 4.54476 14.4831 4.54476C14.4811 4.54476 14.4811 4.54688 14.4811 4.55112C14.4791 4.55112 14.4775 4.55059 14.476 4.55006C14.4745 4.54953 14.4729 4.549 14.4709 4.549C14.4668 4.549 14.4628 4.54847 14.4587 4.54794C14.4546 4.54741 14.4505 4.54688 14.4465 4.54688C14.4363 4.53839 14.4302 4.53415 14.4302 4.53415C14.4322 4.53627 14.4363 4.54052 14.4444 4.54688H14.4363C14.4302 4.54264 14.4281 4.54264 14.4342 4.54688C14.4241 4.549 14.42 4.55112 14.4342 4.55961C14.4355 4.56092 14.4368 4.56142 14.4385 4.56211C14.4396 4.56254 14.4408 4.56304 14.4424 4.56385C14.4017 4.56244 14.362 4.56291 14.3219 4.56338C14.3018 4.56362 14.2816 4.56385 14.2611 4.56385H9.56695C9.5751 4.55749 9.57714 4.55324 9.5751 4.55112C9.58121 4.54688 9.56899 4.54688 9.5527 4.549L9.56492 4.53627C9.56424 4.53698 9.56333 4.53769 9.56213 4.53863C9.55971 4.54052 9.55609 4.54334 9.55066 4.549C9.54659 4.55006 9.54303 4.55059 9.53946 4.55112C9.5359 4.55165 9.53233 4.55218 9.52826 4.55324V4.55537C9.5249 4.55537 9.52215 4.55601 9.51968 4.55659C9.51767 4.55706 9.51584 4.55749 9.514 4.55749C9.514 4.54476 9.50993 4.549 9.5079 4.55961C9.49568 4.56173 9.4916 4.56597 9.50586 4.56597C9.50484 4.5681 9.50433 4.57075 9.50382 4.5734C9.50331 4.57605 9.5028 4.5787 9.50179 4.58082C9.50144 4.58228 9.50109 4.58367 9.50075 4.58502C9.49911 4.59156 9.49771 4.59713 9.49771 4.60416C9.48142 4.62326 9.48753 4.62113 9.49771 4.60841C9.49568 4.62326 9.49568 4.63599 9.49975 4.62962C9.50179 4.63174 9.50586 4.62962 9.51197 4.62113V6.27384H14.4872C14.4913 5.72223 14.4953 5.17062 14.4852 4.61901C14.4872 4.62326 14.4913 4.6275 14.4933 4.62538C14.4963 4.63311 14.496 4.63183 14.4948 4.62645C14.4944 4.62445 14.4939 4.62189 14.4933 4.61901V4.61689Z" fill="#787C89"/>
<path d="M20.9993 11.2851V19.3958C20.9973 20.009 20.5492 20.4969 19.9546 20.4991H4.41589C4.37169 20.4991 4.32772 20.4993 4.28382 20.4995C4.19625 20.5 4.10898 20.5005 4.02081 20.4991C3.48113 20.4906 3.04328 20.0578 3.00255 19.4977C2.99949 19.4531 2.99987 19.4086 3.00025 19.364C3.00038 19.3492 3.00051 19.3343 3.00051 19.3195V11.2957C3.09623 11.3933 3.19805 11.4845 3.30599 11.5693C3.40374 11.6457 3.50557 11.7157 3.61147 11.7815C3.83752 11.9194 4.07783 12.0318 4.32425 12.1146C4.82933 12.2833 5.35973 12.2783 5.88488 12.2733C5.97379 12.2724 6.06255 12.2716 6.15101 12.2716H8.62539C8.80996 12.2716 8.99475 12.2725 9.17962 12.2735C9.54959 12.2754 9.91986 12.2772 10.2892 12.2716H10.3157C10.3279 12.2716 10.3422 12.2716 10.3544 12.2695C10.3544 12.3797 10.3544 12.4923 10.3564 12.6026C10.3585 12.7977 10.4868 12.9272 10.6721 12.9314C10.7549 12.9328 10.8377 12.9323 10.9206 12.9319C10.962 12.9316 11.0034 12.9314 11.0448 12.9314H12.4663C12.564 12.9314 12.662 12.933 12.76 12.9347C12.9559 12.938 13.1519 12.9413 13.3461 12.9314C13.511 12.9229 13.6332 12.7956 13.6413 12.6238C13.6427 12.6026 13.6423 12.5824 13.6418 12.5619C13.6416 12.5516 13.6413 12.5411 13.6413 12.5304V12.2673C13.6556 12.2695 13.6698 12.2695 13.6841 12.2695H17.5861C17.7068 12.2695 17.8281 12.2711 17.9496 12.2727C18.3839 12.2785 18.8215 12.2844 19.2479 12.2164C19.6532 12.1507 20.0401 12 20.3884 11.7794C20.4943 11.7115 20.5961 11.6394 20.6938 11.5609C20.7997 11.476 20.9036 11.3826 20.9993 11.2851Z" fill="#787C89"/>
</svg>
