<svg width="24" height="24" viewBox="0 0 24 24" fill="none" xmlns="http://www.w3.org/2000/svg">
<path fill-rule="evenodd" clip-rule="evenodd" d="M2 7C2 5.89543 2.89543 5 4 5H20C21.1046 5 22 5.89543 22 7V17C22 18.1046 21.1046 19 20 19H4C2.89543 19 2 18.1046 2 17V7ZM11.5 6.5C11.5 6.22386 11.7239 6 12 6H14C14.2761 6 14.5 6.22386 14.5 6.5C14.5 6.77614 14.2761 7 14 7H12C11.7239 7 11.5 6.77614 11.5 6.5ZM10.5 6C10.2239 6 10 6.22386 10 6.5C10 6.77614 10.2239 7 10.5 7C10.7761 7 11 6.77614 11 6.5C11 6.22386 10.7761 6 10.5 6Z" fill="#787C89"/>
</svg>
