<svg width="24" height="24" viewBox="0 0 24 24" fill="none" xmlns="http://www.w3.org/2000/svg">
<path fill-rule="evenodd" clip-rule="evenodd" d="M19.89 5.00002L21 11.32C21.0948 11.9375 20.8863 12.5629 20.44 13L12.99 20.47C12.2443 21.2152 11.0358 21.2152 10.29 20.47L3.52003 13.7C2.7749 12.9543 2.7749 11.7458 3.52003 11L11 3.52002C11.4293 3.0966 12.0349 2.90342 12.63 3.00002L19 4.10002C19.4554 4.18491 19.8102 4.54369 19.89 5.00002ZM15.441 8.55867C16.0289 9.14399 16.9833 9.14758 17.5756 8.56669H17.5252C17.8193 8.29164 17.9901 7.91127 17.9996 7.51046C18.0091 7.10965 17.8564 6.72176 17.5756 6.43335C16.9833 5.85246 16.0289 5.85605 15.441 6.44137C14.8531 7.02669 14.8531 7.97335 15.441 8.55867Z" fill="#787C89"/>
</svg>
