<svg width="24" height="24" viewBox="0 0 24 24" fill="none" xmlns="http://www.w3.org/2000/svg">
<path fill-rule="evenodd" clip-rule="evenodd" d="M20.47 11.62L12.37 3.52002C12.0326 3.18485 11.5756 2.99775 11.1 3.00002H4.80001C3.80817 3.00549 3.00547 3.80818 3.00001 4.80002V11.1C2.99883 11.5803 3.18964 12.0412 3.53001 12.38L11.63 20.48C11.9674 20.8152 12.4244 21.0023 12.9 21C13.3777 21.003 13.8361 20.8117 14.17 20.47L20.47 14.17C20.8117 13.8362 21.003 13.3777 21 12.9C20.9968 12.4206 20.8067 11.9613 20.47 11.62ZM6.15001 7.50002C5.40442 7.50002 4.80001 6.8956 4.80001 6.15002C4.80001 5.40444 5.40442 4.80002 6.15001 4.80002C6.89559 4.80002 7.50001 5.40444 7.50001 6.15002C7.50269 6.50888 7.36133 6.85382 7.10757 7.10758C6.85381 7.36134 6.50887 7.50271 6.15001 7.50002ZM13.35 18.33L16.74 14.94C17.1649 14.5204 17.4028 13.9472 17.4 13.35C17.4 12.7533 17.163 12.181 16.741 11.759C16.319 11.3371 15.7467 11.1 15.15 11.1C14.5528 11.0972 13.9797 11.3351 13.56 11.76L12.9 12.41L12.24 11.77C11.688 11.1376 10.8298 10.865 10.0141 11.0631C9.19834 11.2611 8.56066 11.8968 8.36006 12.7119C8.15946 13.527 8.42931 14.386 9.06001 14.94L12.45 18.33C12.5685 18.451 12.7307 18.5191 12.9 18.5191C13.0693 18.5191 13.2315 18.451 13.35 18.33Z" fill="#787C89"/>
</svg>
