<svg width="24" height="24" viewBox="0 0 24 24" fill="none" xmlns="http://www.w3.org/2000/svg">
<path fill-rule="evenodd" clip-rule="evenodd" d="M15.59 9.32986H19.36C20.2153 9.34177 20.9233 9.99797 21 10.8499C21.005 10.8997 21.005 10.95 21 10.9999V12.6299C21.0128 12.8233 20.9856 13.0174 20.92 13.1999L18.38 18.9999C18.1352 19.598 17.5563 19.9918 16.91 19.9999H10.66C9.91925 19.9973 9.21057 19.6972 8.69339 19.1668C8.1762 18.6365 7.89392 17.9205 7.91002 17.1799V10.1099C7.88474 9.69089 8.05013 9.28294 8.36002 8.99986H8.44002L13.02 4.31986C13.4519 3.91096 14.1281 3.91096 14.56 4.31986C14.6409 4.40087 14.7114 4.49155 14.77 4.58986C14.9089 4.80901 14.9882 5.06065 15 5.31986V5.44986C15.0097 5.52957 15.0097 5.61015 15 5.68986L14.5 7.99986C14.434 8.32656 14.5182 8.66566 14.7295 8.92346C14.9408 9.18125 15.2567 9.33046 15.59 9.32986ZM5.24002 19.9999H4.15002C3.83884 19.9973 3.54174 19.8698 3.32549 19.646C3.10924 19.4222 2.99196 19.1209 3.00002 18.8099V10.9299C3.00546 10.297 3.51716 9.78529 4.15002 9.77986H5.24002C5.87679 9.77983 6.39453 10.2931 6.40002 10.9299V18.8099C6.40812 19.1227 6.28948 19.4255 6.07106 19.6496C5.85263 19.8736 5.55294 20 5.24002 19.9999Z" fill="#787C89"/>
</svg>
