<svg width="24" height="24" viewBox="0 0 24 24" fill="none" xmlns="http://www.w3.org/2000/svg">
<path fill-rule="evenodd" clip-rule="evenodd" d="M10.66 20.9999C8.58893 20.9999 6.91 19.3209 6.91 17.2499V10.1499C6.88294 9.43317 7.18052 8.74248 7.72 8.26987L12.34 3.64987C13.1373 2.84775 14.4252 2.81688 15.26 3.57987C15.4211 3.73242 15.5592 3.90759 15.67 4.09987C15.8852 4.47049 15.9991 4.89128 16 5.31987V5.44987C16.0147 5.59951 16.0147 5.75023 16 5.89987L15.5 8.19987L15.61 8.32987H19.38C20.7505 8.3307 21.8906 9.38378 22 10.7499V12.6199C22.015 12.9634 21.9499 13.3057 21.81 13.6199L19.3 19.3899C18.9008 20.3593 17.9584 20.9942 16.91 20.9999H10.66ZM4.89 20.9999H3.73C3.37522 21.0415 3.05169 20.7933 3 20.4399V10.3399C3.05169 9.98641 3.37522 9.73822 3.73 9.77987H4.89C5.24478 9.73822 5.56831 9.98641 5.62 10.3399V20.4399C5.56831 20.7933 5.24478 21.0415 4.89 20.9999ZM13.76 4.99987C13.7824 4.99042 13.8076 4.99042 13.83 4.99987C13.8618 5.01778 13.8865 5.046 13.9 5.07987C13.9482 5.15281 13.9822 5.23425 14 5.31987L13.53 7.72987C13.3858 8.35452 13.5362 9.0108 13.9382 9.51026C14.3401 10.0097 14.949 10.2971 15.59 10.2899H19.36C19.51 10.2899 19.9 10.2899 20 10.9999V12.6199C20.0048 12.6764 20.0048 12.7333 20 12.7899L17.46 18.6199C17.3707 18.8464 17.1535 18.9965 16.91 18.9999H10.66C10.1924 18.9973 9.74522 18.8076 9.41832 18.4732C9.09143 18.1388 8.91198 17.6874 8.92 17.2199V10.1499C8.90493 10.0306 8.93333 9.9099 9 9.80987L9.14 9.67987L13.76 4.99987Z" fill="#787C89"/>
</svg>
