<svg width="24" height="24" viewBox="0 0 24 24" fill="none" xmlns="http://www.w3.org/2000/svg">
<path d="M12 3C14.3869 3 16.6761 3.94821 18.364 5.63604C20.0518 7.32387 21 9.61305 21 12C21 14.3869 20.0518 16.6761 18.364 18.364C16.6761 20.0518 14.3869 21 12 21C9.61305 21 7.32387 20.0518 5.63604 18.364C3.94821 16.6761 3 14.3869 3 12C3 9.61305 3.94821 7.32387 5.63604 5.63604C7.32387 3.94821 9.61305 3 12 3ZM12 10.9084L9.90943 8.81786C9.76468 8.67311 9.56835 8.59179 9.36364 8.59179C9.15893 8.59179 8.96261 8.67311 8.81786 8.81786C8.67311 8.96261 8.59179 9.15893 8.59179 9.36364C8.59179 9.56835 8.67311 9.76468 8.81786 9.90943L10.9084 12L8.81786 14.0906C8.74618 14.1622 8.68933 14.2473 8.65054 14.341C8.61175 14.4346 8.59179 14.535 8.59179 14.6364C8.59179 14.7377 8.61175 14.8381 8.65054 14.9317C8.68933 15.0254 8.74618 15.1105 8.81786 15.1821C8.88953 15.2538 8.97462 15.3107 9.06827 15.3495C9.16191 15.3882 9.26228 15.4082 9.36364 15.4082C9.465 15.4082 9.56537 15.3882 9.65902 15.3495C9.75267 15.3107 9.83776 15.2538 9.90943 15.1821L12 13.0916L14.0906 15.1821C14.1622 15.2538 14.2473 15.3107 14.341 15.3495C14.4346 15.3882 14.535 15.4082 14.6364 15.4082C14.7377 15.4082 14.8381 15.3882 14.9317 15.3495C15.0254 15.3107 15.1105 15.2538 15.1821 15.1821C15.2538 15.1105 15.3107 15.0254 15.3495 14.9317C15.3882 14.8381 15.4082 14.7377 15.4082 14.6364C15.4082 14.535 15.3882 14.4346 15.3495 14.341C15.3107 14.2473 15.2538 14.1622 15.1821 14.0906L13.0916 12L15.1821 9.90943C15.2538 9.83776 15.3107 9.75267 15.3495 9.65902C15.3882 9.56537 15.4082 9.465 15.4082 9.36364C15.4082 9.26228 15.3882 9.16191 15.3495 9.06827C15.3107 8.97462 15.2538 8.88953 15.1821 8.81786C15.1105 8.74618 15.0254 8.68933 14.9317 8.65054C14.8381 8.61175 14.7377 8.59179 14.6364 8.59179C14.535 8.59179 14.4346 8.61175 14.341 8.65054C14.2473 8.68933 14.1622 8.74618 14.0906 8.81786L12 10.9084Z" fill="#787C89"/>
</svg>
