<svg width="24" height="24" viewBox="0 0 24 24" fill="none" xmlns="http://www.w3.org/2000/svg">
<path d="M18.1971 5.80292C17.7932 5.39903 17.1384 5.39903 16.7345 5.80292L12 10.5374L7.26554 5.80292C6.86165 5.39904 6.20681 5.39904 5.80292 5.80292C5.39903 6.20682 5.39903 6.86165 5.80292 7.26555L10.5374 12L5.80292 16.7345C5.39903 17.1384 5.39903 17.7932 5.80292 18.1971C6.20681 18.601 6.86165 18.601 7.26554 18.1971L12 13.4626L16.7345 18.1971C17.1384 18.601 17.7932 18.601 18.1971 18.1971C18.601 17.7932 18.601 17.1384 18.1971 16.7345L13.4626 12L18.1971 7.26554C18.601 6.86165 18.601 6.20681 18.1971 5.80292Z" fill="#787C89"/>
</svg>
