<svg width="24" height="24" viewBox="0 0 24 24" fill="none" xmlns="http://www.w3.org/2000/svg">
<path d="M20.4343 6.13702C20.7467 5.82459 20.7467 5.31802 20.4342 5.0056L18.9941 3.56563C18.6817 3.25324 18.1752 3.25326 17.8627 3.56568L12 9.4287L6.13699 3.56569C5.82457 3.25327 5.31803 3.25327 5.00561 3.56569L3.56567 5.00563C3.25326 5.31804 3.25325 5.82456 3.56566 6.13699L9.4284 12L3.56566 17.863C3.25325 18.1754 3.25326 18.682 3.56567 18.9944L5.00561 20.4343C5.31803 20.7467 5.82457 20.7467 6.13699 20.4343L12 14.5713L17.8627 20.4343C18.1752 20.7467 18.6817 20.7468 18.9941 20.4344L20.4342 18.9944C20.7467 18.682 20.7467 18.1754 20.4343 17.863L14.571 12L20.4343 6.13702Z" fill="#787C89"/>
</svg>
