<svg width="24" height="24" viewBox="0 0 24 24" fill="none" xmlns="http://www.w3.org/2000/svg">
<path d="M21.7 6.41966C21.4886 6.21879 21.2001 6.12018 20.91 6.14966H20.83H16C15.4477 6.14966 15 6.59738 15 7.14966C15 7.70195 15.4477 8.14966 16 8.14966H18.6L13.36 13.4297L10.92 10.3097C10.6304 9.99003 10.2104 9.82055 9.78 9.84966C9.39622 9.8708 9.03654 10.0434 8.78 10.3297L2.33 16.1297C2.02462 16.4072 1.9211 16.8439 2.0694 17.229C2.21769 17.6141 2.58732 17.8686 3 17.8697C3.24784 17.869 3.4866 17.7764 3.67 17.6097L9.79 12.0797L12.25 15.2297C12.5399 15.5429 12.9538 15.7114 13.38 15.6897C13.7668 15.6634 14.1269 15.4833 14.38 15.1897L20 9.55966V12.1197C20 12.6719 20.4477 13.1197 21 13.1197C21.5523 13.1197 22 12.6719 22 12.1197V7.29966C22.0045 7.27318 22.0045 7.24614 22 7.21966C22.0247 6.92155 21.9146 6.62804 21.7 6.41966Z" fill="#787C89"/>
</svg>
