<svg width="24" height="24" viewBox="0 0 24 24" fill="none" xmlns="http://www.w3.org/2000/svg">
<path d="M2.28868 6.35036C2.67872 5.96264 3.30865 5.96264 3.69868 6.35036L9.69868 12.1704L12.1787 9.00036C12.4717 8.68556 12.8893 8.51706 13.3187 8.54036C13.7067 8.56211 14.0685 8.74302 14.3187 9.04036L20.0087 14.4404V12.0004C20.0087 11.4481 20.4564 11.0004 21.0087 11.0004C21.561 11.0004 22.0087 11.4481 22.0087 12.0004V16.8304C22.0121 16.887 22.0121 16.9437 22.0087 17.0004V17.1504C21.8603 17.6345 21.415 17.9664 20.9087 17.9704H16.0087C15.4564 17.9704 15.0087 17.5226 15.0087 16.9704C15.0087 16.4181 15.4564 15.9704 16.0087 15.9704H18.6987L13.2987 10.8204L10.8487 13.9504C10.5722 14.2512 10.1823 14.4224 9.77368 14.4224C9.36508 14.4224 8.97517 14.2512 8.69868 13.9504L2.31868 7.79036C2.11915 7.60599 2.00322 7.34836 1.99756 7.07674C1.9919 6.80512 2.097 6.54289 2.28868 6.35036Z" fill="#787C89"/>
</svg>
