<svg width="24" height="24" viewBox="0 0 24 24" fill="none" xmlns="http://www.w3.org/2000/svg">
<path fill-rule="evenodd" clip-rule="evenodd" d="M12.0001 8.68971V6.54971C8.99016 6.54971 6.55011 8.98976 6.55011 11.9997C6.5551 12.6848 6.68734 13.363 6.94011 13.9997C7.09385 14.3434 7.0091 14.7469 6.73011 14.9997C6.52072 15.2145 6.21812 15.3108 5.92313 15.2566C5.62813 15.2024 5.37951 15.0048 5.26011 14.7297C4.35194 12.4883 4.61786 9.94194 5.96954 7.93648C7.32121 5.93103 9.58166 4.72903 12.0001 4.72971V2.58971C11.9956 2.49062 12.0526 2.39899 12.1434 2.35912C12.2342 2.31925 12.3402 2.33935 12.4101 2.40971L15.6401 5.63971L12.4101 8.85971C12.3415 8.9286 12.238 8.94925 12.1482 8.912C12.0583 8.87475 11.9999 8.78696 12.0001 8.68971ZM17.0501 9.99971C16.9027 9.65539 16.9867 9.25565 17.2601 8.99971C17.4715 8.78525 17.7753 8.68925 18.0715 8.7433C18.3677 8.79734 18.6181 8.99443 18.7401 9.26971C19.6483 11.5112 19.3824 14.0575 18.0307 16.0629C16.679 18.0684 14.4186 19.2704 12.0001 19.2697V21.4097C12.0046 21.5088 11.9476 21.6004 11.8568 21.6403C11.766 21.6802 11.66 21.6601 11.5901 21.5897L8.36011 18.3597L11.5901 15.1397C11.6588 15.0708 11.7622 15.0502 11.852 15.0874C11.9419 15.1247 12.0003 15.2125 12.0001 15.3097V17.4497C13.4455 17.4497 14.8318 16.8755 15.8538 15.8534C16.8759 14.8314 17.4501 13.4451 17.4501 11.9997C17.4465 11.3135 17.3107 10.6345 17.0501 9.99971Z" fill="#787C89"/>
</svg>
