<svg width="24" height="24" viewBox="0 0 24 24" fill="none" xmlns="http://www.w3.org/2000/svg">
<path fill-rule="evenodd" clip-rule="evenodd" d="M16.77 7.00017V8.66017C18.3456 8.66568 19.62 9.94453 19.62 11.5202V19.1402C19.62 20.7158 18.3456 21.9947 16.77 22.0002H7.23C5.65827 21.9947 4.38549 20.7219 4.38 19.1502V11.5202C4.38 9.94453 5.65438 8.66568 7.23 8.66017H14.95V6.83017C14.983 5.39413 13.9934 4.13622 12.59 3.83017C11.0497 3.5414 9.54673 4.48678 9.14001 6.00017C9.05239 6.42585 8.68438 6.73597 8.25 6.75017C7.96736 6.74686 7.70192 6.6138 7.53015 6.38932C7.35837 6.16484 7.29932 5.87385 7.37 5.60017C7.94351 3.3025 10.1129 1.77114 12.47 2.00017C14.9735 2.31744 16.8311 4.47738 16.77 7.00017ZM10.2345 16.0588C10.5295 16.7737 11.2266 17.2402 12 17.2402C13.051 17.2402 13.9045 16.3911 13.91 15.3402C13.9141 14.5667 13.4513 13.8672 12.7379 13.5684C12.0245 13.2697 11.2013 13.4306 10.653 13.9761C10.1047 14.5215 9.93942 15.3438 10.2345 16.0588Z" fill="#787C89"/>
</svg>
