<svg width="24" height="24" viewBox="0 0 24 24" fill="none" xmlns="http://www.w3.org/2000/svg">
<path fill-rule="evenodd" clip-rule="evenodd" d="M8.82006 9.9958H6.32006C6.0283 9.99652 5.76494 9.82109 5.65319 9.55157C5.54144 9.28206 5.60339 8.97175 5.81006 8.7658L11.2901 3.2958C11.4778 3.10649 11.7334 3 12.0001 3C12.2667 3 12.5223 3.10649 12.7101 3.2958L18.1901 8.7658C18.3967 8.97175 18.4587 9.28206 18.3469 9.55157C18.2352 9.82108 17.9718 9.99651 17.6801 9.9958L15.1801 9.9958L15.1801 14.3458C15.1801 15.4504 14.2846 16.3458 13.1801 16.3458L10.8201 16.3458C9.71549 16.3458 8.82006 15.4504 8.82006 14.3458L8.82006 9.9958ZM4.8975 20.6925C4.69813 20.4931 4.58732 20.222 4.59001 19.94C4.59001 19.6589 4.70169 19.3893 4.90048 19.1905C5.09927 18.9917 5.36888 18.88 5.65001 18.88H18.35C18.9354 18.88 19.41 19.3546 19.41 19.94C19.4127 20.222 19.3019 20.4931 19.1025 20.6925C18.9031 20.8919 18.632 21.0027 18.35 21H5.65001C5.36807 21.0027 5.09688 20.8919 4.8975 20.6925Z" fill="#787C89"/>
</svg>
