<svg width="24" height="24" viewBox="0 0 24 24" fill="none" xmlns="http://www.w3.org/2000/svg">
<path fill-rule="evenodd" clip-rule="evenodd" d="M2 8.4C2 7.76348 2.26339 7.15303 2.73223 6.70294C3.20107 6.25286 3.83696 6 4.5 6H13.875C14.4814 5.99993 15.0671 6.21143 15.5231 6.59511C15.9791 6.9788 16.2743 7.50851 16.3538 8.0856L20.2413 6.4272C20.4315 6.34581 20.64 6.31136 20.8477 6.32698C21.0554 6.34261 21.2557 6.40782 21.4304 6.51667C21.6052 6.62553 21.7488 6.7746 21.8483 6.95031C21.9478 7.12602 21.9999 7.32281 22 7.5228V16.4772C21.9998 16.677 21.9477 16.8737 21.8483 17.0492C21.7488 17.2248 21.6053 17.3738 21.4308 17.4826C21.2562 17.5914 21.0561 17.6567 20.8486 17.6724C20.641 17.6882 20.4327 17.6539 20.2425 17.5728L16.3538 15.9144C16.2743 16.4915 15.9791 17.0212 15.5231 17.4049C15.0671 17.7886 14.4814 18.0001 13.875 18H4.5C3.83696 18 3.20107 17.7471 2.73223 17.2971C2.26339 16.847 2 16.2365 2 15.6V8.4Z" fill="#787C89"/>
</svg>
