<svg width="24" height="24" viewBox="0 0 24 24" fill="none" xmlns="http://www.w3.org/2000/svg">
<path d="M10.8154 8.90543H12.3854C12.9377 8.90543 13.3854 9.35314 13.3854 9.90543C13.3854 10.4577 12.9377 10.9054 12.3854 10.9054H10.8154V12.4754C10.8154 13.0277 10.3677 13.4754 9.81543 13.4754C9.26314 13.4754 8.81543 13.0277 8.81543 12.4754V10.9054H7.24543C6.69314 10.9054 6.24543 10.4577 6.24543 9.90543C6.24543 9.35314 6.69314 8.90543 7.24543 8.90543H8.81543V7.33543C8.81543 6.78314 9.26314 6.33543 9.81543 6.33543C10.3677 6.33543 10.8154 6.78314 10.8154 7.33543V8.90543Z" fill="#787C89"/>
<path fill-rule="evenodd" clip-rule="evenodd" d="M16.5454 14.9554C16.3394 14.7535 16.0844 14.6088 15.8054 14.5354L15.1054 14.3554C17.51 11.5479 17.2663 7.34213 14.5536 4.83109C11.841 2.32005 7.62891 2.40131 5.01511 5.01511C2.40131 7.62891 2.32005 11.841 4.83109 14.5536C7.34213 17.2663 11.5479 17.51 14.3554 15.1054L14.5354 15.8054C14.6068 16.0823 14.752 16.3346 14.9554 16.5354L19.1354 20.7054C19.3423 20.9161 19.6252 21.0349 19.9204 21.0349C20.2157 21.0349 20.4986 20.9161 20.7054 20.7054C20.9161 20.4986 21.0349 20.2157 21.0349 19.9204C21.0349 19.6252 20.9161 19.3423 20.7054 19.1354L16.5454 14.9554ZM10.6454 14.5854C8.61119 14.9101 6.59952 13.8866 5.66437 12.0511C4.72921 10.2156 5.08375 7.98656 6.54224 6.53178C8.00072 5.077 10.2307 4.72813 12.0638 5.66794C13.8969 6.60776 14.9153 8.62202 14.5854 10.6554C14.2573 12.6782 12.669 14.2624 10.6454 14.5854Z" fill="#787C89"/>
</svg>
