<svg width="24" height="24" viewBox="0 0 24 24" fill="none" xmlns="http://www.w3.org/2000/svg">
<path d="M7.21003 8.86978C6.65774 8.86978 6.21003 9.3175 6.21003 9.86978C6.21003 10.4221 6.65774 10.8698 7.21003 10.8698H12.35C12.9023 10.8698 13.35 10.4221 13.35 9.86978C13.35 9.3175 12.9023 8.86978 12.35 8.86978H7.21003Z" fill="#787C89"/>
<path fill-rule="evenodd" clip-rule="evenodd" d="M16.51 14.9198C16.304 14.7179 16.049 14.5731 15.77 14.4998L15.07 14.3198C17.4746 11.5123 17.2309 7.30649 14.5182 4.79545C11.8056 2.28441 7.59351 2.36567 4.97971 4.97947C2.36591 7.59327 2.28465 11.8053 4.79569 14.518C7.30673 17.2307 11.5125 17.4743 14.32 15.0698L14.5 15.7698C14.5714 16.0466 14.7166 16.2989 14.92 16.4998L19.1 20.6698C19.3069 20.8805 19.5898 20.9992 19.885 20.9992C20.1803 20.9992 20.4632 20.8805 20.67 20.6698C20.8807 20.4629 20.9995 20.1801 20.9995 19.8848C20.9995 19.5895 20.8807 19.3066 20.67 19.0998L16.51 14.9198ZM10.61 14.5498C8.57579 14.8745 6.56412 13.851 5.62897 12.0155C4.69381 10.18 5.04835 7.95092 6.50684 6.49614C7.96532 5.04136 10.1953 4.69248 12.0284 5.6323C13.8615 6.57211 14.8799 8.58638 14.55 10.6198C14.2219 12.6425 12.6336 14.2268 10.61 14.5498Z" fill="#787C89"/>
</svg>
